<?xml version="1.0" encoding="UTF-8" standalone="no"?>
<svg
   xmlns:dc="http://purl.org/dc/elements/1.1/"
   xmlns:cc="http://creativecommons.org/ns#"
   xmlns:rdf="http://www.w3.org/1999/02/22-rdf-syntax-ns#"
   xmlns:svg="http://www.w3.org/2000/svg"
   xmlns="http://www.w3.org/2000/svg"
   viewBox="0 0 1366 768"
   height="768"
   width="1366"
   xml:space="preserve"
   id="svg2"
   version="1.1"><metadata
     id="metadata8"><rdf:RDF><cc:Work
         rdf:about=""><dc:format>image/svg+xml</dc:format><dc:type
           rdf:resource="http://purl.org/dc/dcmitype/StillImage" /></cc:Work></rdf:RDF></metadata><defs
     id="defs6"><clipPath
       id="clipPath14"
       clipPathUnits="userSpaceOnUse"><path
         id="path12"
         d="m 0,7.92 h 1024.5 v 576 H 0 Z" /></clipPath><clipPath
       id="clipPath24"
       clipPathUnits="userSpaceOnUse"><path
         style="clip-rule:evenodd"
         id="path22"
         d="M 0,0 H 4268.75 V 2400 H 0 Z" /></clipPath><clipPath
       id="clipPath36"
       clipPathUnits="userSpaceOnUse"><path
         style="clip-rule:evenodd"
         id="path34"
         d="M 0,0 H 4268.75 V 2400 H 0 Z" /></clipPath><clipPath
       id="clipPath48"
       clipPathUnits="userSpaceOnUse"><path
         style="clip-rule:evenodd"
         id="path46"
         d="M 0,0 H 4268.75 V 2400 H 0 Z" /></clipPath><clipPath
       id="clipPath84"
       clipPathUnits="userSpaceOnUse"><path
         id="path82"
         d="M 0,0 H 4268.75 V 2400 H 0 Z" /></clipPath><clipPath
       id="clipPath90"
       clipPathUnits="userSpaceOnUse"><path
         id="path88"
         d="M 0,0 H 4268.75 V 2400 H 0 Z" /></clipPath><clipPath
       id="clipPath96"
       clipPathUnits="userSpaceOnUse"><path
         id="path94"
         d="m 3119.8745,1899.9244 h 910.2417 v 252.3126 h -910.2417 z" /></clipPath><clipPath
       id="clipPath102"
       clipPathUnits="userSpaceOnUse"><path
         id="path100"
         d="m 3119.8992,1899.9246 h 921.5388 v 258.6775 h -921.5388 z" /></clipPath><clipPath
       id="clipPath108"
       clipPathUnits="userSpaceOnUse"><path
         id="path106"
         d="m 3245.4067,1899.9246 h 657.7806 c 69.3156,0 125.5075,56.1916 125.5075,125.5075 0,69.3159 -56.1919,125.5076 -125.5075,125.5076 h -657.7806 c -69.3159,0 -125.5075,-56.1917 -125.5075,-125.5076 0,-69.3159 56.1916,-125.5075 125.5075,-125.5075 z" /></clipPath><clipPath
       id="clipPath120"
       clipPathUnits="userSpaceOnUse"><path
         style="clip-rule:evenodd"
         id="path118"
         d="M 0,0 H 4268.75 V 2400 H 0 Z" /></clipPath><clipPath
       id="clipPath144"
       clipPathUnits="userSpaceOnUse"><path
         style="clip-rule:evenodd"
         id="path142"
         d="M 240.00002,216.5313 H 361.875 V 338.40631 H 240.00002 Z" /></clipPath></defs><g
     clip-path="url(#clipPath14)"
     transform="matrix(1.3333333,0,0,-1.3333333,0,778.56)"
     id="g10"><g
       transform="matrix(0.23999999,0,0,-0.23999999,0,583.91998)"
       id="g16"><g
         id="g18"><g
           clip-path="url(#clipPath24)"
           id="g20"><g
             transform="scale(3.125)"
             id="g26"><path
               id="path28"
               style="fill:#ffffff;fill-opacity:1;fill-rule:nonzero;stroke:none"
               d="M 0,0 H 1366 V 768 H 0 Z" /></g></g></g><g
         id="g30"><g
           clip-path="url(#clipPath36)"
           id="g32"><g
             transform="scale(3.125)"
             id="g38"><path
               id="path40"
               style="fill:#242222;fill-opacity:1;fill-rule:nonzero;stroke:none"
               d="M 0,0 H 1366 V 768 H 0 Z" /></g></g></g><g
         id="g42"><g
           clip-path="url(#clipPath48)"
           id="g44"><g
             transform="matrix(3.125,0,0,3.125,240.00002,545.74701)"
             id="g50"><text
               id="text54"
               style="font-variant:normal;font-weight:bold;font-size:150.80999756px;font-family:DMSans;-inkscape-font-specification:DMSans-Bold;writing-mode:lr-tb;fill:#ffffff;fill-opacity:1;fill-rule:nonzero;stroke:none"
               transform="translate(0,126)"><tspan
                 id="tspan52"
                 y="0"
                 x="0 93.946457 185.32938 275.8075 361.46014 397.34979 460.83527 552.51978">Rock the</tspan></text>
<text
               id="text58"
               style="font-variant:normal;font-weight:bold;font-size:150.80999756px;font-family:DMSans;-inkscape-font-specification:DMSans-Bold;writing-mode:lr-tb;fill:#ffffff;fill-opacity:1;fill-rule:nonzero;stroke:none"
               transform="translate(0,276)"><tspan
                 id="tspan56"
                 y="0"
                 x="0 152.30486 192.56763 231.62402 329.9436">Wild </tspan></text>
<text
               id="text62"
               style="font-variant:normal;font-weight:bold;font-size:150.80999756px;font-family:DMSans;-inkscape-font-specification:DMSans-Bold;writing-mode:lr-tb;fill:#ffffff;fill-opacity:1;fill-rule:nonzero;stroke:none"
               transform="translate(365.84375,276)"><tspan
                 id="tspan60"
                 y="0"
                 x="0 83.089081 173.26562 252.43399 315.91949 356.18225 439.57294 526.58276">Festival</tspan></text>
</g><g
             transform="matrix(3.5914733,0,0,3.5914733,279.00174,1714.5651)"
             id="g64"><text
               id="text68"
               style="font-variant:normal;font-weight:normal;font-size:37.33000183px;font-family:DMSans;-inkscape-font-specification:DMSans-Regular;writing-mode:lr-tb;fill:#ffffff;fill-opacity:1;fill-rule:nonzero;stroke:none"
               transform="translate(0,34)"><tspan
                 id="tspan66"
                 y="0"
                 x="0 18.626801 39.978561 48.265427 69.019928 78.911911 98.807861 108.69984 123.14587 145.2442 155.13618">July 7 to 9</tspan></text>
<text
               id="text72"
               style="font-variant:normal;font-weight:normal;font-size:37.33000183px;font-family:DMSans;-inkscape-font-specification:DMSans-Regular;writing-mode:lr-tb;fill:#ffffff;fill-opacity:1;fill-rule:nonzero;stroke:none"
               transform="translate(188.54823,34)"><tspan
                 id="tspan70"
                 y="0"
                 x="0">/</tspan></text>
<text
               id="text76"
               style="font-variant:normal;font-weight:normal;font-size:37.33000183px;font-family:DMSans;-inkscape-font-specification:DMSans-Regular;writing-mode:lr-tb;fill:#ffffff;fill-opacity:1;fill-rule:nonzero;stroke:none"
               transform="translate(0,77)"><tspan
                 id="tspan74"
                 y="0"
                 x="0 25.719162 47.81749 61.367645 75.813675 97.165436 107.05742 126.99071 149.08904 162.63919 177.08522 200.52736 221.76714 235.31729 248.86745 269.62195 279.51392 305.23309 325.42767 339.87372 348.79517 370.89349 392.24524 412.43982 420.72668 430.61865 452.23169 472.42627 485.97644">North Fortberry National Park</tspan></text>
</g></g></g><g
         id="g78"><g
           clip-path="url(#clipPath84)"
           id="g80"><g
             clip-path="url(#clipPath90)"
             id="g86"><g
               clip-path="url(#clipPath96)"
               id="g92"><g
                 clip-path="url(#clipPath102)"
                 id="g98"><g
                   clip-path="url(#clipPath108)"
                   id="g104"><g
                     transform="matrix(3.193831,0,0,3.193831,3119.8992,1899.9246)"
                     id="g110"><path
                       id="path112"
                       style="fill:none;stroke:#ffffff;stroke-width:1;stroke-linecap:butt;stroke-linejoin:miter;stroke-miterlimit:10;stroke-dasharray:none;stroke-opacity:1"
                       d="M 39.296879,0 H 245.25031 c 21.70303,0 39.29687,17.593811 39.29687,39.296879 0,21.703064 -17.59384,39.296871 -39.29687,39.296871 H 39.296879 C 17.593811,78.59375 0,60.999943 0,39.296879 0,17.593811 17.593811,0 39.296879,0 Z" /></g></g></g></g></g></g></g><g
         id="g114"><g
           clip-path="url(#clipPath120)"
           id="g116"><g
             transform="matrix(3.193831,0,0,3.193831,3262.6897,1980.7295)"
             id="g122"><text
               id="text126"
               style="font-variant:normal;font-weight:normal;font-size:18.65999985px;font-family:DMSans;-inkscape-font-specification:DMSans-Regular;writing-mode:lr-tb;fill:#ffffff;fill-opacity:1;fill-rule:nonzero;stroke:none"
               transform="translate(43.90625,20)"><tspan
                 id="tspan124"
                 y="0"
                 x="0 5.8030472 18.079803 29.83419 38.267761 50.600487 57.20575 75.564445 88.270309 96.70388">learn more</tspan></text>
</g><g
             transform="matrix(3.9812539,0,0,3.9812539,447.80225,246.37001)"
             id="g128"><text
               id="text132"
               style="font-variant:normal;font-weight:bold;font-size:16px;font-family:DMSans;-inkscape-font-specification:DMSans-Bold;writing-mode:lr-tb;fill:#ffffff;fill-opacity:1;fill-rule:nonzero;stroke:none"
               transform="translate(0,13)"><tspan
                 id="tspan130"
                 y="0"
                 x="0 14.128021 24.128036 34.672058 43.920074 53.888092 58.112106">MYXERIA</tspan></text>
<text
               id="text136"
               style="font-variant:normal;font-weight:normal;font-size:16px;font-family:DMSans;-inkscape-font-specification:DMSans-Regular;writing-mode:lr-tb;fill:#ffffff;fill-opacity:1;fill-rule:nonzero;stroke:none"
               transform="translate(69.328125,13)"><tspan
                 id="tspan134"
                 y="0"
                 x="0 11.52002">CO</tspan></text>
</g></g></g><g
         id="g138"><g
           clip-path="url(#clipPath144)"
           id="g140"><g
             transform="matrix(1.1441543,0,0,1.1441543,228.44406,204.97534)"
             id="g146"><path
               id="path148"
               style="fill:#ffffff;fill-opacity:1;fill-rule:nonzero;stroke:none"
               d="M 67.399002,12.109 C 36.054001,10.105001 10.105003,36.053001 12.109001,67.399002 c 1.656,25.908997 22.584,46.835998 48.493,48.492998 C 91.946999,117.896 117.896,91.947998 115.892,60.601997 114.235,34.692997 93.306999,13.764996 67.399002,12.108997 Z M 87.544998,89.802002 C 89.589996,82.776001 90.810997,74.694 90.974998,66 H 111.95 c -0.46,11.147003 -4.739,21.319 -11.561,29.250999 -3.129997,-2.193 -7.504997,-4.046997 -12.844002,-5.448997 z M 27.612,95.250999 C 20.789999,87.319 16.509998,77.147003 16.050999,66 h 20.975002 c 0.162998,8.694 1.383999,16.776001 3.43,23.802002 -5.340999,1.403 -9.715999,3.255997 -12.844,5.448997 z M 40.445,38.232998 C 38.404999,45.251999 37.188,53.320999 37.025002,62 H 16.051001 c 0.457,-11.094002 4.698,-21.222 11.462999,-29.138 3.183001,2.157001 7.589001,3.985 12.931,5.370998 z M 62,62 H 41.025002 c 0.172,-8.277 1.402999,-16.09 3.414001,-22.848 5.405998,1.090001 11.401001,1.710999 17.561001,1.822998 l 0,21.025002 z m 0,4 V 87.026001 C 55.827,87.138 49.833,87.767998 44.446999,88.872002 42.431,82.108002 41.197998,74.287003 41.024998,66 Z m 4,0 H 86.974998 C 86.803001,74.287003 85.569,82.108002 83.554001,88.872002 78.165001,87.768005 72.171997,87.138 66,87.026001 Z m 0,-4 V 40.973999 c 6.160004,-0.111 12.154999,-0.733002 17.561005,-1.822998 C 85.572006,45.91 86.803001,53.723 86.975006,62 H 66.000008 Z m 0,-25.025002 v -20.773 c 6.569,1.246999 12.445999,8.542 16.300003,19.128 -5.026001,0.98 -10.584999,1.537998 -16.300003,1.645 z m -4,-20.773 v 20.773 c -5.715,-0.106998 -11.274002,-0.665 -16.299999,-1.645 3.854,-10.586 9.730999,-17.882 16.299999,-19.128 z m 0,74.823995 V 111.799 C 55.435001,110.55299 49.562,103.267 45.708,92.692993 50.716999,91.69899 56.274002,91.133995 62,91.025993 Z m 4,20.771997 V 91.025986 c 5.724998,0.108001 11.280998,0.672996 16.292,1.667 C 78.438004,103.26598 72.565002,110.55299 66,111.79799 Z M 90.974998,61.999989 C 90.811996,53.320988 89.595001,45.251991 87.556,38.232986 c 5.342003,-1.387001 9.748001,-3.214 12.93,-5.370998 6.765,7.915001 11.006,18.044003 11.463,29.138001 z M 97.721001,29.87899 c -2.800003,1.774 -6.718003,3.339001 -11.387001,4.536999 -2.510003,-7.096001 -5.917,-12.869999 -9.931,-16.783001 8.163002,2.186001 15.474998,6.472 21.318001,12.246 z M 41.667,34.416992 c -4.668999,-1.197998 -8.586998,-2.763 -11.387001,-4.537 5.841999,-5.775 13.154999,-10.06 21.319,-12.246001 -4.014999,3.912001 -7.423,9.687001 -9.931999,16.783001 z M 30.381001,98.217987 c 2.740001,-1.800003 6.628002,-3.387001 11.298,-4.599998 C 44.187,100.69799 47.59,106.45999 51.598,110.36699 c -8.117001,-2.174 -15.390999,-6.425 -21.216999,-12.149003 z m 55.939998,-4.599998 c 4.668999,1.212997 8.557999,2.800003 11.298004,4.599998 -5.826004,5.725003 -13.098999,9.975993 -21.216995,12.149003 4.008003,-3.907 7.410004,-9.669 9.918999,-16.749001 z" /></g></g></g></g><path
       id="path150"
       style="fill:#000000;fill-opacity:0;fill-rule:nonzero;stroke:none"
       d="m 57.6,502.3419 h 29.610596 v 29.6106 H 57.6 Z" /><path
       id="path152"
       style="fill:#000000;fill-opacity:0;fill-rule:nonzero;stroke:none"
       d="m 748.7699,67.6892 h 218.13011 v 60.24894 H 748.7699 Z" /></g></svg>