<?xml version="1.0" standalone="no"?>
<!DOCTYPE svg PUBLIC "-//W3C//DTD SVG 20010904//EN"
 "http://www.w3.org/TR/2001/REC-SVG-20010904/DTD/svg10.dtd">
<svg version="1.0" xmlns="http://www.w3.org/2000/svg"
 width="1366.000000pt" height="768.000000pt" viewBox="0 0 1366.000000 768.000000"
 preserveAspectRatio="xMidYMid meet">

<g transform="translate(0.000000,768.000000) scale(0.100000,-0.100000)"
fill="#000000" stroke="none">
<path d="M0 3840 l0 -3840 6830 0 6830 0 0 3840 0 3840 -6830 0 -6830 0 0
-3840z m1120 2933 c0 -21 -29 -28 -46 -11 -14 13 -14 17 1 32 13 13 20 14 31
5 8 -6 14 -18 14 -26z m380 -66 l5 -98 45 46 c29 30 53 45 69 45 23 0 21 -4
-28 -54 l-54 -55 58 -63 c55 -59 57 -63 35 -66 -19 -3 -36 9 -77 55 l-52 58
-1 -57 c0 -55 -1 -58 -25 -58 l-25 0 0 168 c0 93 3 172 7 176 4 4 14 5 23 4
12 -3 16 -23 20 -101z m-480 73 c0 -17 -7 -20 -50 -20 l-50 0 0 -150 c0 -143
-1 -150 -20 -150 -19 0 -20 7 -20 150 l0 150 -50 0 c-43 0 -50 3 -50 20 0 19
7 20 120 20 113 0 120 -1 120 -20z m1018 -53 c3 -24 8 -27 38 -27 28 0 35 -4
32 -17 -2 -12 -14 -19 -36 -21 l-32 -3 0 -80 0 -79 30 0 c23 0 30 -4 30 -20 0
-16 -7 -20 -33 -20 -60 0 -72 18 -75 113 -4 74 -7 86 -23 90 -26 7 -24 35 4
39 16 2 23 11 25 31 4 37 36 33 40 -6z m-928 -147 c0 -113 -1 -120 -20 -120
-19 0 -20 7 -20 120 0 113 1 120 20 120 19 0 20 -7 20 -120z m261 91 c16 -16
29 -34 29 -40 0 -18 -34 -12 -52 9 -40 46 -110 29 -131 -34 -29 -86 68 -155
128 -90 16 17 30 24 41 20 14 -6 15 -9 2 -29 -8 -12 -32 -30 -52 -41 -32 -16
-44 -17 -75 -7 -50 14 -81 50 -88 100 -11 84 37 141 119 141 41 0 54 -5 79
-29z m509 2 c20 -18 33 -41 37 -65 l6 -38 -97 0 c-107 0 -118 -9 -71 -55 30
-31 75 -33 100 -5 18 20 55 28 55 12 0 -17 -57 -62 -87 -68 -41 -8 -99 20
-118 57 -8 15 -15 49 -15 75 0 39 5 51 34 80 29 29 41 34 80 34 36 0 52 -6 76
-27z m427 5 c28 -26 30 -48 3 -48 -11 0 -20 4 -20 10 0 16 -41 32 -67 25 -18
-4 -23 -11 -21 -27 2 -16 17 -26 58 -40 84 -28 104 -72 54 -119 -45 -42 -138
-27 -163 27 -16 37 13 43 44 10 29 -31 79 -36 93 -8 15 28 3 41 -54 58 -50 14
-84 42 -84 70 0 6 9 23 21 38 27 35 101 37 136 4z m-1427 -648 c0 -5 -11 -10
-25 -10 -24 0 -25 -3 -27 -67 l-2 -68 -3 68 c-4 64 -5 67 -28 67 -14 0 -25 5
-25 10 0 6 25 10 55 10 30 0 55 -4 55 -10z m40 0 c0 -5 -4 -10 -10 -10 -5 0
-10 5 -10 10 0 6 5 10 10 10 6 0 10 -4 10 -10z m170 -32 l0 -41 25 23 c31 29
47 18 17 -12 l-22 -22 27 -28 c17 -18 22 -28 13 -28 -8 0 -24 12 -37 28 l-22
27 -1 -27 c0 -16 -4 -28 -10 -28 -6 0 -10 32 -10 75 0 43 4 75 10 75 6 0 10
-19 10 -42z m490 27 c-11 -13 -10 -18 6 -30 17 -13 18 -14 2 -15 -15 0 -18 -9
-18 -45 0 -62 -17 -57 -22 8 -5 62 5 97 28 97 14 0 14 -3 4 -15z m384 -1 c20
-20 20 -33 0 -55 -14 -16 -14 -20 1 -48 13 -26 13 -31 1 -31 -7 0 -19 14 -26
30 -7 17 -19 30 -26 30 -9 0 -14 -11 -14 -30 0 -16 -4 -30 -10 -30 -6 0 -10
32 -10 75 l0 75 34 0 c19 0 42 -7 50 -16z m306 -26 l0 -41 25 23 c31 29 47 18
17 -12 l-22 -22 27 -28 c17 -18 22 -28 13 -28 -8 0 -24 12 -37 28 l-22 27 -1
-27 c0 -16 -4 -28 -10 -28 -6 0 -10 32 -10 75 0 43 4 75 10 75 6 0 10 -19 10
-42z m250 18 c0 -19 4 -23 20 -19 32 8 50 -15 50 -63 0 -24 -4 -44 -10 -44 -5
0 -10 21 -10 46 0 41 -2 45 -22 42 -19 -2 -24 -10 -26 -45 -5 -72 -22 -48 -22
32 0 43 4 75 10 75 6 0 10 -11 10 -24z m301 -31 c7 -30 15 -55 19 -55 4 0 13
25 20 55 7 30 19 55 26 55 6 0 17 -23 24 -50 7 -28 15 -52 19 -55 5 -2 13 20
20 50 7 30 17 55 22 55 12 0 12 -5 -9 -79 -10 -36 -24 -67 -30 -69 -6 -2 -18
21 -27 52 -9 31 -18 56 -20 56 -2 0 -11 -25 -20 -56 -9 -31 -21 -54 -27 -52
-6 2 -20 33 -30 69 -21 74 -21 79 -9 79 5 0 15 -25 22 -55z m209 45 c0 -5 -4
-10 -9 -10 -6 0 -13 5 -16 10 -3 6 1 10 9 10 9 0 16 -4 16 -10z m40 -65 c0
-43 -4 -75 -10 -75 -6 0 -10 32 -10 75 0 43 4 75 10 75 6 0 10 -32 10 -75z
m140 2 l0 -74 -41 -1 c-50 -2 -69 11 -69 49 0 39 26 62 62 55 25 -5 28 -3 28
19 0 14 5 25 10 25 6 0 10 -31 10 -73z m170 63 c0 -5 -16 -10 -35 -10 -31 0
-35 -3 -35 -25 0 -21 5 -25 33 -27 l32 -1 -32 -4 c-30 -4 -33 -7 -33 -39 0
-19 -4 -34 -10 -34 -6 0 -10 32 -10 75 l0 75 45 0 c25 0 45 -4 45 -10z m360 0
c0 -5 -4 -10 -10 -10 -5 0 -10 5 -10 10 0 6 5 10 10 10 6 0 10 -4 10 -10z
m270 -65 c0 -43 -4 -75 -10 -75 -6 0 -10 32 -10 75 0 43 4 75 10 75 6 0 10
-32 10 -75z m-2680 45 c0 -5 7 -10 15 -10 8 0 15 -4 15 -10 0 -5 -7 -10 -15
-10 -10 0 -15 -11 -15 -35 0 -24 5 -35 15 -35 8 0 15 -5 15 -11 0 -6 -10 -9
-22 -7 -19 2 -24 10 -26 43 -2 22 -8 43 -14 46 -7 5 -6 12 3 23 16 18 29 20
29 6z m1135 -15 c19 -8 19 -9 -2 -12 -18 -3 -23 -11 -23 -33 0 -17 7 -33 17
-39 10 -5 14 -13 10 -17 -16 -17 -42 14 -48 57 -5 40 8 78 21 60 3 -4 14 -11
25 -16z m1211 5 c8 0 14 -4 14 -10 0 -5 -7 -10 -15 -10 -10 0 -15 -10 -15 -30
0 -18 6 -33 15 -36 19 -8 20 -24 1 -24 -19 0 -28 15 -37 63 -4 26 -3 45 5 53
6 6 13 8 14 3 2 -5 10 -9 18 -9z m-2756 -55 c0 -30 -4 -55 -10 -55 -5 0 -10
25 -10 55 0 30 5 55 10 55 6 0 10 -25 10 -55z m108 43 c7 -7 12 -16 12 -22 0
-6 -5 -5 -12 2 -17 17 -45 15 -56 -4 -20 -36 15 -77 45 -53 15 13 28 6 18 -10
-9 -16 -61 -13 -75 4 -40 48 24 127 68 83z m234 -5 c30 -27 22 -43 -22 -43
-28 0 -40 -4 -40 -14 0 -19 30 -29 47 -15 15 13 28 6 18 -10 -9 -16 -61 -13
-75 4 -18 22 -15 66 6 82 24 17 44 16 66 -4z m188 2 c11 -13 8 -14 -19 -9 -41
8 -41 -11 0 -25 24 -8 30 -15 27 -33 -2 -17 -11 -24 -32 -26 -16 -2 -33 1 -39
7 -16 16 0 26 18 11 11 -9 19 -10 27 -2 14 14 1 32 -23 32 -25 0 -35 25 -19
45 16 19 44 19 60 0z m252 -2 c35 -32 13 -93 -34 -93 -27 0 -58 28 -58 52 0
23 34 58 57 58 9 0 25 -7 35 -17z m74 8 c8 7 17 9 21 5 4 -3 -3 -13 -15 -22
-15 -11 -22 -25 -22 -50 0 -19 -4 -34 -10 -34 -11 0 -14 93 -3 104 4 4 9 2 11
-4 3 -8 8 -7 18 1z m314 -11 c24 -24 25 -38 4 -68 -20 -28 -69 -30 -84 -3 -14
28 -12 52 7 73 21 24 48 23 73 -2z m118 8 c7 -7 12 -16 12 -22 0 -6 -5 -5 -12
2 -17 17 -45 15 -56 -4 -20 -36 15 -77 45 -53 15 13 28 6 18 -10 -9 -16 -61
-13 -75 4 -40 48 24 127 68 83z m494 -5 c30 -27 22 -43 -22 -43 -28 0 -40 -4
-40 -14 0 -19 30 -29 47 -15 15 13 28 6 18 -10 -9 -16 -61 -13 -75 4 -18 22
-15 66 6 82 24 17 44 16 66 -4z m328 -44 c0 -27 -4 -49 -10 -49 -5 0 -10 25
-10 56 0 34 4 53 10 49 6 -3 10 -28 10 -56z m452 49 c8 -7 18 -21 21 -30 5
-15 0 -18 -38 -18 -47 0 -56 -9 -29 -31 12 -10 20 -10 35 -1 26 16 34 15 19
-3 -16 -20 -49 -19 -72 2 -24 21 -23 48 2 73 23 23 40 25 62 8z m102 6 c26
-10 18 -25 -9 -18 -33 8 -33 -13 -1 -26 30 -11 38 -23 30 -44 -8 -21 -58 -21
-75 1 -12 15 -12 16 6 9 30 -12 47 -12 52 0 2 7 -10 17 -27 22 -20 7 -30 18
-30 31 0 25 24 37 54 25z m156 -55 c0 -27 -4 -49 -10 -49 -5 0 -10 25 -10 56
0 34 4 53 10 49 6 -3 10 -28 10 -56z m51 21 c7 -22 15 -40 19 -40 4 0 12 18
19 40 6 22 16 40 22 40 11 0 6 -20 -17 -77 -8 -18 -19 -33 -24 -33 -5 0 -16
15 -24 33 -23 57 -28 77 -17 77 6 0 16 -18 22 -40z m163 24 c9 -9 16 -32 16
-54 l0 -38 -42 2 c-39 1 -43 3 -43 26 0 21 5 26 33 28 20 2 32 8 29 15 -5 17
-38 21 -48 6 -4 -7 -11 -10 -15 -6 -10 10 16 37 37 37 9 0 25 -7 33 -16z m220
0 c9 -9 16 -32 16 -54 l0 -38 -42 2 c-39 1 -43 3 -43 26 0 21 5 26 33 28 20 2
32 8 29 15 -5 17 -38 21 -48 6 -4 -7 -11 -10 -15 -6 -10 10 16 37 37 37 9 0
25 -7 33 -16z m72 7 c8 7 17 9 21 5 4 -3 -3 -13 -15 -22 -15 -11 -22 -25 -22
-50 0 -19 -4 -34 -10 -34 -11 0 -14 93 -3 104 4 4 9 2 11 -4 3 -8 8 -7 18 1z
m128 -7 c28 -28 20 -44 -24 -44 -28 0 -40 -4 -40 -14 0 -19 30 -29 47 -15 15
13 28 6 18 -10 -9 -15 -58 -14 -73 1 -30 30 -3 98 38 98 10 0 26 -7 34 -16z
m182 4 c12 -13 17 -98 5 -98 -6 0 -11 15 -11 33 0 41 -12 60 -36 55 -14 -2
-20 -13 -22 -46 -4 -60 -22 -52 -22 11 l0 53 39 -1 c22 0 43 -4 47 -7z m115 2
c13 -7 19 -21 19 -43 0 -40 -15 -57 -50 -57 -33 0 -50 17 -50 51 0 48 38 71
81 49z m64 -30 c8 -36 21 -31 30 11 9 39 27 32 41 -17 l11 -39 12 43 c7 23 16
40 20 37 8 -5 -12 -92 -24 -104 -9 -8 -23 13 -33 49 l-9 35 -12 -42 c-18 -65
-36 -53 -56 36 -5 22 -4 31 3 27 6 -3 13 -20 17 -36z m-3590 -240 c-3 -5 -10
-10 -16 -10 -5 0 -9 5 -9 10 0 6 7 10 16 10 8 0 12 -4 9 -10z m45 -65 c0 -43
-4 -75 -10 -75 -6 0 -10 32 -10 75 0 43 4 75 10 75 6 0 10 -32 10 -75z m160
50 c0 -22 3 -25 24 -19 39 9 66 -11 66 -50 0 -43 -17 -56 -69 -54 l-41 1 0 74
c0 42 4 73 10 73 6 0 10 -11 10 -25z m140 -50 c0 -43 -4 -75 -10 -75 -6 0 -10
32 -10 75 0 43 4 75 10 75 6 0 10 -32 10 -75z m470 0 c0 -43 -4 -75 -10 -75
-6 0 -10 32 -10 75 0 43 4 75 10 75 6 0 10 -32 10 -75z m50 65 c0 -5 -4 -10
-10 -10 -5 0 -10 5 -10 10 0 6 5 10 10 10 6 0 10 -4 10 -10z m670 -63 l0 -74
-37 -1 c-65 -3 -94 47 -52 89 14 14 28 19 45 15 21 -6 24 -3 24 19 0 14 5 25
10 25 6 0 10 -31 10 -73z m1010 63 c0 -5 -4 -10 -10 -10 -5 0 -10 5 -10 10 0
6 5 10 10 10 6 0 10 -4 10 -10z m170 -32 l0 -41 25 23 c31 29 47 18 17 -12
l-22 -22 27 -28 c17 -18 22 -28 13 -28 -8 0 -24 12 -37 28 l-22 27 -1 -27 c0
-16 -4 -28 -10 -28 -6 0 -10 32 -10 75 0 43 4 75 10 75 6 0 10 -19 10 -42z
m700 -33 c0 -43 -4 -75 -10 -75 -6 0 -10 32 -10 75 0 43 4 75 10 75 6 0 10
-32 10 -75z m-1634 35 c8 0 14 -4 14 -10 0 -5 -7 -10 -15 -10 -10 0 -15 -10
-15 -30 0 -18 6 -33 15 -36 19 -8 20 -24 1 -24 -19 0 -28 15 -37 63 -4 26 -3
45 5 53 6 6 13 8 14 3 2 -5 10 -9 18 -9z m566 0 c19 -17 19 -20 5 -20 -23 0
-23 -58 1 -77 16 -12 15 -13 -8 -11 -21 3 -25 9 -28 43 -2 22 -8 43 -14 46 -7
5 -6 12 3 23 18 19 16 20 41 -4z m140 0 c19 -17 19 -20 5 -20 -23 0 -23 -58 1
-77 16 -12 15 -13 -8 -11 -21 3 -25 9 -28 43 -2 22 -8 43 -14 46 -7 5 -6 12 3
23 18 19 16 20 41 -4z m468 10 c0 -5 7 -10 15 -10 8 0 15 -4 15 -10 0 -5 -7
-10 -15 -10 -22 0 -20 -59 3 -77 16 -12 15 -13 -8 -11 -21 3 -25 9 -28 43 -2
22 -8 43 -14 46 -7 5 -6 12 3 23 16 18 29 20 29 6z m402 -10 c19 -17 19 -20 5
-20 -23 0 -23 -58 1 -77 16 -12 15 -13 -8 -11 -21 3 -25 9 -28 43 -2 22 -8 43
-14 46 -7 5 -6 12 3 23 18 19 16 20 41 -4z m238 10 c0 -5 7 -10 15 -10 8 0 15
-4 15 -10 0 -5 -7 -10 -15 -10 -22 0 -20 -59 3 -77 16 -12 15 -13 -8 -11 -21
3 -25 9 -28 43 -2 22 -8 43 -14 46 -7 5 -6 12 3 23 16 18 29 20 29 6z m-3882
-22 c7 -7 12 -31 12 -54 l0 -42 -42 2 c-39 1 -43 3 -43 26 0 21 5 26 33 28 20
2 32 8 29 15 -5 17 -38 21 -48 6 -4 -7 -11 -10 -15 -6 -11 11 17 37 40 37 12
0 27 -5 34 -12z m61 -30 l17 -42 18 45 c10 24 21 38 23 32 7 -19 -28 -103 -42
-103 -11 0 -45 77 -45 102 0 19 12 5 29 -34z m165 26 c9 -8 16 -32 16 -53 0
-38 0 -38 -44 -39 -32 -2 -45 2 -50 14 -9 22 11 44 40 44 12 0 26 5 29 10 10
16 -26 24 -46 11 -21 -13 -26 -2 -7 17 17 17 44 15 62 -4z m56 -39 c0 -30 -4
-55 -10 -55 -11 0 -14 93 -3 103 12 12 13 8 13 -48z m158 43 c7 -7 12 -31 12
-54 l0 -42 -42 2 c-39 1 -43 3 -43 26 0 21 5 26 33 28 20 2 32 8 29 15 -5 17
-38 21 -48 6 -4 -7 -11 -10 -15 -6 -11 11 17 37 40 37 12 0 27 -5 34 -12z
m309 -18 c12 -25 12 -25 -32 -28 -25 -2 -45 -7 -45 -12 0 -16 35 -29 51 -19
22 14 33 11 19 -6 -16 -20 -49 -19 -72 2 -24 21 -23 48 3 74 26 26 60 21 76
-11z m173 10 c24 -24 25 -38 4 -68 -20 -28 -69 -30 -84 -3 -14 28 -12 52 7 73
21 24 48 23 73 -2z m126 8 c12 -13 17 -98 5 -98 -6 0 -11 15 -11 33 0 41 -12
60 -36 55 -14 -2 -20 -13 -22 -46 -4 -60 -22 -52 -22 11 l0 53 39 -1 c22 0 43
-4 47 -7z m104 -43 c0 -30 -4 -55 -10 -55 -5 0 -10 25 -10 55 0 30 5 55 10 55
6 0 10 -25 10 -55z m121 34 c12 -19 12 -89 0 -89 -6 0 -11 19 -13 42 -2 33 -8
44 -22 46 -24 5 -36 -14 -36 -55 0 -18 -4 -33 -10 -33 -5 0 -10 24 -10 54 l0
54 41 -2 c22 -1 45 -9 50 -17z m113 5 c28 -28 20 -44 -24 -44 -28 0 -40 -4
-40 -14 0 -19 30 -29 47 -15 15 13 28 6 18 -10 -9 -15 -58 -14 -73 1 -30 30
-3 98 38 98 10 0 26 -7 34 -16z m170 0 c9 -9 16 -32 16 -54 l0 -38 -42 2 c-39
1 -43 3 -43 26 0 21 5 26 33 28 20 2 32 8 29 15 -5 17 -38 21 -48 6 -4 -7 -11
-10 -15 -6 -10 10 16 37 37 37 9 0 25 -7 33 -16z m123 5 c15 -13 18 -99 3 -99
-5 0 -10 21 -10 46 0 41 -2 45 -22 42 -19 -2 -24 -10 -26 -45 -4 -61 -22 -53
-22 10 0 51 0 52 32 54 17 1 38 -2 45 -8z m307 -5 c9 -9 16 -32 16 -54 l0 -38
-42 2 c-39 1 -43 3 -43 26 0 21 5 26 33 28 20 2 32 8 29 15 -5 17 -38 21 -48
6 -4 -7 -11 -10 -15 -6 -10 10 16 37 37 37 9 0 25 -7 33 -16z m251 5 c6 -4 17
-4 25 1 22 14 36 12 54 -6 18 -17 22 -94 6 -94 -5 0 -10 18 -10 40 0 28 -5 43
-16 47 -22 8 -44 -22 -44 -59 0 -15 -4 -28 -10 -28 -5 0 -10 20 -10 45 0 37
-3 45 -19 45 -21 0 -31 -19 -31 -61 0 -16 -4 -29 -10 -29 -5 0 -10 24 -10 53
l0 54 33 0 c17 0 37 -3 42 -8z m205 -9 c24 -24 25 -38 4 -68 -20 -28 -69 -30
-84 -3 -14 28 -12 52 7 73 21 24 48 23 73 -2z m111 4 c12 -15 10 -16 -20 -9
-26 5 -32 4 -29 -6 2 -7 15 -16 29 -19 17 -4 24 -13 24 -30 0 -20 -6 -26 -29
-28 -16 -2 -33 1 -39 7 -16 16 0 26 17 12 15 -13 36 -7 36 9 0 4 -13 13 -30
19 -20 6 -30 17 -30 30 0 32 48 42 71 15z m279 -39 c0 -30 -4 -55 -10 -55 -5
0 -10 25 -10 55 0 30 5 55 10 55 6 0 10 -25 10 -55z m108 43 c7 -7 12 -16 12
-22 0 -6 -5 -5 -12 2 -17 17 -45 15 -56 -4 -20 -36 15 -77 45 -53 15 13 28 6
18 -10 -9 -16 -61 -13 -75 4 -40 48 24 127 68 83z m234 -5 c30 -27 22 -43 -22
-43 -28 0 -40 -4 -40 -14 0 -19 30 -29 47 -15 15 13 28 6 18 -10 -9 -16 -61
-13 -75 4 -18 22 -15 66 6 82 24 17 44 16 66 -4z m260 0 c36 -32 15 -93 -31
-93 -34 0 -53 20 -53 57 0 46 49 68 84 36z m58 -22 c0 -22 6 -44 15 -51 24
-20 45 5 45 52 0 24 4 37 10 33 6 -3 10 -28 10 -54 l0 -48 -37 -1 c-20 -1 -42
3 -50 9 -15 13 -18 99 -3 99 6 0 10 -17 10 -39z m312 27 c8 -7 18 -21 21 -30
5 -15 0 -18 -38 -18 -47 0 -56 -9 -29 -31 12 -10 20 -10 35 -1 26 16 34 15 19
-3 -16 -20 -49 -19 -72 2 -24 21 -23 48 2 73 23 23 40 25 62 8z m198 -3 c11
-13 8 -14 -19 -9 -41 8 -41 -11 0 -25 24 -8 30 -15 27 -33 -2 -17 -11 -24 -32
-26 -16 -2 -33 1 -39 7 -16 16 0 26 18 11 11 -9 19 -10 27 -2 14 14 1 32 -23
32 -25 0 -35 25 -19 45 16 19 44 19 60 0z m55 -85 c-3 -5 -10 -10 -16 -10 -5
0 -9 5 -9 10 0 6 7 10 16 10 8 0 12 -4 9 -10z m-245 -2315 l0 -1635 -1950 0
-1950 0 0 1635 0 1635 1950 0 1950 0 0 -1635z m4110 0 l0 -1635 -1950 0 -1950
0 0 1635 0 1635 1950 0 1950 0 0 -1635z m4110 0 l0 -1635 -1950 0 -1950 0 0
1635 0 1635 1950 0 1950 0 0 -1635z m-12063 -2362 c0 -6 -4 -10 -9 -7 -4 3 -8
-1 -9 -8 0 -10 -2 -10 -6 0 -2 6 -8 10 -12 8 -4 -3 -8 4 -8 15 -1 11 2 17 8
14 5 -4 9 -1 9 5 0 7 5 7 13 -2 8 -7 14 -18 14 -25z m98 -3 c0 -20 -6 -26 -27
-28 -20 -2 -28 -10 -31 -30 -2 -15 -5 -1 -6 31 l-1 58 33 -3 c27 -2 32 -7 32
-28z m67 23 c-40 -5 -41 -33 -2 -44 l25 -7 -27 -1 c-21 -1 -28 -6 -28 -20 0
-15 8 -21 33 -24 31 -4 31 -4 -5 -5 l-38 -2 0 55 0 55 38 -2 37 -1 -33 -4z
m115 -9 c3 -9 1 -24 -5 -34 -6 -10 -7 -22 -1 -31 11 -17 11 -29 1 -29 -4 0
-12 10 -17 21 -13 28 -28 26 -37 -3 -4 -14 -6 -2 -7 35 l-1 57 30 0 c19 0 33
-6 37 -16z m93 -1 c0 -13 -3 -14 -12 -5 -7 7 -18 12 -25 12 -20 0 -15 -28 6
-35 49 -15 49 -65 1 -65 -29 0 -48 16 -35 28 4 4 10 1 12 -5 6 -18 43 -16 43
2 0 8 -13 21 -30 30 -46 24 -39 55 12 55 20 0 28 -5 28 -17z m118 5 c7 -7 12
-26 12 -43 0 -37 -16 -55 -49 -55 -51 0 -80 60 -45 94 18 19 65 21 82 4z m74
-25 l23 -38 3 38 c5 57 22 44 22 -18 0 -30 -4 -55 -9 -55 -5 0 -20 17 -33 38
l-23 37 -3 -37 c-5 -58 -22 -45 -22 17 0 30 4 55 9 55 5 0 20 -17 33 -37z
m132 5 c24 -57 28 -78 17 -78 -6 0 -11 7 -11 15 0 21 -46 19 -54 -1 -4 -9 -9
-14 -12 -11 -9 8 26 107 37 107 6 0 16 -15 23 -32z m89 -71 c31 -4 31 -4 -5
-5 l-38 -2 2 58 2 57 3 -52 c4 -50 5 -52 36 -56z m150 52 c10 -28 16 -53 13
-56 -3 -3 -8 2 -12 11 -8 21 -43 21 -61 -1 -13 -16 -13 -16 -7 7 11 44 33 90
41 90 5 0 16 -23 26 -51z m105 31 c4 -12 2 -13 -9 -2 -7 6 -19 12 -26 12 -20
0 -15 -28 6 -35 32 -10 46 -32 31 -51 -16 -18 -62 -15 -68 6 -5 13 -3 13 11 1
18 -14 47 -9 47 9 0 6 -11 15 -24 20 -29 11 -40 26 -32 46 8 20 58 15 64 -6z
m90 0 c4 -12 2 -13 -9 -2 -7 6 -19 12 -26 12 -20 0 -15 -28 6 -35 49 -15 49
-65 1 -65 -29 0 -48 16 -35 28 4 4 10 1 12 -5 6 -18 43 -16 43 2 0 8 -13 21
-30 30 -33 17 -33 16 -24 40 8 20 56 16 62 -5z m39 -62 c-2 -18 -4 -6 -4 27 0
33 2 48 4 33 2 -15 2 -42 0 -60z m91 62 c4 -12 2 -13 -9 -2 -7 6 -19 12 -26
12 -20 0 -15 -28 6 -35 49 -15 49 -65 1 -65 -29 0 -48 16 -35 28 4 4 10 1 12
-5 6 -18 43 -16 43 2 0 8 -13 21 -30 30 -33 17 -33 16 -24 40 8 20 56 16 62
-5z m90 13 c-14 -3 -18 -15 -18 -54 0 -27 -4 -49 -10 -49 -5 0 -10 22 -10 49
0 39 -4 51 -17 54 -10 3 2 5 27 5 25 0 37 -2 28 -5z m95 -44 c10 -28 16 -53
13 -56 -3 -3 -8 2 -12 11 -8 21 -43 21 -61 -1 -13 -16 -13 -16 -7 7 11 44 33
90 41 90 5 0 16 -23 26 -51z m79 14 l23 -38 3 38 c5 57 22 44 22 -18 0 -30 -4
-55 -9 -55 -5 0 -20 17 -33 38 l-23 37 -3 -37 c-5 -58 -22 -45 -22 17 0 30 4
55 9 55 5 0 20 -17 33 -37z m131 30 c-20 -4 -23 -11 -25 -56 l-2 -52 -3 52
c-3 44 -7 52 -26 56 -12 2 1 4 28 4 28 0 40 -2 28 -4z m135 0 c-11 -3 -20 -18
-23 -41 -11 -66 -13 -68 -14 -15 -1 40 -5 53 -18 56 -10 3 2 5 27 5 25 0 37
-2 28 -5z m42 -48 c0 -30 -4 -55 -10 -55 -5 0 -10 25 -10 55 0 30 5 55 10 55
6 0 10 -25 10 -55z m108 37 c3 -11 1 -11 -17 0 -29 18 -56 0 -56 -37 0 -37 27
-55 56 -37 18 11 20 11 17 0 -3 -7 -19 -13 -39 -13 -27 0 -36 5 -47 28 -12 24
-11 31 3 53 13 20 23 24 47 22 17 -2 33 -9 36 -16z m66 -3 c11 12 24 21 29 21
6 0 2 -9 -8 -20 -16 -18 -17 -23 -4 -48 7 -15 15 -30 17 -34 2 -5 0 -8 -6 -8
-5 0 -14 11 -20 25 -15 33 -30 32 -35 -2 -2 -16 -4 -1 -5 32 0 36 3 50 7 37
l6 -24 19 21z m98 14 c-40 -5 -41 -33 -2 -44 l25 -7 -27 -1 c-21 -1 -28 -6
-28 -20 0 -15 8 -21 33 -24 31 -4 31 -4 -5 -5 l-38 -2 0 55 0 55 38 -2 37 -1
-33 -4z m106 0 c-14 -3 -18 -15 -18 -54 0 -27 -4 -49 -10 -49 -5 0 -10 22 -10
49 0 39 -4 51 -17 54 -10 3 2 5 27 5 25 0 37 -2 28 -5z m97 -4 c4 -6 4 -13 0
-17 -4 -4 -10 -1 -12 6 -5 14 -29 16 -38 2 -3 -5 8 -16 25 -25 23 -12 30 -22
28 -38 -4 -27 -49 -35 -68 -13 -14 18 0 22 17 5 13 -13 43 -5 43 11 0 6 -11
15 -24 20 -29 11 -40 26 -32 45 6 17 52 20 61 4z m138 -40 c10 -28 16 -53 13
-56 -3 -3 -8 2 -12 11 -8 21 -43 21 -61 -1 -13 -16 -14 -16 -10 -2 3 10 11 35
18 58 7 23 17 41 23 41 6 0 19 -23 29 -51z m58 11 c7 -22 15 -40 19 -40 4 0
13 18 20 40 7 22 17 40 23 40 5 0 6 -8 2 -17 -4 -10 -12 -31 -17 -48 -12 -32
-25 -51 -32 -44 -12 12 -44 109 -36 109 5 0 15 -18 21 -40z m156 -15 c12 -30
17 -55 13 -55 -4 0 -10 7 -14 15 -3 8 -17 15 -31 15 -16 0 -25 -6 -25 -15 0
-8 -4 -15 -10 -15 -13 0 -13 1 4 41 7 19 16 42 19 52 11 30 23 19 44 -38z m53
0 c0 -30 -4 -55 -10 -55 -5 0 -10 25 -10 55 0 30 5 55 10 55 6 0 10 -25 10
-55z m63 -48 c31 -4 31 -4 -5 -5 l-38 -2 2 58 2 57 3 -52 c4 -50 5 -52 36 -56z
m110 52 c10 -28 16 -53 13 -56 -3 -3 -8 2 -12 11 -8 21 -43 21 -61 -1 -13 -16
-14 -16 -10 -2 3 10 11 35 18 58 7 23 17 41 23 41 6 0 19 -23 29 -51z m103 21
c0 -14 4 -31 8 -38 12 -19 -13 -42 -45 -42 -28 0 -29 1 -29 56 l0 55 33 -3
c27 -2 32 -7 33 -28z m72 -73 c25 -4 24 -4 -5 -6 l-33 -1 2 58 2 57 3 -52 c4
-47 6 -52 31 -56z m84 96 c-40 -5 -41 -33 -2 -44 l25 -7 -27 -1 c-21 -1 -28
-6 -28 -20 0 -15 8 -21 33 -24 31 -4 31 -4 -5 -5 l-38 -2 0 55 0 55 38 -2 37
-1 -33 -4z m161 -44 c10 -28 16 -53 13 -56 -3 -3 -8 2 -12 11 -8 21 -43 21
-61 -1 -13 -16 -13 -16 -7 7 11 44 33 90 41 90 5 0 16 -23 26 -51z m95 44
c-14 -3 -18 -15 -18 -54 0 -27 -4 -49 -10 -49 -5 0 -10 22 -10 49 0 39 -4 51
-17 54 -10 3 2 5 27 5 25 0 37 -2 28 -5z m136 -26 c24 -58 28 -77 17 -77 -6 0
-11 7 -11 15 0 21 -47 19 -59 -2 -16 -27 -13 -3 6 50 9 26 21 47 25 47 4 0 14
-15 22 -33z m164 21 c17 -17 15 -64 -4 -82 -8 -9 -29 -16 -45 -16 -29 0 -29 1
-29 55 l0 55 33 0 c18 0 38 -5 45 -12z m52 -43 c0 -30 -4 -55 -10 -55 -5 0
-10 25 -10 55 0 30 5 55 10 55 6 0 10 -25 10 -55z m88 37 c3 -11 1 -11 -17 -1
-15 10 -23 11 -32 2 -8 -8 -3 -15 20 -28 43 -22 41 -60 -3 -60 -17 0 -31 6
-34 15 -5 13 -3 13 11 1 18 -14 47 -9 47 9 0 6 -11 15 -24 20 -29 11 -40 26
-32 46 7 19 57 15 64 -4z m112 3 c8 -9 9 -15 2 -15 -6 0 -14 5 -17 10 -9 15
-41 12 -55 -5 -15 -19 -5 -64 17 -72 8 -3 24 -1 34 5 26 16 34 15 19 -3 -15
-18 -61 -20 -78 -3 -7 7 -12 26 -12 43 0 17 5 36 12 43 17 17 63 15 78 -3z
m118 3 c7 -7 12 -26 12 -43 0 -38 -16 -55 -51 -55 -29 0 -59 31 -59 62 0 40
69 65 98 36z m54 -35 c3 -40 6 -48 23 -48 17 0 21 9 26 50 l6 50 -1 -55 c-1
-49 -3 -55 -24 -58 -35 -5 -52 15 -52 64 0 59 18 56 22 -3z m128 7 l25 -41 6
43 c6 42 6 42 7 -14 1 -32 0 -58 -3 -58 -3 0 -17 19 -32 42 l-28 42 -6 -45 -6
-44 -1 58 c-1 31 1 57 6 57 4 0 18 -18 32 -40z m128 33 c-14 -3 -18 -15 -18
-54 0 -27 -4 -49 -10 -49 -5 0 -10 22 -10 49 0 39 -4 51 -17 54 -10 3 2 5 27
5 25 0 37 -2 28 -5z m75 0 c-25 -3 -33 -9 -33 -24 0 -14 7 -19 28 -20 l27 -2
-27 -4 c-42 -6 -38 -40 5 -46 31 -4 31 -4 -5 -5 l-38 -2 0 55 0 55 38 -2 c36
-1 36 -1 5 -5z m127 -12 c25 -47 0 -91 -51 -91 -29 0 -29 1 -29 55 l0 55 35 0
c24 0 37 -6 45 -19z m135 -11 c0 -17 -7 -26 -25 -30 -15 -3 -27 -15 -31 -30
-5 -17 -7 -7 -8 33 l-1 58 33 -3 c26 -2 32 -7 32 -28z m100 10 c4 -12 1 -27
-5 -35 -8 -10 -8 -19 0 -34 6 -12 7 -21 2 -21 -5 0 -14 11 -20 25 -6 14 -16
25 -22 25 -5 0 -10 -11 -10 -25 0 -14 -4 -25 -10 -25 -5 0 -10 25 -10 55 l0
55 34 0 c26 0 36 -5 41 -20z m32 -62 c-2 -18 -4 -6 -4 27 0 33 2 48 4 33 2
-15 2 -42 0 -60z m113 67 c8 -9 9 -15 2 -15 -6 0 -14 5 -17 10 -3 6 -15 10
-26 10 -22 0 -39 -34 -31 -62 5 -22 40 -34 55 -19 17 17 31 13 17 -5 -8 -9
-25 -14 -44 -12 -62 6 -60 108 3 108 16 0 34 -7 41 -15z m73 8 c-25 -3 -33 -9
-33 -24 0 -14 7 -19 28 -20 l27 -2 -27 -4 c-42 -6 -38 -40 5 -46 31 -4 31 -4
-5 -5 l-38 -2 0 55 0 55 38 -2 c36 -1 36 -1 5 -5z m57 -93 c0 -5 -5 -10 -11
-10 -5 0 -7 5 -4 10 3 6 8 10 11 10 2 0 4 -4 4 -10z"/>
<path d="M1755 6645 c-39 -38 -32 -45 50 -45 46 0 75 4 75 10 0 21 -49 60 -75
60 -14 0 -37 -11 -50 -25z"/>
<path d="M1900 5995 c0 -23 4 -26 28 -23 19 2 27 9 27 23 0 14 -8 21 -27 23
-24 3 -28 0 -28 -23z"/>
<path d="M3127 5973 c-12 -11 -8 -50 7 -62 30 -25 71 24 46 54 -13 16 -42 20
-53 8z"/>
<path d="M1207 5974 c-15 -15 -6 -24 24 -24 20 0 29 4 27 13 -5 14 -40 21 -51
11z"/>
<path d="M1640 5965 c-6 -8 -9 -23 -5 -34 14 -46 73 -25 61 22 -7 30 -36 36
-56 12z"/>
<path d="M2027 5973 c-12 -11 -8 -50 7 -62 30 -25 71 24 46 54 -13 16 -42 20
-53 8z"/>
<path d="M2647 5974 c-15 -15 -6 -24 24 -24 20 0 29 4 27 13 -5 14 -40 21 -51
11z"/>
<path d="M3426 5965 c-4 -11 2 -15 24 -15 20 0 30 5 30 15 0 9 -9 15 -24 15
-13 0 -26 -7 -30 -15z"/>
<path d="M3900 5926 c0 -22 19 -30 35 -16 22 18 18 30 -10 30 -15 0 -25 -6
-25 -14z"/>
<path d="M4120 5926 c0 -22 19 -30 35 -16 22 18 18 30 -10 30 -15 0 -25 -6
-25 -14z"/>
<path d="M4317 5974 c-15 -15 -6 -24 24 -24 20 0 29 4 27 13 -5 14 -40 21 -51
11z"/>
<path d="M4617 5974 c-12 -12 -8 -51 7 -63 24 -20 47 -2 44 33 -2 22 -9 32
-23 34 -12 2 -24 0 -28 -4z"/>
<path d="M1361 5651 c-19 -35 9 -68 45 -54 10 4 14 16 12 37 -4 38 -40 49 -57
17z"/>
<path d="M2601 5656 c-15 -18 -6 -52 16 -60 23 -9 44 13 41 43 -4 30 -38 40
-57 17z"/>
<path d="M800 5616 c0 -22 19 -30 35 -16 22 18 18 30 -10 30 -15 0 -25 -6 -25
-14z"/>
<path d="M1024 5619 c-8 -14 14 -29 32 -22 7 2 15 11 18 19 7 17 -39 20 -50 3z"/>
<path d="M1240 5616 c0 -22 19 -30 35 -16 22 18 18 30 -10 30 -15 0 -25 -6
-25 -14z"/>
<path d="M1536 5655 c-4 -11 2 -15 24 -15 20 0 30 5 30 15 0 9 -9 15 -24 15
-13 0 -26 -7 -30 -15z"/>
<path d="M1717 5663 c-12 -11 -8 -50 7 -62 30 -25 71 24 46 54 -13 16 -42 20
-53 8z"/>
<path d="M2187 5664 c-15 -15 -6 -24 24 -24 20 0 29 4 27 13 -5 14 -40 21 -51
11z"/>
<path d="M2360 5616 c0 -22 19 -30 35 -16 22 18 18 30 -10 30 -15 0 -25 -6
-25 -14z"/>
<path d="M2790 5616 c0 -22 19 -30 35 -16 22 18 18 30 -10 30 -15 0 -25 -6
-25 -14z"/>
<path d="M3237 5663 c-12 -11 -8 -50 7 -62 30 -25 71 24 46 54 -13 16 -42 20
-53 8z"/>
<path d="M3977 5664 c-15 -15 -6 -24 24 -24 20 0 29 4 27 13 -5 14 -40 21 -51
11z"/>
<path d="M4232 5654 c-20 -36 15 -78 45 -53 21 18 12 63 -14 67 -12 2 -25 -4
-31 -14z"/>
<path d="M4606 5655 c-4 -11 2 -15 24 -15 20 0 30 5 30 15 0 9 -9 15 -24 15
-13 0 -26 -7 -30 -15z"/>
<path d="M1717 4428 c-24 -57 -39 -109 -34 -115 3 -2 10 5 17 16 15 28 66 29
75 1 5 -17 25 -29 25 -16 0 17 -54 146 -61 146 -5 0 -15 -15 -22 -32z m38 -40
c6 -24 4 -28 -14 -28 -22 0 -25 10 -15 48 8 27 20 19 29 -20z"/>
<path d="M1910 4435 c0 -22 -3 -25 -25 -19 -48 12 -80 -39 -55 -87 9 -15 20
-19 55 -17 l45 1 0 74 c0 42 -4 73 -10 73 -5 0 -10 -11 -10 -25z m-4 -61 c9
-34 -18 -64 -44 -48 -35 23 -27 74 12 74 19 0 27 -7 32 -26z"/>
<path d="M2600 4450 c0 -5 9 -10 20 -10 18 0 20 -7 20 -65 0 -37 4 -65 10 -65
6 0 10 28 10 65 0 58 2 65 19 65 11 0 23 5 26 10 4 6 -15 10 -49 10 -31 0 -56
-4 -56 -10z"/>
<path d="M2725 4450 c3 -5 10 -10 16 -10 5 0 9 5 9 10 0 6 -7 10 -16 10 -8 0
-12 -4 -9 -10z"/>
<path d="M2900 4385 c0 -43 4 -75 10 -75 6 0 10 10 10 22 l0 21 23 -21 c33
-31 41 -27 16 8 -21 28 -21 31 -6 48 26 29 20 38 -8 12 l-25 -23 0 41 c0 23
-4 42 -10 42 -6 0 -10 -32 -10 -75z"/>
<path d="M3271 4442 c-13 -24 9 -57 44 -66 16 -4 25 -13 25 -27 0 -30 -28 -35
-56 -9 -17 17 -24 19 -24 9 0 -34 54 -52 88 -30 23 14 10 54 -23 71 -40 20
-47 32 -30 49 12 13 17 12 35 -4 23 -21 39 -13 20 10 -18 21 -67 19 -79 -3z"/>
<path d="M3500 4385 c0 -43 4 -75 10 -75 6 0 10 32 10 75 0 43 -4 75 -10 75
-6 0 -10 -32 -10 -75z"/>
<path d="M3131 4424 c-9 -11 -10 -18 -3 -23 6 -3 12 -24 14 -46 3 -34 7 -40
28 -43 23 -2 24 -1 8 11 -24 19 -24 77 -1 77 14 0 14 3 -5 20 -25 24 -23 23
-41 4z"/>
<path d="M1956 4398 c14 -49 33 -88 42 -88 12 0 42 73 41 98 0 9 -10 -3 -21
-28 l-20 -45 -19 43 c-19 44 -35 58 -23 20z"/>
<path d="M2080 4405 c-7 -9 -10 -19 -6 -22 4 -4 11 -1 15 6 10 15 43 11 48 -6
3 -7 -9 -13 -29 -15 -28 -2 -33 -7 -33 -28 0 -23 4 -25 43 -26 l42 -2 0 38 c0
59 -49 93 -80 55z m60 -54 c0 -14 -28 -33 -40 -26 -20 12 -10 35 15 35 14 0
25 -4 25 -9z"/>
<path d="M2187 4414 c-11 -11 -8 -104 3 -104 6 0 10 15 10 34 0 37 21 62 45
52 10 -3 15 -19 15 -46 0 -22 5 -40 11 -40 6 0 9 19 7 46 -4 55 -26 77 -57 57
-13 -8 -21 -9 -23 -2 -2 6 -7 7 -11 3z"/>
<path d="M2320 4400 c-24 -24 -25 -38 -4 -68 17 -25 56 -29 74 -7 14 17 0 21
-17 4 -8 -8 -17 -8 -32 0 -21 12 -26 27 -15 55 7 19 50 21 57 4 2 -7 8 -9 13
-5 10 10 -22 37 -43 37 -7 0 -22 -9 -33 -20z"/>
<path d="M2440 4400 c-24 -24 -25 -38 -4 -68 17 -25 56 -29 74 -7 15 18 7 19
-19 3 -15 -9 -23 -9 -35 1 -27 22 -18 31 29 31 38 0 43 3 38 18 -7 21 -32 42
-50 42 -7 0 -22 -9 -33 -20z m60 -15 c0 -10 -10 -15 -30 -15 -29 0 -38 9 -23
23 13 13 53 7 53 -8z"/>
<path d="M2733 4365 c0 -33 2 -45 4 -27 2 18 2 45 0 60 -2 15 -4 0 -4 -33z"/>
<path d="M2790 4400 c-24 -24 -25 -38 -4 -68 17 -25 56 -29 74 -7 14 17 0 21
-17 4 -8 -8 -17 -8 -32 0 -21 12 -26 27 -15 55 7 19 50 21 57 4 2 -7 8 -9 13
-5 10 10 -22 37 -43 37 -7 0 -22 -9 -33 -20z"/>
<path d="M3017 4402 c-19 -21 -21 -45 -7 -73 13 -23 62 -26 80 -4 15 18 7 19
-21 4 -15 -7 -24 -7 -35 2 -24 20 -16 29 26 29 33 0 40 3 40 20 0 19 -27 40
-53 40 -8 0 -21 -8 -30 -18z m61 -19 c2 -9 -7 -13 -27 -13 -30 0 -39 9 -24 24
11 10 46 3 51 -11z"/>
<path d="M3400 4405 c-7 -9 -10 -19 -6 -22 4 -4 11 -1 15 6 10 15 43 11 48 -6
3 -7 -9 -13 -29 -15 -28 -2 -33 -7 -33 -28 0 -23 4 -25 43 -26 l42 -2 0 38 c0
59 -49 93 -80 55z m60 -54 c0 -14 -28 -33 -40 -26 -20 12 -10 35 15 35 14 0
25 -4 25 -9z"/>
<path d="M3566 4404 c-19 -18 -21 -65 -4 -82 15 -15 64 -16 73 -1 10 16 -3 23
-18 10 -17 -14 -47 -4 -47 15 0 10 12 14 40 14 44 0 52 16 22 43 -23 21 -46
22 -66 1z m62 -21 c2 -9 -7 -13 -27 -13 -30 0 -39 9 -24 24 11 10 46 3 51 -11z"/>
<path d="M3682 4408 c-20 -20 -14 -35 18 -47 17 -5 30 -14 30 -20 0 -17 -20
-23 -36 -10 -17 14 -33 4 -17 -12 6 -6 23 -9 39 -7 21 2 30 9 32 26 3 18 -3
25 -27 33 -41 14 -41 33 0 25 27 -5 30 -4 19 9 -15 18 -42 19 -58 3z"/>
<path d="M1580 4065 c0 -9 9 -15 25 -15 24 0 25 -2 25 -75 0 -68 2 -75 20 -75
18 0 20 7 20 75 0 73 1 75 25 75 16 0 25 6 25 15 0 12 -14 15 -70 15 -56 0
-70 -3 -70 -15z"/>
<path d="M1740 3990 c0 -73 3 -90 15 -90 10 0 15 10 15 33 0 41 21 73 44 64
11 -5 16 -19 16 -52 0 -33 4 -45 15 -45 11 0 15 13 15 54 0 66 -17 85 -61 69
-29 -11 -29 -11 -29 23 0 24 -5 34 -15 34 -12 0 -15 -17 -15 -90z"/>
<path d="M2430 3991 l0 -91 49 0 c69 0 101 27 101 85 0 64 -23 87 -93 93 l-57
4 0 -91z m102 42 c38 -34 13 -103 -38 -103 -23 0 -24 3 -24 60 0 55 2 60 22
60 12 0 30 -7 40 -17z"/>
<path d="M2960 4065 c0 -9 9 -15 25 -15 24 0 25 -2 25 -75 0 -60 3 -75 15 -75
12 0 15 15 15 74 0 72 1 75 25 78 52 6 28 23 -37 26 -56 2 -68 0 -68 -13z"/>
<path d="M3120 4065 c0 -10 7 -15 18 -13 21 4 19 22 -2 26 -10 2 -16 -3 -16
-13z"/>
<path d="M3340 3990 c0 -73 3 -90 15 -90 10 0 15 10 15 33 l0 32 26 -32 c14
-18 35 -33 46 -33 19 0 18 2 -6 31 -31 37 -32 41 -6 64 11 10 20 22 20 27 0
16 -24 8 -52 -19 l-28 -27 0 52 c0 40 -4 52 -15 52 -12 0 -15 -17 -15 -90z"/>
<path d="M3650 4046 c0 -8 -7 -16 -15 -20 -8 -3 -15 -10 -15 -16 0 -5 7 -10
15 -10 11 0 15 -12 15 -44 0 -31 5 -46 16 -50 27 -10 44 -7 44 9 0 8 -7 15
-15 15 -10 0 -15 11 -15 35 0 24 5 35 15 35 8 0 15 7 15 15 0 8 -7 15 -15 15
-8 0 -15 7 -15 15 0 8 -7 15 -15 15 -8 0 -15 -6 -15 -14z"/>
<path d="M1900 3965 c0 -51 3 -65 15 -65 11 0 15 11 15 40 0 34 4 42 25 50 14
5 25 14 25 19 0 17 -20 23 -35 11 -9 -7 -15 -8 -20 0 -16 25 -25 5 -25 -55z"/>
<path d="M2011 4004 c-25 -32 -26 -52 -5 -82 18 -26 75 -30 94 -7 17 21 5 31
-22 18 -25 -11 -48 -7 -48 8 0 5 20 9 45 9 38 0 45 3 45 20 0 27 -35 60 -64
60 -15 0 -33 -11 -45 -26z m69 -14 c0 -5 -12 -10 -26 -10 -14 0 -23 4 -19 10
3 6 15 10 26 10 10 0 19 -4 19 -10z"/>
<path d="M2161 4004 c-25 -32 -26 -52 -5 -82 18 -26 75 -30 94 -7 17 21 5 31
-22 18 -25 -11 -48 -7 -48 8 0 5 20 9 45 9 38 0 45 3 45 20 0 27 -35 60 -64
60 -15 0 -33 -11 -45 -26z m69 -14 c0 -5 -12 -10 -26 -10 -14 0 -23 4 -19 10
3 6 15 10 26 10 10 0 19 -4 19 -10z"/>
<path d="M2629 4011 c-28 -22 -18 -41 11 -23 27 16 50 15 50 -2 0 -10 -13 -16
-37 -18 -35 -3 -38 -6 -38 -33 0 -30 1 -30 58 -31 l57 -1 0 43 c0 73 -51 106
-101 65z m61 -70 c0 -12 -29 -23 -41 -15 -18 10 -9 24 16 24 14 0 25 -4 25 -9z"/>
<path d="M2750 4025 c0 -3 11 -33 25 -66 18 -45 22 -66 15 -79 -14 -26 -12
-40 3 -40 13 0 87 152 87 178 0 25 -20 11 -41 -30 l-22 -43 -19 43 c-10 23
-25 42 -33 42 -8 0 -15 -2 -15 -5z"/>
<path d="M3120 3965 c0 -51 3 -65 15 -65 12 0 15 14 15 65 0 51 -3 65 -15 65
-12 0 -15 -14 -15 -65z"/>
<path d="M3205 4005 c-29 -28 -31 -51 -9 -83 20 -29 74 -30 99 -2 19 21 19 21
-26 18 -43 -3 -44 -2 -44 27 0 23 5 31 23 33 12 2 22 -1 22 -7 0 -6 9 -11 20
-11 26 0 25 15 -2 34 -32 22 -55 20 -83 -9z"/>
<path d="M3500 4010 c-25 -25 -26 -72 -2 -93 23 -21 75 -22 92 -2 18 21 5 30
-23 18 -17 -8 -29 -8 -43 1 -16 9 -12 12 31 16 57 6 69 26 36 59 -27 27 -65
27 -91 1z m65 -20 c4 -6 -5 -10 -19 -10 -14 0 -26 5 -26 10 0 6 9 10 19 10 11
0 23 -4 26 -10z"/>
<path d="M3756 4017 c-27 -20 -16 -50 22 -61 17 -5 32 -12 32 -17 0 -16 -20
-19 -39 -7 -25 15 -39 4 -21 -17 19 -23 77 -19 90 6 12 22 -1 49 -24 49 -7 0
-21 7 -32 16 -18 14 -17 15 19 9 40 -6 50 7 18 25 -26 13 -43 13 -65 -3z"/>
<path d="M2300 3975 c0 -11 12 -15 50 -15 38 0 50 4 50 15 0 11 -12 15 -50 15
-38 0 -50 -4 -50 -15z"/>
<path d="M1726 3565 c-96 -34 -180 -118 -218 -217 -29 -78 -23 -203 14 -278
36 -72 97 -134 172 -170 l61 -30 970 2 970 3 50 24 c27 14 69 45 93 68 170
171 130 460 -79 573 l-64 35 -965 2 c-802 2 -972 0 -1004 -12z m797 -270 c20
-18 20 -20 4 -23 -10 -2 -24 2 -32 8 -12 10 -15 9 -15 -6 0 -9 14 -29 32 -44
38 -32 34 -66 -10 -91 -28 -16 -31 -16 -61 8 -36 28 -40 43 -11 43 11 0 20 -4
20 -10 0 -5 5 -10 10 -10 19 0 11 48 -10 55 -33 10 -44 42 -25 71 8 13 22 24
30 24 8 0 15 5 15 10 0 11 12 3 53 -35z m141 9 c24 -24 19 -60 -14 -98 l-31
-35 32 -3 c18 -2 34 -9 37 -15 3 -10 -14 -13 -62 -13 -36 0 -66 4 -66 9 0 4
21 29 46 54 47 48 55 79 20 85 -11 2 -23 -3 -28 -12 -10 -18 -38 -22 -38 -6 0
19 40 50 64 50 14 0 32 -7 40 -16z m160 -6 c13 -19 14 -25 2 -43 -11 -17 -11
-22 0 -33 35 -32 3 -82 -51 -82 -55 0 -86 50 -51 82 12 11 12 15 -1 30 -14 16
-14 20 1 43 22 33 78 35 100 3z m175 -4 c14 -17 21 -41 21 -68 0 -54 -28 -86
-75 -86 -49 0 -75 31 -75 89 0 57 29 91 76 91 23 0 38 -8 53 -26z"/>
<path d="M2456 3281 c-4 -7 -5 -15 -2 -18 9 -9 19 4 14 18 -4 11 -6 11 -12 0z"/>
<path d="M2480 3190 c0 -11 5 -20 10 -20 6 0 10 9 10 20 0 11 -4 20 -10 20 -5
0 -10 -9 -10 -20z"/>
<path d="M2750 3270 c0 -15 7 -20 25 -20 18 0 25 5 25 20 0 15 -7 20 -25 20
-18 0 -25 -5 -25 -20z"/>
<path d="M2750 3205 c-16 -19 -4 -35 25 -35 13 0 27 5 30 10 8 13 -13 40 -30
40 -7 0 -18 -7 -25 -15z"/>
<path d="M2910 3271 c-23 -45 -4 -101 35 -101 27 0 45 25 45 64 0 49 -59 76
-80 37z"/>
<path d="M1902 2483 c450 -2 1186 -2 1635 0 450 1 82 2 -817 2 -899 0 -1267
-1 -818 -2z"/>
<path d="M2069 2138 c-15 -25 -14 -98 2 -98 5 0 9 16 9 35 0 21 5 35 13 35 9
0 9 2 -1 8 -7 5 -10 16 -6 25 9 24 -1 21 -17 -5z"/>
<path d="M2161 2104 l-1 -61 31 1 c59 2 66 71 8 71 -17 0 -26 7 -30 25 -4 16
-7 3 -8 -36z m54 -24 c0 -29 -32 -41 -41 -16 -9 24 4 48 23 44 12 -2 18 -12
18 -28z"/>
<path d="M2452 2100 c0 -36 3 -57 7 -47 6 17 8 17 20 3 7 -9 18 -16 24 -16 5
0 2 9 -9 21 -16 17 -16 23 -5 42 14 22 14 22 -7 4 -20 -19 -21 -19 -25 20 -2
24 -4 14 -5 -27z"/>
<path d="M2798 2141 c-15 -21 -12 -101 3 -101 5 0 9 16 9 35 0 21 5 35 13 35
9 0 9 2 -1 8 -7 5 -10 16 -6 25 8 23 -2 21 -18 -2z"/>
<path d="M3310 2137 c0 -18 -5 -23 -26 -22 -15 0 -32 -8 -38 -17 -16 -27 4
-53 43 -54 l31 -1 0 59 c0 32 -2 58 -5 58 -3 0 -5 -10 -5 -23z m-11 -41 c13
-16 4 -46 -14 -46 -7 0 -18 7 -25 15 -10 12 -10 18 0 30 15 19 24 19 39 1z"/>
<path d="M3393 2100 c0 -36 2 -50 4 -32 2 17 2 47 0 65 -2 17 -4 3 -4 -33z"/>
<path d="M1500 2095 c0 -30 5 -55 10 -55 6 0 10 25 10 55 0 30 -4 55 -10 55
-5 0 -10 -25 -10 -55z"/>
<path d="M3690 2095 c0 -30 5 -55 10 -55 6 0 10 25 10 55 0 30 -4 55 -10 55
-5 0 -10 -25 -10 -55z"/>
<path d="M3778 2127 c-2 -7 -2 -28 2 -47 3 -25 11 -35 25 -37 11 -2 14 0 8 3
-15 7 -17 61 -3 66 6 2 2 8 -9 15 -15 9 -20 9 -23 0z"/>
<path d="M1280 2080 c0 -22 5 -40 10 -40 6 0 10 18 10 40 0 22 -4 40 -10 40
-5 0 -10 -18 -10 -40z"/>
<path d="M1321 2076 l0 -41 12 35 c7 19 19 35 27 35 9 0 18 -13 22 -35 l6 -35
-1 40 c-2 38 -4 40 -34 41 -32 1 -33 0 -32 -40z"/>
<path d="M1422 2108 c-15 -15 -15 -41 0 -56 14 -14 44 -16 52 -3 4 5 -2 7 -12
4 -10 -2 -24 3 -32 12 -11 13 -11 19 3 32 14 14 18 14 33 2 15 -12 17 -12 12
1 -6 19 -40 24 -56 8z"/>
<path d="M1543 2085 c2 -38 4 -40 35 -41 31 -1 32 0 31 40 -1 42 -3 41 -13 -7
-9 -40 -39 -32 -48 13 l-6 35 1 -40z"/>
<path d="M1637 2113 c-13 -12 -7 -22 19 -36 18 -9 23 -16 15 -21 -7 -4 -19 -2
-28 6 -14 11 -15 11 -11 -2 2 -8 15 -15 29 -15 30 0 38 31 10 40 -12 3 -21 11
-21 16 0 6 9 7 21 4 15 -5 19 -4 15 4 -8 12 -39 15 -49 4z"/>
<path d="M1710 2080 c0 -22 5 -40 10 -40 6 0 10 18 10 40 0 22 -4 40 -10 40
-5 0 -10 -18 -10 -40z"/>
<path d="M1755 2084 c8 -20 15 -38 15 -40 0 -2 4 -4 8 -4 5 0 16 18 25 40 8
22 11 40 6 40 -5 0 -11 -11 -15 -25 -3 -14 -10 -25 -15 -25 -5 0 -11 11 -15
25 -3 14 -10 25 -15 25 -5 0 -2 -16 6 -36z"/>
<path d="M1842 2108 c-25 -25 -6 -68 29 -68 10 0 21 5 24 10 4 7 -2 9 -19 4
-20 -5 -26 -2 -26 10 0 11 9 16 30 16 17 0 30 4 30 8 0 14 -23 32 -40 32 -9 0
-21 -5 -28 -12z m43 -8 c3 -5 -3 -10 -14 -10 -12 0 -21 5 -21 10 0 6 6 10 14
10 8 0 18 -4 21 -10z"/>
<path d="M1968 2095 c-14 -30 3 -55 38 -55 17 0 25 7 30 25 13 51 -46 77 -68
30z m56 0 c8 -21 -3 -45 -20 -45 -18 0 -28 24 -20 45 3 8 12 15 20 15 7 0 16
-7 20 -15z"/>
<path d="M2264 2106 c-3 -8 -4 -25 -2 -38 2 -18 9 -23 33 -23 28 0 30 3 30 35
0 31 -3 35 -28 38 -17 2 -29 -2 -33 -12z m51 -26 c0 -29 -32 -41 -41 -16 -9
24 4 48 23 44 12 -2 18 -12 18 -28z"/>
<path d="M2360 2106 c-6 -8 -10 -25 -8 -38 4 -32 52 -38 68 -9 22 43 -29 83
-60 47z m48 -24 c2 -13 -3 -25 -13 -28 -23 -9 -38 10 -30 36 9 27 39 22 43 -8z"/>
<path d="M2533 2080 c0 -25 2 -35 4 -22 2 12 2 32 0 45 -2 12 -4 2 -4 -23z"/>
<path d="M2571 2075 l2 -40 6 35 c9 50 41 55 41 6 0 -20 5 -36 10 -36 12 0 13
50 2 68 -5 6 -20 11 -35 10 -25 -2 -27 -6 -26 -43z"/>
<path d="M2665 2108 c-23 -69 -7 -116 35 -103 26 8 27 45 1 45 -28 0 -36 18
-10 22 12 2 26 13 30 26 7 20 5 22 -22 22 -16 0 -32 -6 -34 -12z m38 -13 c1
-5 -6 -11 -15 -13 -11 -2 -18 3 -18 13 0 17 30 18 33 0z m7 -64 c0 -11 -26
-22 -34 -14 -12 12 -5 23 14 23 11 0 20 -4 20 -9z"/>
<path d="M2844 2106 c-11 -30 0 -61 25 -64 13 -2 28 1 34 7 7 7 2 10 -18 8
-15 -1 -30 4 -32 11 -3 8 6 12 27 12 25 0 31 4 28 18 -4 22 -56 29 -64 8z m51
-6 c4 -6 -5 -10 -20 -10 -15 0 -24 4 -20 10 3 6 12 10 20 10 8 0 17 -4 20 -10z"/>
<path d="M2934 2106 c-11 -30 0 -61 25 -64 13 -2 28 1 34 7 7 7 2 10 -18 8
-15 -1 -30 4 -32 11 -3 8 6 12 27 12 25 0 31 4 28 18 -4 22 -56 29 -64 8z m51
-6 c4 -6 -5 -10 -20 -10 -15 0 -24 4 -20 10 3 6 12 10 20 10 8 0 17 -4 20 -10z"/>
<path d="M3075 2110 c-4 -6 -4 -14 -1 -17 3 -3 1 -12 -5 -19 -16 -20 -1 -34
32 -32 28 2 30 5 27 38 -2 27 -8 36 -25 38 -11 2 -24 -2 -28 -8z m40 -10 c3
-5 -3 -10 -15 -10 -12 0 -18 5 -15 10 3 6 10 10 15 10 5 0 12 -4 15 -10z m5
-30 c0 -12 -28 -25 -36 -17 -9 9 6 27 22 27 8 0 14 -5 14 -10z"/>
<path d="M3151 2076 l0 -41 12 35 c7 19 19 35 27 35 9 0 18 -13 22 -35 l6 -35
-1 40 c-2 38 -4 40 -34 41 -32 1 -33 0 -32 -40z"/>
<path d="M3430 2106 c-6 -8 -10 -25 -8 -38 4 -32 52 -38 68 -9 22 43 -29 83
-60 47z m48 -24 c2 -13 -3 -25 -13 -28 -23 -9 -38 10 -30 36 9 27 39 22 43 -8z"/>
<path d="M3518 2095 c-8 -19 -8 -28 2 -40 13 -16 46 -20 54 -7 3 5 -5 8 -17 8
-17 -1 -22 5 -22 24 0 19 5 25 22 24 12 0 20 3 17 8 -11 17 -45 7 -56 -17z"/>
<path d="M3617 2113 c-2 -5 -4 -22 -5 -40 -2 -31 -1 -32 33 -31 38 1 45 20 25
59 -10 19 -45 26 -53 12z m38 -13 c3 -5 -3 -10 -15 -10 -12 0 -18 5 -15 10 3
6 10 10 15 10 5 0 12 -4 15 -10z m5 -30 c0 -12 -28 -25 -36 -17 -9 9 6 27 22
27 8 0 14 -5 14 -10z"/>
<path d="M3840 2112 c0 -6 8 -8 19 -5 10 3 21 0 25 -5 3 -5 -8 -12 -25 -16
-43 -8 -36 -41 9 -42 32 -1 33 0 30 35 -3 31 -7 36 -30 39 -16 2 -28 -1 -28
-6z m40 -47 c0 -8 -7 -15 -15 -15 -8 0 -15 7 -15 15 0 8 7 15 15 15 8 0 15 -7
15 -15z"/>
<path d="M3920 2115 c0 -6 5 -16 12 -23 8 -8 8 -15 -2 -27 -7 -8 -10 -18 -7
-22 4 -3 9 2 13 11 6 16 8 16 25 0 21 -19 27 -6 7 14 -9 9 -9 15 0 24 7 7 12
17 12 23 0 5 -7 1 -15 -9 -15 -20 -15 -20 -30 0 -8 10 -15 14 -15 9z"/>
<path d="M4004 2106 c-11 -30 0 -61 25 -64 13 -2 28 1 34 7 7 7 2 10 -18 8
-15 -1 -30 4 -32 11 -3 8 6 12 27 12 25 0 31 4 28 18 -4 22 -56 29 -64 8z m51
-6 c4 -6 -5 -10 -20 -10 -15 0 -24 4 -20 10 3 6 12 10 20 10 8 0 17 -4 20 -10z"/>
<path d="M4097 2113 c-13 -12 -7 -22 19 -36 18 -9 23 -16 15 -21 -7 -4 -19 -2
-28 6 -14 11 -15 11 -11 -2 2 -8 15 -15 29 -15 30 0 38 31 10 40 -12 3 -21 11
-21 16 0 6 9 7 21 4 15 -5 19 -4 15 4 -8 12 -39 15 -49 4z"/>
<path d="M5860 4440 c-44 -44 -13 -130 48 -130 15 0 33 5 40 12 9 9 12 9 12 0
0 -7 5 -12 10 -12 6 0 10 18 10 40 0 40 0 40 -37 39 -30 -1 -33 -2 -15 -7 13
-4 23 -10 23 -14 -1 -5 -1 -12 -1 -18 0 -5 -9 -14 -21 -20 -32 -18 -69 11 -69
53 0 18 5 38 12 45 15 15 61 15 76 0 6 -6 15 -8 19 -4 12 12 -28 36 -59 36
-15 0 -37 -9 -48 -20z"/>
<path d="M6560 4385 c0 -43 4 -75 10 -75 6 0 10 32 10 75 0 43 -4 75 -10 75
-6 0 -10 -32 -10 -75z"/>
<path d="M6660 4450 c0 -5 9 -10 20 -10 18 0 20 -7 20 -65 0 -37 4 -65 10 -65
6 0 10 28 10 65 0 58 2 65 19 65 11 0 23 5 26 10 4 6 -15 10 -49 10 -31 0 -56
-4 -56 -10z"/>
<path d="M6785 4450 c3 -5 10 -10 16 -10 5 0 9 5 9 10 0 6 -7 10 -16 10 -8 0
-12 -4 -9 -10z"/>
<path d="M6960 4385 c0 -43 4 -75 10 -75 6 0 10 10 10 22 l0 21 23 -21 c33
-31 41 -27 16 8 -21 28 -21 31 -6 48 26 29 20 38 -8 12 l-25 -23 0 41 c0 23
-4 42 -10 42 -6 0 -10 -32 -10 -75z"/>
<path d="M7331 4442 c-13 -24 9 -57 44 -66 16 -4 25 -13 25 -27 0 -30 -28 -35
-56 -9 -17 17 -24 19 -24 9 0 -34 54 -52 88 -30 23 14 10 54 -23 71 -40 20
-47 32 -30 49 12 13 17 12 35 -4 23 -21 39 -13 20 10 -18 21 -67 19 -79 -3z"/>
<path d="M7560 4385 c0 -43 4 -75 10 -75 6 0 10 32 10 75 0 43 -4 75 -10 75
-6 0 -10 -32 -10 -75z"/>
<path d="M7191 4424 c-9 -11 -10 -18 -3 -23 6 -3 12 -24 14 -46 3 -34 7 -40
28 -43 23 -2 24 -1 8 11 -24 19 -24 77 -1 77 14 0 14 3 -5 20 -25 24 -23 23
-41 4z"/>
<path d="M6017 4402 c-19 -21 -21 -45 -7 -73 13 -23 62 -26 80 -4 15 18 7 19
-21 4 -15 -7 -24 -7 -35 2 -24 20 -16 29 26 29 33 0 40 3 40 20 0 19 -27 40
-53 40 -8 0 -21 -8 -30 -18z m61 -19 c2 -9 -7 -13 -27 -13 -30 0 -39 9 -24 24
11 10 46 3 51 -11z"/>
<path d="M6130 4363 c0 -63 18 -71 22 -10 2 35 7 43 26 45 20 3 22 -1 22 -42
0 -25 5 -46 10 -46 15 0 12 86 -3 99 -7 6 -28 9 -45 8 -32 -2 -32 -3 -32 -54z"/>
<path d="M6260 4400 c-24 -24 -25 -38 -4 -68 17 -25 56 -29 74 -7 15 18 7 19
-19 3 -15 -9 -23 -9 -35 1 -27 22 -18 31 29 31 38 0 43 3 38 18 -7 21 -32 42
-50 42 -7 0 -22 -9 -33 -20z m60 -15 c0 -10 -10 -15 -30 -15 -29 0 -38 9 -23
23 13 13 53 7 53 -8z"/>
<path d="M6370 4363 c0 -29 5 -53 10 -53 6 0 10 18 10 41 0 32 4 42 20 46 30
8 24 20 -10 19 -29 -1 -30 -2 -30 -53z"/>
<path d="M6462 4408 c-19 -19 -14 -30 7 -17 20 13 56 5 46 -11 -3 -5 -17 -10
-29 -10 -13 0 -29 -7 -36 -15 -20 -24 5 -45 51 -43 38 1 39 2 39 39 0 56 -45
90 -78 57z m48 -68 c-11 -21 -35 -27 -45 -10 -10 16 4 30 31 30 22 0 23 -3 14
-20z"/>
<path d="M6793 4365 c0 -33 2 -45 4 -27 2 18 2 45 0 60 -2 15 -4 0 -4 -33z"/>
<path d="M6850 4400 c-24 -24 -25 -38 -4 -68 17 -25 56 -29 74 -7 14 17 0 21
-17 4 -8 -8 -17 -8 -32 0 -21 12 -26 27 -15 55 7 19 50 21 57 4 2 -7 8 -9 13
-5 10 10 -22 37 -43 37 -7 0 -22 -9 -33 -20z"/>
<path d="M7077 4402 c-19 -21 -21 -45 -7 -73 13 -23 62 -26 80 -4 15 18 7 19
-21 4 -15 -7 -24 -7 -35 2 -24 20 -16 29 26 29 33 0 40 3 40 20 0 19 -27 40
-53 40 -8 0 -21 -8 -30 -18z m61 -19 c2 -9 -7 -13 -27 -13 -30 0 -39 9 -24 24
11 10 46 3 51 -11z"/>
<path d="M7460 4405 c-7 -9 -10 -19 -6 -22 4 -4 11 -1 15 6 10 15 43 11 48 -6
3 -7 -9 -13 -29 -15 -28 -2 -33 -7 -33 -28 0 -23 4 -25 43 -26 l42 -2 0 38 c0
59 -49 93 -80 55z m60 -54 c0 -14 -28 -33 -40 -26 -20 12 -10 35 15 35 14 0
25 -4 25 -9z"/>
<path d="M7626 4404 c-19 -18 -21 -65 -4 -82 15 -15 64 -16 73 -1 10 16 -3 23
-18 10 -17 -14 -47 -4 -47 15 0 10 12 14 40 14 44 0 52 16 22 43 -23 21 -46
22 -66 1z m62 -21 c2 -9 -7 -13 -27 -13 -30 0 -39 9 -24 24 11 10 46 3 51 -11z"/>
<path d="M7742 4408 c-20 -20 -14 -35 18 -47 17 -5 30 -14 30 -20 0 -17 -20
-23 -36 -10 -17 14 -33 4 -17 -12 6 -6 23 -9 39 -7 21 2 30 9 32 26 3 18 -3
25 -27 33 -41 14 -41 33 0 25 27 -5 30 -4 19 9 -15 18 -42 19 -58 3z"/>
<path d="M5708 4069 c-11 -6 -18 -22 -18 -40 0 -26 6 -32 45 -49 25 -11 45
-24 45 -30 0 -18 -30 -23 -55 -10 -34 18 -49 10 -30 -18 12 -16 26 -22 54 -22
44 0 61 14 61 53 0 24 -7 31 -46 48 -25 11 -43 26 -41 32 5 15 47 22 47 8 0
-6 9 -11 20 -11 25 0 26 12 2 33 -21 19 -58 22 -84 6z"/>
<path d="M5840 4065 c0 -10 7 -15 18 -13 21 4 19 22 -2 26 -10 2 -16 -3 -16
-13z"/>
<path d="M6210 3990 c0 -73 3 -90 15 -90 12 0 15 17 15 90 0 73 -3 90 -15 90
-12 0 -15 -17 -15 -90z"/>
<path d="M6560 3991 l0 -91 49 0 c63 0 90 22 98 76 8 60 -25 95 -95 102 l-52
5 0 -92z m91 49 c14 -8 19 -21 19 -48 0 -45 -14 -62 -52 -62 -28 0 -28 1 -28
60 0 54 2 60 21 60 11 0 29 -5 40 -10z"/>
<path d="M7087 4073 c-15 -14 -6 -23 23 -23 l30 0 0 -75 c0 -60 3 -75 15 -75
12 0 15 15 15 75 0 73 1 75 25 75 16 0 25 6 25 15 0 12 -14 15 -63 15 -35 0
-67 -3 -70 -7z"/>
<path d="M7247 4073 c-13 -12 -7 -23 13 -23 11 0 20 7 20 15 0 15 -21 21 -33
8z"/>
<path d="M7460 3990 c0 -83 1 -90 20 -90 15 0 20 7 20 28 l1 27 22 -27 c13
-16 30 -28 40 -28 24 0 21 9 -10 42 l-27 28 22 23 c26 27 28 37 8 37 -8 0 -24
-12 -35 -26 l-21 -27 0 52 c0 44 -3 51 -20 51 -19 0 -20 -7 -20 -90z"/>
<path d="M7770 4045 c0 -8 -4 -15 -10 -15 -5 0 -10 -7 -10 -15 0 -8 5 -15 10
-15 6 0 10 -17 10 -38 0 -43 14 -62 47 -62 28 0 31 26 3 33 -15 4 -20 14 -20
36 0 24 4 31 20 31 11 0 20 5 20 11 0 6 -9 13 -20 16 -11 3 -20 12 -20 19 0 8
-7 14 -15 14 -8 0 -15 -7 -15 -15z"/>
<path d="M5840 3965 c0 -51 3 -65 15 -65 12 0 15 14 15 65 0 51 -3 65 -15 65
-12 0 -15 -14 -15 -65z"/>
<path d="M5910 3965 c0 -50 3 -65 14 -65 11 0 16 14 18 47 2 37 7 49 22 51 24
5 36 -14 36 -60 0 -27 4 -38 15 -38 21 0 21 93 -1 114 -18 19 -45 21 -61 5 -8
-8 -13 -8 -17 0 -17 26 -26 6 -26 -54z"/>
<path d="M6076 4011 c-10 -11 -15 -28 -12 -38 3 -10 2 -35 -3 -55 -6 -27 -5
-42 6 -57 27 -39 103 -20 103 25 0 25 -2 27 -55 40 l-30 7 33 7 c39 9 41 10
45 38 2 12 6 25 10 28 16 16 4 24 -36 24 -31 0 -49 -6 -61 -19z m62 -28 c5
-17 -26 -29 -40 -15 -6 6 -7 15 -3 22 9 14 37 9 43 -7z m2 -98 c0 -9 -9 -15
-25 -15 -16 0 -25 6 -25 15 0 9 9 15 25 15 16 0 25 -6 25 -15z"/>
<path d="M6292 4014 c-28 -19 -30 -74 -4 -97 23 -21 62 -22 88 -3 25 19 11 32
-19 19 -17 -8 -29 -8 -43 1 -16 9 -12 12 31 16 43 4 50 8 47 25 -4 24 -38 55
-61 55 -9 0 -27 -7 -39 -16z m63 -24 c4 -6 -7 -10 -25 -10 -18 0 -29 4 -25 10
3 6 15 10 25 10 10 0 22 -4 25 -10z"/>
<path d="M6758 4019 c-22 -12 -24 -39 -3 -39 8 0 15 5 15 11 0 6 10 9 23 7 32
-4 23 -22 -14 -28 -40 -6 -58 -32 -40 -54 9 -11 29 -15 62 -14 l49 1 0 48 c0
69 -40 99 -92 68z m50 -85 c-9 -9 -21 -13 -27 -10 -20 13 -11 26 16 26 25 0
26 -1 11 -16z"/>
<path d="M6870 4026 c0 -3 12 -32 26 -66 23 -52 25 -65 15 -87 -13 -28 -9 -38
11 -30 10 4 54 92 85 175 3 6 -2 12 -12 12 -10 0 -23 -15 -32 -40 -9 -22 -19
-40 -22 -40 -3 0 -14 18 -23 40 -9 23 -23 40 -32 40 -9 0 -16 -2 -16 -4z"/>
<path d="M7247 4024 c-4 -4 -7 -34 -7 -66 0 -52 2 -58 20 -58 19 0 21 5 18 62
-3 57 -14 79 -31 62z"/>
<path d="M7332 4014 c-28 -19 -30 -74 -4 -97 22 -20 73 -22 90 -5 21 21 13 28
-30 26 -37 -3 -43 0 -46 18 -2 11 4 27 13 34 13 11 20 11 40 0 32 -17 43 -6
20 20 -22 24 -52 26 -83 4z"/>
<path d="M7621 4004 c-25 -32 -26 -52 -5 -82 18 -26 75 -30 94 -7 17 21 5 31
-22 18 -25 -11 -48 -7 -48 8 0 5 20 9 45 9 38 0 45 3 45 20 0 27 -35 60 -64
60 -15 0 -33 -11 -45 -26z m69 -14 c0 -5 -12 -10 -26 -10 -14 0 -23 4 -19 10
3 6 15 10 26 10 10 0 19 -4 19 -10z"/>
<path d="M7875 4014 c-21 -22 -15 -36 23 -54 17 -8 32 -21 32 -27 0 -16 -15
-16 -40 -1 -24 15 -37 4 -20 -17 16 -19 74 -20 90 0 18 22 5 44 -35 61 -45 18
-45 28 0 20 36 -7 44 1 23 22 -17 17 -54 15 -73 -4z"/>
<path d="M6420 3976 c0 -13 12 -16 56 -16 73 0 70 24 -4 28 -42 2 -52 0 -52
-12z"/>
<path d="M5823 3559 c-71 -27 -155 -106 -190 -177 -25 -51 -28 -68 -28 -157 0
-89 3 -106 28 -156 33 -69 109 -142 181 -175 l53 -24 969 2 969 3 50 25 c102
50 176 151 197 270 26 148 -59 311 -197 380 l-50 25 -965 2 c-948 2 -966 2
-1017 -18z m797 -227 c0 -5 11 -14 25 -20 14 -6 25 -18 25 -27 0 -18 -21 -20
-38 -3 -9 9 -12 7 -12 -13 0 -15 8 -28 22 -34 48 -22 49 -64 2 -89 -10 -6 -22
-15 -26 -20 -3 -5 -13 -3 -22 5 -8 8 -22 20 -31 27 -8 7 -15 17 -15 22 0 15
37 12 43 -2 3 -7 6 -1 6 13 1 18 -7 32 -24 43 -32 21 -32 44 3 78 28 28 42 34
42 20z m140 -102 c0 -83 -1 -90 -20 -90 -18 0 -20 7 -20 70 0 56 -3 70 -15 70
-22 0 -18 15 8 28 44 21 47 17 47 -78z m145 68 c14 -21 14 -23 -2 -27 -9 -2
-19 2 -21 8 -6 18 -40 13 -52 -8 -14 -27 -14 -27 27 -23 40 5 63 -14 63 -52 0
-53 -84 -78 -114 -34 -23 32 -20 100 5 132 26 33 71 35 94 4z m168 8 c29 -22
40 -70 27 -111 -31 -94 -150 -65 -150 37 0 69 72 112 123 74z"/>
<path d="M6591 3274 c0 -11 3 -14 6 -6 3 7 2 16 -1 19 -3 4 -6 -2 -5 -13z"/>
<path d="M6620 3191 c0 -12 5 -21 10 -21 6 0 10 6 10 14 0 8 -4 18 -10 21 -5
3 -10 -3 -10 -14z"/>
<path d="M6836 3215 c-20 -21 -9 -45 20 -45 29 0 41 24 24 45 -16 19 -25 19
-44 0z"/>
<path d="M6994 3265 c-13 -20 -15 -33 -8 -58 17 -57 84 -45 84 15 0 66 -45 91
-76 43z"/>
<path d="M6012 2483 c450 -2 1186 -2 1635 0 450 1 82 2 -817 2 -899 0 -1267
-1 -818 -2z"/>
<path d="M6179 2138 c-15 -25 -14 -98 2 -98 5 0 9 16 9 35 0 21 5 35 13 35 9
0 9 2 -1 8 -7 5 -10 16 -6 25 9 24 -1 21 -17 -5z"/>
<path d="M6271 2104 l-1 -61 31 1 c59 2 66 71 8 71 -17 0 -26 7 -30 25 -4 16
-7 3 -8 -36z m54 -24 c0 -29 -32 -41 -41 -16 -9 24 4 48 23 44 12 -2 18 -12
18 -28z"/>
<path d="M6562 2100 c0 -36 3 -57 7 -47 6 17 8 17 20 3 7 -9 18 -16 24 -16 5
0 2 9 -9 21 -16 17 -16 23 -5 42 14 22 14 22 -7 4 -20 -19 -21 -19 -25 20 -2
24 -4 14 -5 -27z"/>
<path d="M6908 2141 c-15 -21 -12 -101 3 -101 5 0 9 16 9 35 0 21 5 35 13 35
9 0 9 2 -1 8 -7 5 -10 16 -6 25 8 23 -2 21 -18 -2z"/>
<path d="M7420 2137 c0 -18 -5 -23 -26 -22 -15 0 -32 -8 -38 -17 -16 -27 4
-53 43 -54 l31 -1 0 59 c0 32 -2 58 -5 58 -3 0 -5 -10 -5 -23z m-11 -41 c13
-16 4 -46 -14 -46 -7 0 -18 7 -25 15 -10 12 -10 18 0 30 15 19 24 19 39 1z"/>
<path d="M7503 2100 c0 -36 2 -50 4 -32 2 17 2 47 0 65 -2 17 -4 3 -4 -33z"/>
<path d="M7813 2100 c0 -36 2 -50 4 -32 2 17 2 47 0 65 -2 17 -4 3 -4 -33z"/>
<path d="M5610 2095 c0 -30 5 -55 10 -55 6 0 10 25 10 55 0 30 -4 55 -10 55
-5 0 -10 -25 -10 -55z"/>
<path d="M7888 2127 c-2 -7 -2 -28 2 -47 3 -25 11 -35 25 -37 11 -2 14 0 8 3
-15 7 -17 61 -3 66 6 2 2 8 -9 15 -15 9 -20 9 -23 0z"/>
<path d="M5390 2080 c0 -22 5 -40 10 -40 6 0 10 18 10 40 0 22 -4 40 -10 40
-5 0 -10 -18 -10 -40z"/>
<path d="M5431 2076 l0 -41 12 35 c7 19 19 35 27 35 9 0 18 -13 22 -35 l6 -35
-1 40 c-2 38 -4 40 -34 41 -32 1 -33 0 -32 -40z"/>
<path d="M5532 2108 c-15 -15 -15 -41 0 -56 14 -14 44 -16 52 -3 4 5 -2 7 -12
4 -10 -2 -24 3 -32 12 -11 13 -11 19 3 32 14 14 18 14 33 2 15 -12 17 -12 12
1 -6 19 -40 24 -56 8z"/>
<path d="M5653 2085 c2 -38 4 -40 35 -41 31 -1 32 0 31 40 -1 42 -3 41 -13 -7
-9 -40 -39 -32 -48 13 l-6 35 1 -40z"/>
<path d="M5747 2113 c-13 -12 -7 -22 19 -36 18 -9 23 -16 15 -21 -7 -4 -19 -2
-28 6 -14 11 -15 11 -11 -2 2 -8 15 -15 29 -15 30 0 38 31 10 40 -12 3 -21 11
-21 16 0 6 9 7 21 4 15 -5 19 -4 15 4 -8 12 -39 15 -49 4z"/>
<path d="M5820 2080 c0 -22 5 -40 10 -40 6 0 10 18 10 40 0 22 -4 40 -10 40
-5 0 -10 -18 -10 -40z"/>
<path d="M5861 2114 c-2 -22 22 -75 32 -71 13 4 39 77 28 77 -4 0 -13 -15 -18
-32 l-10 -33 -16 35 c-8 19 -16 30 -16 24z"/>
<path d="M5952 2108 c-25 -25 -6 -68 29 -68 10 0 21 5 24 10 4 7 -2 9 -19 4
-20 -5 -26 -2 -26 10 0 11 9 16 30 16 17 0 30 4 30 8 0 14 -23 32 -40 32 -9 0
-21 -5 -28 -12z m43 -8 c3 -5 -3 -10 -14 -10 -12 0 -21 5 -21 10 0 6 6 10 14
10 8 0 18 -4 21 -10z"/>
<path d="M6078 2095 c-14 -30 3 -55 38 -55 17 0 25 7 30 25 13 51 -46 77 -68
30z m56 0 c8 -21 -3 -45 -20 -45 -8 0 -17 7 -20 15 -8 21 2 45 20 45 7 0 16
-7 20 -15z"/>
<path d="M6374 2106 c-3 -8 -4 -25 -2 -38 2 -18 9 -23 33 -23 28 0 30 3 30 35
0 31 -3 35 -28 38 -17 2 -29 -2 -33 -12z m51 -26 c0 -29 -32 -41 -41 -16 -9
24 4 48 23 44 12 -2 18 -12 18 -28z"/>
<path d="M6470 2105 c-26 -32 13 -81 48 -59 34 22 22 74 -18 74 -10 0 -23 -7
-30 -15z m48 -19 c6 -29 -15 -43 -35 -24 -14 14 -14 20 -3 33 16 19 34 15 38
-9z"/>
<path d="M6643 2080 c0 -25 2 -35 4 -22 2 12 2 32 0 45 -2 12 -4 2 -4 -23z"/>
<path d="M6681 2075 l2 -40 6 35 c9 50 41 55 41 6 0 -20 5 -36 10 -36 12 0 13
50 2 68 -5 6 -20 11 -35 10 -25 -2 -27 -6 -26 -43z"/>
<path d="M6777 2113 c-3 -5 -7 -28 -8 -52 -4 -47 13 -70 45 -58 24 9 20 44 -6
51 l-23 7 21 9 c12 4 24 18 27 29 4 18 1 21 -23 21 -16 0 -31 -3 -33 -7z m41
-21 c2 -7 -6 -12 -17 -12 -21 0 -27 11 -14 24 9 9 26 2 31 -12z m0 -64 c-3 -7
-11 -13 -18 -13 -7 0 -15 6 -17 13 -3 7 4 12 17 12 13 0 20 -5 18 -12z"/>
<path d="M6954 2106 c-11 -30 0 -61 25 -64 13 -2 28 1 34 7 7 7 2 10 -18 8
-15 -1 -30 4 -32 11 -3 8 6 12 27 12 25 0 31 4 28 18 -4 22 -56 29 -64 8z m51
-6 c4 -6 -5 -10 -20 -10 -15 0 -24 4 -20 10 3 6 12 10 20 10 8 0 17 -4 20 -10z"/>
<path d="M7052 2108 c-25 -25 -6 -68 29 -68 10 0 21 5 24 10 4 7 -2 9 -19 4
-20 -5 -26 -2 -26 10 0 11 9 16 30 16 17 0 30 4 30 8 0 14 -23 32 -40 32 -9 0
-21 -5 -28 -12z m43 -8 c3 -5 -3 -10 -14 -10 -12 0 -21 5 -21 10 0 6 6 10 14
10 8 0 18 -4 21 -10z"/>
<path d="M7185 2110 c-4 -6 -4 -14 -1 -17 3 -3 1 -12 -5 -19 -16 -20 -1 -34
32 -32 28 2 30 5 27 38 -2 27 -8 36 -25 38 -11 2 -24 -2 -28 -8z m40 -10 c3
-5 -3 -10 -15 -10 -12 0 -18 5 -15 10 3 6 10 10 15 10 5 0 12 -4 15 -10z m5
-30 c0 -12 -28 -25 -36 -17 -9 9 6 27 22 27 8 0 14 -5 14 -10z"/>
<path d="M7260 2080 c0 -48 17 -54 22 -7 2 20 8 32 18 32 10 0 16 -12 18 -32
2 -18 7 -33 13 -33 12 0 12 22 -1 54 -7 20 -16 26 -40 26 -28 0 -30 -2 -30
-40z"/>
<path d="M7540 2105 c-26 -32 13 -81 48 -59 34 22 22 74 -18 74 -10 0 -23 -7
-30 -15z m48 -19 c6 -29 -15 -43 -35 -24 -14 14 -14 20 -3 33 16 19 34 15 38
-9z"/>
<path d="M7628 2095 c-8 -19 -8 -28 2 -40 13 -16 46 -20 54 -7 3 5 -5 8 -17 8
-17 -1 -22 5 -22 24 0 19 5 25 22 24 12 0 20 3 17 8 -11 17 -45 7 -56 -17z"/>
<path d="M7727 2113 c-2 -5 -4 -22 -5 -40 -2 -31 -1 -32 33 -31 38 1 45 20 25
59 -10 19 -45 26 -53 12z m38 -13 c3 -5 -3 -10 -15 -10 -12 0 -18 5 -15 10 3
6 10 10 15 10 5 0 12 -4 15 -10z m5 -30 c0 -12 -28 -25 -36 -17 -9 9 6 27 22
27 8 0 14 -5 14 -10z"/>
<path d="M7950 2112 c0 -6 8 -8 19 -5 10 3 21 0 25 -5 3 -5 -8 -12 -25 -16
-43 -8 -36 -41 9 -42 32 -1 33 0 30 35 -3 31 -7 36 -30 39 -16 2 -28 -1 -28
-6z m40 -47 c0 -8 -7 -15 -15 -15 -8 0 -15 7 -15 15 0 8 7 15 15 15 8 0 15 -7
15 -15z"/>
<path d="M8030 2115 c0 -6 5 -16 12 -23 8 -8 8 -15 -2 -27 -7 -8 -10 -18 -7
-22 4 -3 9 2 13 11 6 16 8 16 25 0 21 -19 27 -6 7 14 -9 9 -9 15 0 24 7 7 12
17 12 23 0 5 -7 1 -15 -9 -15 -20 -15 -20 -30 0 -8 10 -15 14 -15 9z"/>
<path d="M8114 2106 c-11 -30 0 -61 25 -64 13 -2 28 1 34 7 7 7 2 10 -18 8
-15 -1 -30 4 -32 11 -3 8 6 12 27 12 25 0 31 4 28 18 -4 22 -56 29 -64 8z m51
-6 c4 -6 -5 -10 -20 -10 -15 0 -24 4 -20 10 3 6 12 10 20 10 8 0 17 -4 20 -10z"/>
<path d="M8207 2113 c-13 -12 -7 -22 19 -36 18 -9 23 -16 15 -21 -7 -4 -19 -2
-28 6 -14 11 -15 11 -11 -2 2 -8 15 -15 29 -15 30 0 38 31 10 40 -12 3 -21 11
-21 16 0 6 9 7 21 4 15 -5 19 -4 15 4 -8 12 -39 15 -49 4z"/>
<path d="M9971 4434 c-27 -34 -27 -64 0 -98 18 -22 27 -26 70 -24 l49 2 0 38
c0 36 -1 38 -32 37 -24 -1 -27 -3 -10 -6 26 -5 29 -25 6 -47 -21 -21 -40 -20
-64 4 -40 40 -19 100 35 100 19 0 35 -4 35 -10 0 -5 7 -10 17 -10 14 0 14 2
-2 20 -27 30 -78 27 -104 -6z"/>
<path d="M10670 4385 c0 -43 4 -75 10 -75 6 0 10 32 10 75 0 43 -4 75 -10 75
-6 0 -10 -32 -10 -75z"/>
<path d="M10770 4450 c0 -5 11 -10 25 -10 23 0 24 -3 28 -67 l3 -68 2 68 c2
59 4 67 21 67 11 0 23 5 26 10 4 6 -15 10 -49 10 -31 0 -56 -4 -56 -10z"/>
<path d="M10900 4450 c0 -5 5 -10 10 -10 6 0 10 5 10 10 0 6 -4 10 -10 10 -5
0 -10 -4 -10 -10z"/>
<path d="M11070 4385 c0 -43 4 -75 10 -75 6 0 10 12 10 28 l1 27 22 -27 c13
-16 29 -28 37 -28 9 0 4 10 -13 28 l-27 28 22 22 c30 30 14 41 -17 12 l-25
-23 0 41 c0 23 -4 42 -10 42 -6 0 -10 -32 -10 -75z"/>
<path d="M11452 4448 c-23 -23 -13 -48 23 -64 40 -16 55 -41 34 -55 -20 -13
-26 -11 -49 13 -20 22 -20 22 -20 1 0 -33 66 -47 90 -18 19 23 7 49 -33 68
-38 18 -48 41 -22 51 8 3 21 -1 29 -9 18 -19 26 -19 26 -1 0 25 -56 36 -78 14z"/>
<path d="M11680 4385 c0 -43 4 -75 10 -75 6 0 10 32 10 75 0 43 -4 75 -10 75
-6 0 -10 -32 -10 -75z"/>
<path d="M11302 4420 c-7 -11 -8 -20 -3 -20 6 0 11 -19 13 -42 3 -37 6 -43 28
-46 23 -2 24 -1 8 11 -23 18 -25 77 -3 77 8 0 15 5 15 10 0 6 -7 10 -15 10 -8
0 -15 5 -15 10 0 17 -14 11 -28 -10z"/>
<path d="M10130 4400 c-24 -24 -25 -38 -4 -68 17 -25 56 -29 74 -7 15 18 7 19
-19 3 -15 -9 -23 -9 -35 1 -27 22 -18 31 29 31 38 0 43 3 38 18 -7 21 -32 42
-50 42 -7 0 -22 -9 -33 -20z m60 -15 c0 -10 -10 -15 -30 -15 -29 0 -38 9 -23
23 13 13 53 7 53 -8z"/>
<path d="M10240 4363 c0 -63 18 -71 22 -11 2 33 8 44 22 46 24 5 36 -14 36
-55 0 -18 5 -33 10 -33 14 0 12 50 -3 80 -10 20 -20 25 -50 25 l-37 0 0 -52z"/>
<path d="M10376 4404 c-19 -18 -21 -65 -4 -82 15 -15 64 -16 73 -1 10 16 -3
23 -18 10 -17 -14 -47 -4 -47 15 0 10 12 14 40 14 44 0 52 16 22 43 -23 21
-46 22 -66 1z m62 -21 c2 -9 -7 -13 -27 -13 -30 0 -39 9 -24 24 11 10 46 3 51
-11z"/>
<path d="M10487 4414 c-11 -11 -8 -104 3 -104 6 0 10 15 10 34 0 25 7 39 22
50 12 9 19 19 15 22 -4 4 -13 2 -21 -5 -10 -8 -15 -9 -18 -1 -2 6 -7 8 -11 4z"/>
<path d="M10570 4405 c-7 -9 -10 -19 -6 -22 4 -4 11 -1 15 6 10 15 43 11 48
-6 3 -7 -9 -13 -29 -15 -28 -2 -33 -7 -33 -28 0 -23 4 -25 43 -26 l42 -2 0 38
c0 59 -49 93 -80 55z m60 -54 c0 -14 -28 -33 -40 -26 -20 12 -10 35 15 35 14
0 25 -4 25 -9z"/>
<path d="M10900 4365 c0 -30 5 -55 10 -55 6 0 10 25 10 55 0 30 -4 55 -10 55
-5 0 -10 -25 -10 -55z"/>
<path d="M10968 4409 c-21 -12 -24 -69 -6 -87 15 -15 64 -16 73 -1 10 16 -3
23 -18 10 -30 -24 -66 14 -47 50 12 21 40 25 58 7 7 -7 12 -8 12 -2 0 29 -40
42 -72 23z"/>
<path d="M11198 4409 c-21 -12 -24 -69 -6 -87 7 -7 21 -12 33 -12 25 0 52 16
42 26 -3 4 -13 2 -20 -5 -17 -13 -43 -6 -51 15 -4 11 5 14 39 14 49 0 53 5 29
38 -16 24 -39 27 -66 11z m60 -26 c2 -9 -7 -13 -27 -13 -30 0 -39 9 -24 24 11
10 46 3 51 -11z"/>
<path d="M11574 4406 c-10 -8 -16 -18 -11 -22 4 -4 13 -2 19 4 17 17 48 15 48
-2 0 -9 -12 -16 -32 -18 -28 -2 -33 -7 -33 -28 0 -23 4 -25 43 -26 l42 -2 0
42 c0 62 -32 84 -76 52z m56 -55 c0 -5 -7 -14 -15 -21 -18 -15 -42 1 -31 19 8
13 46 15 46 2z"/>
<path d="M11737 4402 c-19 -21 -21 -45 -7 -73 13 -23 62 -26 80 -4 15 18 7 19
-21 4 -15 -7 -24 -7 -35 2 -24 20 -16 29 26 29 33 0 40 3 40 20 0 19 -27 40
-53 40 -8 0 -21 -8 -30 -18z m61 -19 c2 -9 -7 -13 -27 -13 -30 0 -39 9 -24 24
11 10 46 3 51 -11z"/>
<path d="M11863 4413 c-25 -10 -14 -44 17 -55 17 -5 29 -15 27 -22 -5 -12 -22
-12 -52 0 -18 7 -18 6 -6 -9 17 -21 54 -22 71 -2 15 17 6 33 -26 45 -32 13
-32 34 1 26 27 -7 35 8 9 18 -18 7 -23 7 -41 -1z"/>
<path d="M9810 4065 c0 -9 9 -15 25 -15 24 0 25 -2 25 -75 0 -60 3 -75 15 -75
12 0 15 15 15 75 0 73 1 75 25 75 16 0 25 6 25 15 0 12 -14 15 -65 15 -51 0
-65 -3 -65 -15z"/>
<path d="M9960 3990 c0 -82 2 -90 19 -90 17 0 20 8 23 48 3 39 6 47 23 47 17
0 20 -8 23 -47 3 -40 6 -48 23 -48 16 0 19 7 19 43 0 59 -24 91 -61 83 -27 -5
-29 -3 -29 24 0 23 -4 30 -20 30 -19 0 -20 -7 -20 -90z"/>
<path d="M10660 3991 l0 -91 49 0 c63 0 90 22 98 76 8 60 -25 95 -95 102 l-52
5 0 -92z m91 49 c14 -8 19 -21 19 -48 0 -45 -14 -62 -52 -62 -28 0 -28 1 -28
60 0 54 2 60 21 60 11 0 29 -5 40 -10z"/>
<path d="M11187 4073 c-15 -14 -6 -23 23 -23 l30 0 0 -75 c0 -60 3 -75 15 -75
12 0 15 15 15 75 0 73 1 75 25 75 16 0 25 6 25 15 0 12 -14 15 -63 15 -35 0
-67 -3 -70 -7z"/>
<path d="M11347 4073 c-13 -12 -7 -23 13 -23 11 0 20 7 20 15 0 15 -21 21 -33
8z"/>
<path d="M11560 3990 c0 -83 1 -90 20 -90 15 0 20 7 20 28 l1 27 22 -27 c13
-16 30 -28 40 -28 24 0 21 9 -10 42 l-27 28 22 23 c26 27 28 37 8 37 -8 0 -24
-12 -35 -26 l-21 -27 0 52 c0 44 -3 51 -20 51 -19 0 -20 -7 -20 -90z"/>
<path d="M11870 4045 c0 -8 -4 -15 -10 -15 -5 0 -10 -7 -10 -15 0 -8 5 -15 10
-15 6 0 10 -17 10 -38 0 -43 14 -62 47 -62 28 0 31 26 3 33 -15 4 -20 14 -20
36 0 24 4 31 20 31 11 0 20 5 20 11 0 6 -9 13 -20 16 -11 3 -20 12 -20 19 0 8
-7 14 -15 14 -8 0 -15 -7 -15 -15z"/>
<path d="M10120 3965 c0 -51 3 -65 15 -65 11 0 15 11 15 40 0 34 4 42 25 50
14 5 25 16 25 25 0 18 -5 18 -30 5 -13 -7 -21 -7 -25 0 -16 25 -25 5 -25 -55z"/>
<path d="M10242 4013 c-21 -18 -26 -32 -23 -65 3 -46 73 -64 106 -28 18 19 17
20 -1 20 -11 0 -25 -5 -32 -12 -9 -9 -16 -8 -29 5 -16 16 -15 17 30 17 43 0
47 2 47 24 0 26 -33 56 -61 56 -9 0 -26 -8 -37 -17z m63 -23 c4 -6 -7 -10 -25
-10 -18 0 -29 4 -25 10 3 6 15 10 25 10 10 0 22 -4 25 -10z"/>
<path d="M10392 4014 c-28 -19 -30 -74 -4 -97 23 -21 62 -22 88 -3 25 19 11
32 -19 19 -17 -8 -29 -8 -43 1 -16 9 -12 12 31 16 43 4 50 8 47 25 -4 24 -38
55 -61 55 -9 0 -27 -7 -39 -16z m63 -24 c4 -6 -7 -10 -25 -10 -18 0 -29 4 -25
10 3 6 15 10 25 10 10 0 22 -4 25 -10z"/>
<path d="M10858 4019 c-22 -12 -24 -39 -3 -39 8 0 15 5 15 11 0 6 10 9 23 7
32 -4 23 -22 -14 -28 -40 -6 -58 -32 -40 -54 9 -11 29 -15 62 -14 l49 1 0 48
c0 69 -40 99 -92 68z m50 -85 c-9 -9 -21 -13 -27 -10 -20 13 -11 26 16 26 25
0 26 -1 11 -16z"/>
<path d="M10970 4026 c0 -3 12 -32 26 -66 23 -52 25 -65 15 -87 -13 -28 -9
-38 11 -30 10 4 54 92 85 175 3 6 -2 12 -12 12 -10 0 -23 -15 -32 -40 -9 -22
-19 -40 -22 -40 -3 0 -14 18 -23 40 -9 23 -23 40 -32 40 -9 0 -16 -2 -16 -4z"/>
<path d="M11347 4024 c-4 -4 -7 -34 -7 -66 0 -52 2 -58 20 -58 19 0 21 5 18
62 -3 57 -14 79 -31 62z"/>
<path d="M11432 4014 c-28 -19 -30 -74 -4 -97 22 -20 73 -22 90 -5 21 21 13
28 -30 26 -37 -3 -43 0 -46 18 -2 11 4 27 13 34 13 11 20 11 40 0 32 -17 43
-6 20 20 -22 24 -52 26 -83 4z"/>
<path d="M11721 4004 c-25 -32 -26 -52 -5 -82 18 -26 75 -30 94 -7 17 21 5 31
-22 18 -25 -11 -48 -7 -48 8 0 5 20 9 45 9 38 0 45 3 45 20 0 27 -35 60 -64
60 -15 0 -33 -11 -45 -26z m69 -14 c0 -5 -12 -10 -26 -10 -14 0 -23 4 -19 10
3 6 15 10 26 10 10 0 19 -4 19 -10z"/>
<path d="M11975 4014 c-21 -22 -15 -36 23 -54 17 -8 32 -21 32 -27 0 -16 -15
-16 -40 -1 -24 15 -37 4 -20 -17 16 -19 74 -20 90 0 18 22 5 44 -35 61 -45 18
-45 28 0 20 36 -7 44 1 23 22 -17 17 -54 15 -73 -4z"/>
<path d="M10520 3976 c0 -13 12 -16 56 -16 73 0 70 24 -4 28 -42 2 -52 0 -52
-12z"/>
<path d="M9945 3564 c-58 -21 -135 -82 -173 -138 -121 -181 -56 -423 143 -530
l40 -21 985 0 985 0 53 29 c67 38 126 102 160 174 23 49 27 70 27 147 0 77 -4
98 -27 147 -35 75 -94 138 -165 174 l-58 29 -965 2 c-816 1 -971 -1 -1005 -13z
m788 -269 c20 -18 20 -20 4 -23 -10 -2 -24 2 -32 8 -12 10 -15 9 -15 -6 0 -9
14 -29 32 -44 38 -32 34 -66 -10 -91 -28 -16 -31 -16 -61 8 -36 28 -40 43 -11
43 11 0 20 -4 20 -10 0 -5 5 -10 10 -10 19 0 11 48 -10 55 -33 10 -44 42 -25
71 8 13 22 24 30 24 8 0 15 5 15 10 0 11 12 3 53 -35z m138 15 c20 -11 26 -54
9 -65 -6 -4 -4 -16 6 -31 15 -22 15 -26 0 -49 -12 -18 -25 -25 -50 -25 -40 0
-77 33 -57 53 10 9 15 8 25 -5 7 -10 23 -18 35 -18 28 0 29 40 1 47 -11 3 -20
11 -20 18 0 7 9 15 20 18 11 3 20 10 20 16 0 17 -30 25 -43 12 -16 -16 -37
-14 -37 4 0 29 54 44 91 25z m184 -15 c51 -50 20 -155 -46 -155 -44 0 -66 15
-79 55 -30 92 61 165 125 100z m180 0 c51 -50 20 -155 -46 -155 -44 0 -66 15
-79 55 -30 92 61 165 125 100z"/>
<path d="M10666 3281 c-4 -7 -5 -15 -2 -18 9 -9 19 4 14 18 -4 11 -6 11 -12 0z"/>
<path d="M10690 3190 c0 -11 5 -20 10 -20 6 0 10 9 10 20 0 11 -4 20 -10 20
-5 0 -10 -9 -10 -20z"/>
<path d="M10972 3278 c-17 -17 -15 -83 2 -98 46 -37 96 32 62 85 -18 27 -45
32 -64 13z"/>
<path d="M11152 3278 c-17 -17 -15 -83 2 -98 46 -37 96 32 62 85 -18 27 -45
32 -64 13z"/>
<path d="M10122 2483 c450 -2 1186 -2 1635 0 450 1 82 2 -817 2 -899 0 -1267
-1 -818 -2z"/>
<path d="M9733 2100 c0 -36 2 -50 4 -32 2 17 2 47 0 65 -2 17 -4 3 -4 -33z"/>
<path d="M10301 2150 c-10 -5 -14 -24 -13 -56 3 -53 12 -75 12 -26 0 17 5 34
11 38 8 4 7 9 -2 15 -12 8 -12 11 1 18 18 12 9 23 -9 11z"/>
<path d="M11019 2138 c-15 -25 -14 -98 2 -98 5 0 9 16 9 35 0 21 5 35 13 35 9
0 9 2 -1 8 -7 5 -10 16 -6 25 9 24 -1 21 -17 -5z"/>
<path d="M11923 2100 c0 -36 2 -50 4 -32 2 17 2 47 0 65 -2 17 -4 3 -4 -33z"/>
<path d="M10381 2099 l-1 -56 38 1 c35 1 37 2 37 36 0 32 -3 35 -32 38 -20 2
-33 10 -36 20 -3 9 -5 -8 -6 -39z m64 -19 c0 -16 -6 -26 -18 -28 -19 -4 -32
20 -23 44 9 25 41 13 41 -16z"/>
<path d="M10672 2095 c0 -33 2 -52 5 -42 2 9 7 17 10 17 4 0 16 -8 27 -17 20
-18 20 -18 4 8 -15 24 -15 27 0 43 9 9 11 16 5 16 -6 0 -17 -7 -24 -17 -13
-15 -15 -13 -20 18 -5 26 -6 20 -7 -26z"/>
<path d="M11530 2136 c0 -9 -12 -16 -27 -18 -25 -3 -28 -7 -28 -38 0 -33 2
-35 38 -38 l37 -3 0 55 c0 31 -4 56 -10 56 -5 0 -10 -6 -10 -14z m-5 -56 c0
-16 -6 -26 -18 -28 -19 -4 -32 20 -23 44 9 25 41 13 41 -16z"/>
<path d="M11613 2095 c0 -33 2 -45 4 -27 2 18 2 45 0 60 -2 15 -4 0 -4 -33z"/>
<path d="M12002 2128 c-6 -6 -9 -16 -7 -22 2 -6 6 -23 9 -38 4 -18 13 -28 24
-27 10 0 12 3 5 6 -15 5 -18 60 -4 65 5 2 3 8 -4 15 -9 8 -16 8 -23 1z"/>
<path d="M9513 2080 c0 -25 2 -35 4 -22 2 12 2 32 0 45 -2 12 -4 2 -4 -23z"/>
<path d="M9551 2075 l2 -40 6 35 c9 50 41 55 41 6 0 -20 5 -36 10 -36 12 0 13
50 2 68 -5 6 -20 11 -35 10 -25 -2 -27 -6 -26 -43z"/>
<path d="M9638 2095 c-8 -19 -8 -28 2 -40 13 -16 46 -20 54 -7 3 5 -5 8 -17 8
-17 -1 -22 5 -22 24 0 19 5 25 22 24 12 0 20 3 17 8 -11 17 -45 7 -56 -17z"/>
<path d="M9760 2093 c0 -40 12 -53 43 -51 25 2 27 6 26 43 l-2 40 -6 -35 c-9
-50 -41 -55 -41 -6 0 20 -4 36 -10 36 -5 0 -10 -12 -10 -27z"/>
<path d="M9860 2101 c0 -11 9 -23 20 -26 31 -10 24 -28 -7 -20 -21 5 -25 4
-17 -5 14 -14 56 -9 62 7 2 7 -8 18 -22 24 -31 14 -35 34 -6 26 11 -3 18 -1
14 4 -10 17 -44 10 -44 -10z"/>
<path d="M9943 2080 c0 -25 2 -35 4 -22 2 12 2 32 0 45 -2 12 -4 2 -4 -23z"/>
<path d="M9974 2104 c3 -9 9 -27 12 -40 3 -13 10 -24 16 -24 11 0 42 70 34 77
-3 3 -11 -10 -19 -28 l-13 -34 -12 33 c-6 17 -14 32 -18 32 -3 0 -3 -7 0 -16z"/>
<path d="M10062 2108 c-25 -25 -6 -68 29 -68 10 0 20 4 23 8 3 5 -4 8 -16 8
-12 -1 -23 5 -25 12 -3 8 6 12 26 12 17 0 31 4 31 8 0 14 -23 32 -40 32 -9 0
-21 -5 -28 -12z m48 -8 c0 -5 -9 -10 -21 -10 -11 0 -17 5 -14 10 3 6 13 10 21
10 8 0 14 -4 14 -10z"/>
<path d="M10200 2106 c-6 -8 -10 -25 -8 -38 4 -32 52 -38 68 -9 22 43 -29 83
-60 47z m48 -24 c2 -13 -3 -25 -13 -28 -23 -9 -38 10 -30 36 9 27 39 22 43 -8z"/>
<path d="M10490 2106 c-6 -8 -10 -25 -8 -38 4 -32 52 -38 68 -9 22 43 -29 83
-60 47z m48 -24 c2 -13 -3 -25 -13 -28 -23 -9 -38 10 -30 36 9 27 39 22 43 -8z"/>
<path d="M10578 2095 c-14 -30 3 -55 38 -55 17 0 25 7 30 25 13 51 -46 77 -68
30z m56 0 c8 -21 -3 -45 -20 -45 -18 0 -28 24 -20 45 3 8 12 15 20 15 7 0 16
-7 20 -15z"/>
<path d="M10750 2080 c0 -22 5 -40 10 -40 6 0 10 18 10 40 0 22 -4 40 -10 40
-5 0 -10 -18 -10 -40z"/>
<path d="M10791 2076 c1 -42 3 -41 13 7 4 15 13 27 21 27 8 0 17 -12 21 -27
10 -47 13 -50 11 -8 -2 38 -4 40 -34 41 -32 1 -33 0 -32 -40z"/>
<path d="M10887 2113 c-2 -5 -5 -29 -6 -55 -1 -39 2 -48 19 -53 21 -7 50 9 50
26 0 5 -12 15 -27 21 -26 11 -26 12 -7 15 14 3 24 13 27 29 4 21 1 24 -24 24
-15 0 -30 -3 -32 -7z m43 -18 c0 -8 -6 -15 -14 -15 -17 0 -28 14 -19 24 12 12
33 6 33 -9z m0 -63 c0 -14 -11 -21 -26 -15 -21 8 -17 23 6 23 11 0 20 -4 20
-8z"/>
<path d="M11072 2108 c-25 -25 -6 -68 29 -68 10 0 20 4 23 8 3 5 -4 8 -16 8
-12 -1 -23 5 -25 12 -3 8 6 12 26 12 17 0 31 4 31 8 0 14 -23 32 -40 32 -9 0
-21 -5 -28 -12z m48 -8 c0 -5 -9 -10 -21 -10 -11 0 -17 5 -14 10 3 6 13 10 21
10 8 0 14 -4 14 -10z"/>
<path d="M11162 2108 c-25 -25 -6 -68 29 -68 10 0 20 4 23 8 3 5 -4 8 -16 8
-12 -1 -23 5 -25 12 -3 8 6 12 26 12 17 0 31 4 31 8 0 14 -23 32 -40 32 -9 0
-21 -5 -28 -12z m48 -8 c0 -5 -9 -10 -21 -10 -11 0 -17 5 -14 10 3 6 13 10 21
10 8 0 14 -4 14 -10z"/>
<path d="M11297 2113 c-2 -5 -4 -22 -5 -40 -2 -31 -1 -32 33 -31 38 1 45 20
25 59 -10 19 -45 26 -53 12z m38 -13 c3 -5 -3 -10 -15 -10 -12 0 -18 5 -15 10
3 6 10 10 15 10 5 0 12 -4 15 -10z m5 -30 c0 -12 -28 -25 -36 -17 -9 9 6 27
22 27 8 0 14 -5 14 -10z"/>
<path d="M11381 2075 l2 -40 6 35 c9 50 41 55 41 6 0 -20 5 -36 10 -36 12 0
13 50 2 68 -5 6 -20 11 -35 10 -25 -2 -27 -6 -26 -43z"/>
<path d="M11648 2095 c-14 -30 3 -55 38 -55 17 0 25 7 30 25 13 51 -46 77 -68
30z m56 0 c8 -21 -3 -45 -20 -45 -18 0 -28 24 -20 45 3 8 12 15 20 15 7 0 16
-7 20 -15z"/>
<path d="M11751 2106 c-7 -8 -11 -25 -9 -38 2 -18 9 -23 32 -23 17 0 31 6 34
15 5 13 3 13 -11 1 -32 -26 -60 4 -37 39 8 13 13 13 31 2 18 -11 20 -11 17 0
-6 19 -43 22 -57 4z"/>
<path d="M11837 2113 c-4 -3 -7 -11 -7 -17 0 -6 5 -5 12 2 14 14 38 16 38 3 0
-5 -12 -12 -26 -15 -37 -10 -28 -40 14 -44 28 -3 32 0 32 22 0 39 -10 56 -34
56 -13 0 -26 -3 -29 -7z m43 -42 c0 -14 -18 -23 -30 -16 -6 4 -8 11 -5 16 8
12 35 12 35 0z"/>
<path d="M12067 2113 c-2 -5 -4 -22 -5 -40 -2 -31 -1 -32 33 -31 38 1 45 20
25 59 -10 19 -45 26 -53 12z m38 -13 c3 -5 -3 -10 -15 -10 -12 0 -18 5 -15 10
3 6 10 10 15 10 5 0 12 -4 15 -10z m5 -30 c0 -12 -28 -25 -36 -17 -9 9 6 27
22 27 8 0 14 -5 14 -10z"/>
<path d="M12149 2103 c9 -18 9 -28 0 -45 -12 -22 -11 -23 8 -5 18 16 21 16 26
2 4 -8 11 -15 17 -15 6 0 5 7 -2 20 -10 16 -10 24 0 40 7 13 8 20 2 20 -6 0
-13 -7 -17 -15 -5 -14 -8 -14 -26 2 -19 18 -20 17 -8 -4z"/>
<path d="M12232 2108 c-25 -25 -6 -68 29 -68 10 0 21 5 24 10 4 7 -2 9 -19 4
-20 -5 -26 -2 -26 10 0 11 9 16 30 16 17 0 30 4 30 8 0 14 -23 32 -40 32 -9 0
-21 -5 -28 -12z m43 -8 c3 -5 -3 -10 -14 -10 -12 0 -21 5 -21 10 0 6 6 10 14
10 8 0 18 -4 21 -10z"/>
<path d="M12320 2101 c0 -11 9 -23 20 -26 31 -10 24 -28 -7 -20 -21 5 -25 4
-17 -5 14 -14 56 -9 62 7 2 7 -8 18 -22 24 -31 14 -35 34 -6 26 11 -3 18 -1
14 4 -10 17 -44 10 -44 -10z"/>
<path d="M870 910 c0 -16 5 -21 23 -18 12 2 22 10 22 18 0 8 -10 16 -22 18
-18 3 -23 -2 -23 -18z"/>
<path d="M1050 910 c0 -16 5 -21 23 -18 12 2 22 10 22 18 0 8 -10 16 -22 18
-18 3 -23 -2 -23 -18z"/>
<path d="M1252 918 c-7 -7 -12 -21 -12 -33 0 -46 53 -62 71 -21 21 45 -26 87
-59 54z"/>
<path d="M1497 906 c-11 -27 -8 -36 8 -36 16 0 17 5 6 34 -7 18 -8 18 -14 2z"/>
<path d="M1730 913 c0 -6 -3 -18 -6 -27 -4 -11 -1 -16 10 -16 9 0 16 6 16 13
0 16 -20 46 -20 30z"/>
<path d="M2240 913 c0 -6 -3 -18 -6 -27 -4 -11 -1 -16 10 -16 9 0 16 6 16 13
0 16 -20 46 -20 30z"/>
<path d="M3240 913 c0 -6 -3 -18 -6 -27 -4 -11 -1 -16 10 -16 9 0 16 6 16 13
0 16 -20 46 -20 30z"/>
<path d="M3446 894 c-9 -22 -8 -24 9 -24 8 0 15 6 15 14 0 22 -17 28 -24 10z"/>
<path d="M3680 913 c0 -6 -3 -18 -6 -27 -4 -11 -1 -16 10 -16 9 0 16 6 16 13
0 16 -20 46 -20 30z"/>
<path d="M3762 913 c4 -20 18 -26 37 -14 18 12 5 31 -20 31 -14 0 -19 -6 -17
-17z"/>
<path d="M3760 859 c0 -15 5 -20 22 -17 34 5 37 38 4 38 -20 0 -26 -5 -26 -21z"/>
<path d="M4100 913 c0 -6 -3 -18 -6 -27 -4 -11 -1 -16 10 -16 9 0 16 6 16 13
0 16 -20 46 -20 30z"/>
<path d="M4337 906 c-11 -27 -8 -36 8 -36 16 0 17 5 6 34 -7 18 -8 18 -14 2z"/>
<path d="M4460 885 c0 -38 3 -45 19 -45 21 0 51 25 51 41 0 25 -23 49 -45 49
-23 0 -25 -4 -25 -45z"/>
<path d="M4832 918 c-7 -7 -12 -21 -12 -33 0 -46 53 -62 71 -21 21 45 -26 87
-59 54z"/>
<path d="M5340 885 c0 -32 4 -45 14 -45 33 0 46 13 46 45 0 32 -13 45 -46 45
-10 0 -14 -13 -14 -45z"/>
<path d="M5490 910 c0 -16 5 -21 23 -18 12 2 22 10 22 18 0 8 -10 16 -22 18
-18 3 -23 -2 -23 -18z"/>
<path d="M5590 910 c0 -13 7 -20 20 -20 13 0 20 7 20 20 0 13 -7 20 -20 20
-13 0 -20 -7 -20 -20z"/>
</g>
</svg>
