<?xml version="1.0" standalone="no"?>
<!DOCTYPE svg PUBLIC "-//W3C//DTD SVG 20010904//EN"
 "http://www.w3.org/TR/2001/REC-SVG-20010904/DTD/svg10.dtd">
<svg version="1.0" xmlns="http://www.w3.org/2000/svg"
 width="1366.000000pt" height="768.000000pt" viewBox="0 0 1366.000000 768.000000"
 preserveAspectRatio="xMidYMid meet">

<g transform="translate(0.000000,768.000000) scale(0.100000,-0.100000)"
fill="#000000" stroke="none">
<path d="M0 3840 l0 -3840 6830 0 6830 0 0 3840 0 3840 -6830 0 -6830 0 0
-3840z m1660 2613 l1 -108 47 53 c30 33 55 52 70 52 12 0 22 -3 22 -7 0 -4
-21 -29 -47 -55 l-47 -48 24 -27 c14 -16 40 -45 59 -65 l35 -38 -29 1 c-24 0
-41 13 -80 58 l-50 59 -3 -59 c-3 -51 -6 -59 -22 -59 -19 0 -20 8 -20 175 0
168 1 175 20 175 19 0 20 -7 20 -107z m558 33 c3 -66 4 -68 22 -51 22 20 78
22 109 5 32 -16 41 -50 41 -146 0 -76 -2 -84 -19 -84 -17 0 -19 9 -23 91 -2
76 -6 93 -22 105 -27 19 -49 18 -80 -7 -24 -19 -26 -26 -26 -105 0 -83 0 -84
-25 -84 l-25 0 0 168 c0 93 3 172 7 176 4 4 14 5 23 4 11 -3 16 -19 18 -72z
m1142 59 c17 -20 5 -45 -20 -45 -11 0 -23 7 -26 15 -6 15 11 45 26 45 4 0 13
-7 20 -15z m110 -160 c0 -168 -1 -175 -20 -175 -19 0 -20 7 -20 175 0 168 1
175 20 175 19 0 20 -7 20 -175z m300 0 c0 -168 -1 -175 -20 -175 -11 0 -20 7
-20 15 0 11 -7 10 -35 -6 -97 -57 -202 46 -160 157 9 23 27 50 41 59 33 21 97
22 129 1 l25 -16 0 70 c0 63 2 70 20 70 19 0 20 -7 20 -175z m-2825 151 c64
-27 76 -106 24 -159 l-31 -31 31 -63 c17 -35 31 -66 31 -68 0 -3 -11 -5 -24
-5 -19 0 -29 12 -55 70 -30 67 -32 70 -66 70 l-35 0 0 -70 c0 -63 -2 -70 -20
-70 -19 0 -20 7 -20 170 l0 170 65 0 c36 0 81 -6 100 -14z m1930 2 c2 -7 19
-71 37 -142 l34 -129 41 139 c37 128 42 139 64 139 22 0 26 -9 52 -100 15 -55
32 -118 39 -140 l11 -40 36 140 c33 128 38 140 60 143 19 3 23 0 19 -15 -88
-319 -90 -324 -116 -321 -23 3 -28 13 -59 118 -18 63 -36 122 -39 130 -6 14
-20 -29 -70 -197 -13 -45 -19 -53 -39 -53 -14 0 -26 7 -29 18 -13 41 -86 312
-86 317 0 11 41 4 45 -7z m1314 -2 c28 -15 61 -56 61 -76 0 -5 -11 -10 -25
-10 -15 0 -25 6 -25 14 0 25 -42 46 -90 46 -74 -1 -110 -43 -110 -129 0 -67
13 -97 52 -121 52 -31 95 -26 134 15 35 37 64 46 64 19 0 -31 -63 -82 -112
-89 -123 -19 -216 100 -178 228 14 48 32 72 75 98 36 23 114 25 154 5z m-2131
-59 c3 -24 8 -27 38 -27 28 0 35 -4 32 -17 -2 -12 -14 -19 -36 -21 l-32 -3 0
-80 0 -79 30 0 c23 0 30 -4 30 -20 0 -16 -7 -20 -33 -20 -60 0 -72 18 -76 114
-3 77 -5 86 -22 86 -12 0 -19 7 -19 20 0 13 7 20 20 20 15 0 22 9 27 30 7 39
37 37 41 -3z m-795 -67 c22 -25 27 -40 27 -80 0 -43 -5 -56 -33 -87 -29 -31
-40 -36 -80 -37 -56 -1 -96 25 -116 77 -50 131 108 230 202 127z m280 9 c38
-47 7 -68 -37 -24 -28 28 -43 30 -80 14 -32 -15 -50 -59 -42 -104 12 -64 82
-86 126 -40 28 30 50 32 50 6 0 -49 -95 -84 -152 -57 -70 33 -92 136 -42 195
44 53 138 58 177 10z m1075 18 c28 -13 52 -56 52 -92 l0 -25 -96 0 c-94 0 -95
0 -89 -22 16 -54 85 -76 120 -38 18 19 55 28 55 12 0 -20 -33 -52 -65 -62 -47
-15 -86 -5 -121 31 -25 26 -29 38 -29 89 0 48 4 63 24 84 40 42 93 50 149 23z
m1879 -8 c8 -7 21 -25 29 -40 64 -124 -96 -248 -191 -149 -48 50 -43 146 9
190 36 29 116 29 153 -1z m-1137 -99 c0 -113 -1 -120 -20 -120 -19 0 -20 7
-20 120 0 113 1 120 20 120 19 0 20 -7 20 -120z m1273 -82 c7 -21 -4 -38 -23
-38 -23 0 -34 16 -26 35 7 18 43 20 49 3z m-2893 -312 c34 7 50 -15 50 -70 0
-51 -18 -45 -22 6 -2 33 -8 44 -22 46 -24 5 -36 -14 -36 -55 0 -18 -4 -33 -10
-33 -12 0 -14 143 -2 154 4 4 8 -6 10 -23 3 -27 6 -30 32 -25z m-922 -34 c2
-60 0 -72 -13 -72 -12 0 -15 13 -15 66 0 41 -4 63 -10 59 -5 -3 -10 -2 -10 4
0 11 20 21 35 17 6 -1 11 -35 13 -74z m110 66 c20 -20 14 -45 -19 -83 l-31
-35 31 0 c17 0 31 -4 31 -10 0 -5 -23 -10 -51 -10 l-52 0 42 45 c23 25 41 54
39 63 -4 22 -46 28 -54 8 -3 -9 -10 -13 -15 -10 -5 3 -5 13 1 25 12 22 59 26
78 7z m123 -4 c9 -11 10 -20 2 -32 -7 -13 -6 -23 4 -39 11 -17 12 -27 3 -42
-14 -28 -75 -29 -89 -2 -15 26 -3 33 20 10 10 -10 25 -16 34 -13 22 9 19 45
-5 51 -11 3 -20 9 -20 13 0 4 9 10 20 13 29 7 26 37 -4 37 -13 0 -26 -6 -29
-12 -2 -7 -8 -10 -12 -6 -12 12 15 38 40 38 12 0 28 -7 36 -16z m191 -59 c15
-41 23 -75 18 -75 -5 0 -14 9 -20 20 -7 13 -21 20 -40 20 -20 0 -31 -6 -35
-20 -3 -11 -11 -20 -17 -20 -5 0 -8 6 -5 13 2 6 14 40 27 75 12 34 28 62 34
62 6 0 23 -34 38 -75z m1035 60 c3 -9 2 -19 -2 -23 -4 -4 -10 -1 -12 6 -6 17
-53 15 -53 -2 0 -8 17 -23 38 -33 58 -28 53 -83 -9 -83 -30 0 -63 26 -53 42 4
5 14 1 25 -11 23 -24 30 -26 47 -9 19 19 15 26 -28 48 -41 21 -51 45 -28 68
17 17 67 15 75 -3z m341 -37 c31 -83 34 -98 23 -98 -5 0 -13 9 -16 20 -5 14
-15 20 -37 20 -21 0 -31 -6 -35 -20 -3 -11 -11 -20 -18 -20 -9 0 -6 19 12 67
38 104 43 106 71 31z m467 32 c10 -11 15 -23 11 -28 -4 -4 -13 1 -20 11 -15
20 -56 23 -74 5 -13 -13 -16 -56 -6 -82 7 -19 70 -22 76 -4 2 6 10 9 17 7 25
-9 -18 -39 -53 -39 -42 0 -70 30 -70 75 0 19 8 43 19 55 24 26 76 27 100 0z
m65 10 c0 -5 -7 -10 -15 -10 -8 0 -15 5 -15 10 0 6 7 10 15 10 8 0 15 -4 15
-10z m370 -10 c12 -23 8 -25 -19 -8 -19 12 -51 5 -51 -11 0 -5 17 -18 38 -28
39 -19 51 -45 32 -68 -25 -30 -90 -13 -90 24 0 11 5 9 20 -7 23 -24 29 -26 49
-13 21 14 6 39 -34 55 -36 16 -46 41 -23 64 19 19 66 15 78 -8z m130 10 c0 -5
-9 -10 -20 -10 -18 0 -20 -7 -20 -65 0 -37 -4 -65 -10 -65 -6 0 -10 28 -10 65
0 58 -2 65 -20 65 -11 0 -20 5 -20 10 0 6 23 10 50 10 28 0 50 -4 50 -10z
m120 -65 c0 -43 -4 -75 -10 -75 -6 0 -10 28 -10 65 0 36 -3 64 -7 64 -20 -3
-26 2 -13 11 34 22 40 12 40 -65z m108 63 c19 -19 14 -48 -14 -85 l-25 -33 25
0 c14 0 28 -4 31 -10 4 -6 -15 -10 -51 -10 l-57 0 42 45 c46 50 54 85 20 85
-12 0 -28 -8 -35 -17 -11 -15 -13 -16 -14 -2 0 21 20 39 45 39 12 0 26 -5 33
-12z m123 -4 c9 -11 10 -20 2 -32 -7 -13 -6 -23 4 -39 11 -17 12 -27 3 -42
-14 -28 -75 -29 -89 -2 -15 26 -3 33 20 10 10 -10 25 -16 34 -13 22 9 19 45
-5 51 -11 3 -20 9 -20 13 0 4 9 10 20 13 29 7 26 37 -4 37 -13 0 -26 -6 -29
-12 -2 -7 -8 -10 -12 -6 -12 12 15 38 40 38 12 0 28 -7 36 -16z m129 -33 c0
-30 5 -52 13 -55 10 -5 10 -7 0 -12 -7 -3 -13 -12 -13 -20 0 -8 -4 -14 -10
-14 -5 0 -10 7 -10 15 0 10 -11 15 -35 15 -21 0 -35 5 -35 13 1 17 68 107 80
107 6 0 10 -22 10 -49z m135 39 c-3 -5 -19 -10 -36 -10 -19 0 -29 -5 -29 -15
0 -9 9 -15 24 -15 28 0 56 -24 56 -47 0 -44 -73 -71 -100 -38 -19 23 -5 29 23
10 23 -15 26 -15 41 0 20 20 20 29 0 49 -11 12 -20 13 -34 6 -31 -16 -36 -12
-32 30 l4 40 45 0 c27 0 42 -4 38 -10z m-1925 -20 c0 -5 7 -10 15 -10 8 0 15
-4 15 -10 0 -5 -7 -10 -15 -10 -10 0 -15 -11 -15 -35 0 -24 5 -35 15 -35 8 0
15 -5 15 -11 0 -6 -10 -9 -22 -7 -19 2 -24 10 -26 46 -2 23 -7 42 -13 42 -5 0
-4 9 3 20 14 21 28 27 28 10z m885 -15 c19 -8 19 -9 -2 -12 -18 -3 -23 -11
-23 -33 0 -17 7 -33 17 -39 10 -5 14 -13 10 -17 -16 -17 -42 14 -48 57 -6 42
7 81 20 61 3 -5 15 -12 26 -17z m-1856 -4 c17 -11 28 -101 12 -101 -6 0 -11
10 -11 23 0 46 -12 68 -34 65 -17 -2 -22 -11 -24 -45 -4 -61 -22 -53 -22 10 0
52 0 52 33 54 17 1 38 -1 46 -6z m69 -32 l18 -41 18 41 c16 35 36 55 36 35 0
-17 -73 -157 -77 -147 -2 7 0 20 5 30 7 12 6 26 -4 45 -26 50 -34 78 -23 78 5
0 18 -19 27 -41z m102 32 c0 -5 5 -22 11 -38 l11 -28 11 34 c16 45 33 50 42
12 8 -39 22 -40 30 -1 4 17 11 30 16 30 12 0 11 -6 -5 -59 -17 -59 -32 -62
-48 -9 l-13 42 -10 -39 c-16 -54 -30 -54 -49 1 -19 55 -20 64 -6 64 6 0 10 -4
10 -9z m354 -7 c28 -28 20 -44 -24 -44 -42 0 -50 -9 -25 -30 12 -10 19 -10 27
-2 7 7 18 12 26 12 12 0 12 -3 2 -15 -15 -18 -61 -20 -78 -3 -30 30 -3 98 38
98 10 0 26 -7 34 -16z m72 7 c24 19 27 2 5 -20 -12 -12 -21 -34 -21 -51 0 -16
-4 -30 -10 -30 -11 0 -14 93 -3 104 4 4 9 2 11 -4 3 -8 8 -7 18 1z m128 -7
c28 -28 20 -44 -24 -44 -42 0 -50 -9 -25 -30 12 -10 19 -10 27 -2 7 7 18 12
26 12 12 0 12 -3 2 -15 -15 -18 -61 -20 -78 -3 -30 30 -3 98 38 98 10 0 26 -7
34 -16z m666 -4 c13 -24 13 -90 1 -90 -6 0 -11 19 -13 42 -2 33 -8 44 -22 46
-24 5 -36 -14 -36 -55 0 -18 -4 -33 -10 -33 -5 0 -10 24 -10 53 l0 53 40 1
c30 2 42 -3 50 -17z m60 -20 c15 -36 28 -38 36 -5 6 24 34 56 34 39 0 -17 -64
-154 -72 -154 -11 0 -10 21 1 39 6 9 2 30 -10 58 -10 25 -19 49 -19 54 0 18
17 0 30 -31z m330 -21 c0 -27 -4 -49 -10 -49 -5 0 -10 25 -10 56 0 34 4 53 10
49 6 -3 10 -28 10 -56z m130 26 c6 -19 15 -35 19 -35 4 0 15 17 26 38 10 20
20 31 22 25 6 -15 -56 -153 -68 -153 -12 0 -11 4 2 33 9 19 7 32 -10 65 -23
45 -26 62 -12 62 5 0 15 -16 21 -35z m-870 -65 c0 -5 -4 -10 -10 -10 -5 0 -10
5 -10 10 0 6 5 10 10 10 6 0 10 -4 10 -10z m36 -6 c-3 -9 -6 -18 -6 -20 0 -2
-4 -4 -9 -4 -5 0 -7 9 -4 20 3 11 10 20 15 20 6 0 7 -7 4 -16z m7087 -639 c-7
-21 -13 -19 -13 6 0 11 4 18 10 14 5 -3 7 -12 3 -20z m87 11 c0 -3 -4 -8 -10
-11 -5 -3 -10 -1 -10 4 0 6 5 11 10 11 6 0 10 -2 10 -4z m442 -116 c20 -21 20
-57 0 -65 -8 -3 -12 -11 -9 -18 2 -6 0 -23 -6 -37 -5 -14 -9 -34 -8 -44 2 -10
-3 -30 -11 -44 -10 -19 -10 -26 -1 -29 9 -3 9 -12 2 -29 -12 -32 -11 -43 1
-24 7 11 8 6 4 -17 -5 -25 0 -40 22 -71 l29 -40 83 2 c46 1 86 -3 89 -8 4 -5
0 -6 -7 -1 -9 5 -11 4 -6 -3 4 -7 15 -8 29 -3 26 10 57 -3 57 -24 0 -18 21
-24 44 -13 13 7 16 7 11 -1 -8 -13 104 38 123 57 7 6 22 12 31 12 10 0 24 6
30 14 7 8 23 13 37 11 13 -1 27 2 30 6 3 5 12 2 20 -6 9 -8 20 -13 25 -10 5 4
9 1 9 -4 0 -6 16 -11 35 -11 19 0 35 -5 35 -11 0 -5 -6 -7 -12 -3 -10 6 -10 4
0 -7 6 -7 12 -17 12 -22 0 -4 -6 -5 -12 -1 -7 4 -5 -2 5 -13 18 -21 24 -48 7
-38 -5 3 -10 0 -10 -7 0 -9 -3 -9 -10 2 -7 12 -9 10 -7 -8 1 -14 5 -18 11 -12
16 16 39 12 32 -6 -3 -8 -1 -25 5 -36 8 -16 8 -23 -2 -29 -8 -5 -9 -9 -4 -9 6
0 2 -5 -8 -11 -18 -10 -18 -12 -1 -30 9 -10 25 -19 36 -19 15 0 16 -3 7 -17
-18 -30 -53 -51 -93 -57 -21 -4 -42 -8 -46 -11 -14 -9 -86 -17 -137 -15 -36 1
-53 -3 -53 -11 0 -14 -214 -7 -267 9 -22 7 -38 6 -56 -3 -15 -8 -30 -9 -38 -4
-18 11 -149 12 -149 1 0 -5 7 -17 15 -28 21 -28 19 -31 -21 -39 -38 -7 -56
-20 -63 -45 -9 -31 -8 -115 2 -127 6 -9 5 -13 -4 -13 -11 -1 -10 -3 2 -13 20
-15 14 -34 -14 -49 -19 -10 -20 -9 -9 4 10 12 10 18 1 23 -12 8 -29 -11 -29
-33 0 -7 7 -15 15 -18 8 -4 15 -16 15 -28 0 -12 5 -27 11 -33 8 -8 5 -13 -10
-18 -12 -3 -21 -12 -21 -19 0 -22 -96 -3 -125 24 -14 13 -25 28 -24 34 3 27
-3 36 -23 35 -13 0 -17 -3 -10 -6 6 -2 12 -11 12 -19 0 -9 -4 -12 -10 -9 -5 3
-10 0 -10 -8 0 -9 -9 -12 -28 -9 -17 2 -35 -2 -43 -11 -8 -7 -26 -19 -39 -26
l-25 -12 23 20 c32 28 28 50 -13 67 -19 8 -34 18 -33 22 1 4 -1 17 -6 30 -9
28 -42 29 -51 0 -8 -23 -63 -88 -76 -88 -5 0 3 11 16 25 25 25 32 45 16 45 -5
0 -16 3 -24 6 -9 3 -25 -4 -36 -15 -21 -21 -21 -21 -21 -1 0 11 5 20 10 20 6
0 10 5 10 10 0 22 -31 8 -41 -17 -7 -18 -13 -23 -16 -15 -3 8 0 19 6 25 17 17
13 27 -9 27 -11 0 -20 7 -20 15 0 8 -7 15 -16 15 -13 0 -15 -6 -9 -27 4 -16 4
-25 0 -21 -4 3 -19 2 -35 -2 -21 -6 -32 -4 -41 6 -28 33 -90 2 -83 -42 3 -21
3 -21 -30 -5 -19 9 -32 19 -29 24 2 4 -3 7 -12 7 -8 0 -18 -7 -21 -15 -5 -12
-10 -13 -20 -4 -7 6 -18 8 -24 4 -6 -3 -10 3 -10 14 0 16 -6 21 -25 21 -16 0
-25 6 -25 15 0 10 -10 15 -30 15 -16 0 -30 5 -30 10 0 6 -7 10 -16 10 -8 0
-13 4 -10 9 7 11 -22 23 -35 15 -5 -3 -9 -2 -9 3 0 4 -14 14 -31 22 -38 17
-99 71 -99 89 0 7 -7 15 -15 18 -8 4 -12 10 -9 15 3 5 1 9 -5 9 -6 0 -13 11
-17 25 -7 29 -29 33 -43 8 -9 -17 -11 -17 -24 1 -16 22 -56 23 -146 6 -103
-19 -201 -10 -161 15 15 9 -5 32 -35 39 -13 3 -29 15 -35 25 -6 11 -33 26 -63
35 -53 15 -97 52 -97 81 0 8 -4 15 -9 15 -4 0 -7 10 -6 23 1 12 3 28 4 35 0 6
4 11 9 11 23 -4 62 2 58 9 -7 11 22 72 34 72 6 0 8 5 5 10 -3 6 1 10 9 10 9 0
16 4 16 8 0 5 11 14 23 19 19 9 33 7 63 -6 40 -19 150 -90 218 -141 21 -17 43
-30 47 -30 16 0 10 26 -11 50 -11 13 -20 27 -20 32 0 7 48 13 73 9 4 0 7 4 7
10 0 5 3 8 8 6 10 -7 62 49 54 58 -4 5 -2 5 4 2 6 -4 19 2 29 13 24 27 36 25
80 -10 29 -23 41 -28 51 -19 8 6 14 8 14 4 0 -5 9 0 21 11 20 18 22 18 34 1
14 -20 29 -23 20 -4 -4 6 0 4 8 -6 14 -17 15 -17 21 0 4 11 1 22 -8 29 -9 6
-12 14 -8 18 4 4 7 12 7 18 0 18 48 20 57 3 10 -17 39 -20 54 -5 7 7 17 3 30
-11 17 -21 18 -22 1 -16 -11 4 -16 3 -12 -3 3 -6 10 -10 14 -10 11 0 79 83 83
101 2 8 5 16 8 19 3 3 30 46 60 97 30 51 56 90 58 88 3 -2 -21 -47 -52 -100
-61 -105 -69 -126 -30 -80 24 27 23 24 -6 -30 -18 -33 -38 -66 -43 -73 -8 -10
-7 -16 3 -22 13 -8 45 -2 36 7 -3 3 1 11 7 18 10 10 15 9 25 -6 12 -18 14 -18
30 -3 11 11 17 13 20 5 2 -6 8 -8 14 -5 6 4 24 7 39 6 16 0 48 10 71 24 60 33
79 42 109 48 15 3 36 16 48 28 94 100 111 121 111 136 0 10 8 18 18 19 74 5
148 16 150 24 2 4 20 11 40 15 36 7 65 26 57 38 -3 3 -2 4 1 2 12 -9 64 16 57
27 -4 7 0 7 9 -1 11 -9 17 -9 20 -2 2 6 11 8 21 5 9 -4 14 -12 10 -19 -3 -6 6
1 21 15 29 30 58 29 88 -1z m-2082 -450 c0 -5 -4 -10 -10 -10 -5 0 -10 5 -10
10 0 6 5 10 10 10 6 0 10 -4 10 -10z m2920 -20 c0 -5 -4 -10 -10 -10 -5 0 -10
5 -10 10 0 6 5 10 10 10 6 0 10 -4 10 -10z m-4285 -99 c-3 -6 -11 -11 -16 -11
-5 0 -4 6 3 14 14 16 24 13 13 -3z m6203 -2 c-11 -8 -11 -10 0 -18 10 -6 8
-10 -8 -14 -12 -3 -19 -10 -16 -15 3 -5 -3 -12 -14 -15 -22 -6 -28 11 -6 19 8
3 16 18 20 34 4 22 10 28 22 23 13 -5 13 -7 2 -14z m-65 -30 c-6 -6 -9 -18 -6
-25 3 -8 -1 -14 -11 -14 -9 0 -16 3 -16 7 0 8 31 43 39 43 3 0 0 -5 -6 -11z
m-11678 -9 c3 -5 1 -10 -4 -10 -6 0 -11 5 -11 10 0 6 2 10 4 10 3 0 8 -4 11
-10z m420 0 c3 -5 1 -10 -4 -10 -6 0 -11 5 -11 10 0 6 2 10 4 10 3 0 8 -4 11
-10z m425 -35 c22 0 25 -5 28 -37 2 -22 -1 -38 -7 -38 -6 0 -11 16 -11 35 0
52 -32 41 -43 -15 -2 -14 -4 4 -4 40 -1 37 2 54 6 40 4 -18 13 -25 31 -25z
m160 -15 c0 -33 -4 -60 -10 -60 -11 0 -14 103 -3 113 12 12 13 8 13 -53z m287
-32 c-2 -18 -4 -4 -4 32 0 36 2 50 4 33 2 -18 2 -48 0 -65z m238 82 c3 -5 1
-10 -4 -10 -6 0 -11 5 -11 10 0 6 2 10 4 10 3 0 8 -4 11 -10z m144 -47 c7 10
18 17 24 17 5 0 3 -8 -6 -18 -15 -16 -15 -20 -1 -40 17 -25 3 -30 -17 -6 -12
14 -14 14 -20 -3 -4 -10 -7 10 -7 47 1 53 2 58 7 26 5 -35 7 -38 20 -23z m623
15 c24 6 38 -12 38 -50 0 -39 -18 -35 -22 5 -2 20 -8 32 -18 32 -10 0 -16 -12
-18 -32 -5 -53 -22 -37 -22 20 0 56 13 87 18 44 2 -20 7 -24 24 -19z m3173 32
c3 -5 1 -10 -4 -10 -6 0 -11 5 -11 10 0 6 2 10 4 10 3 0 8 -4 11 -10z m-5723
-7 c-40 -5 -41 -33 -2 -44 l25 -7 -27 -1 c-21 -1 -28 -7 -31 -28 -2 -16 -5 -2
-6 30 l-1 57 38 -2 37 -1 -33 -4z m1734 -18 c9 -8 11 -15 5 -15 -15 0 -14 -57
2 -64 6 -3 3 -5 -8 -3 -14 2 -22 12 -25 37 -6 34 -3 60 7 60 2 0 11 -7 19 -15z
m372 -5 c15 -1 15 -2 0 -11 -10 -5 -18 -19 -18 -29 0 -10 8 -24 18 -30 15 -10
15 -10 -3 -8 -14 2 -21 12 -23 36 -2 17 -8 32 -13 32 -5 0 -4 6 3 14 7 8 15
10 16 5 2 -5 11 -9 20 -9z m9762 4 c0 -9 -5 -14 -12 -12 -18 6 -21 28 -4 28 9
0 16 -7 16 -16z m17 -6 c-3 -8 -6 -5 -6 6 -1 11 2 17 5 13 3 -3 4 -12 1 -19z
m-11777 -13 c26 -32 -13 -81 -47 -59 -35 22 -23 74 17 74 10 0 23 -7 30 -15z
m57 -3 c-8 -9 -17 -28 -20 -42 -3 -17 -5 -12 -6 15 -1 35 2 41 20 42 19 2 20
0 6 -15z m80 -44 c-2 -13 -4 -3 -4 22 0 25 2 35 4 23 2 -13 2 -33 0 -45z m101
20 c2 -22 -1 -38 -7 -38 -6 0 -11 16 -11 35 0 43 -27 49 -36 8 -10 -48 -12
-49 -13 -7 -1 40 0 41 32 40 30 -1 32 -4 35 -38z m102 -19 c0 -37 -4 -58 -10
-54 -5 3 -10 13 -10 21 0 8 -10 14 -25 14 -31 0 -50 32 -35 60 8 14 21 20 45
20 l35 0 0 -61z m34 19 c4 -16 13 -28 21 -28 8 0 17 12 21 28 10 47 12 48 13
6 1 -40 0 -41 -31 -40 -31 1 -33 3 -35 41 -2 42 1 39 11 -7z m96 2 c0 -22 -4
-40 -10 -40 -5 0 -10 18 -10 40 0 22 5 40 10 40 6 0 10 -18 10 -40z m47 22
c-8 -9 -17 -28 -20 -42 -3 -17 -5 -12 -6 15 -1 35 2 41 20 42 19 2 20 0 6 -15z
m40 -44 c-2 -13 -4 -3 -4 22 0 25 2 35 4 23 2 -13 2 -33 0 -45z m91 50 c20
-20 14 -28 -19 -28 -20 0 -29 -4 -26 -12 2 -7 14 -13 26 -12 11 0 21 -3 21 -8
0 -12 -44 -10 -58 4 -24 24 -7 68 28 68 9 0 21 -5 28 -12z m82 1 c0 -6 -9 -8
-20 -4 -27 9 -25 -8 3 -20 33 -15 28 -40 -7 -40 -17 0 -31 6 -34 15 -4 12 -2
13 9 3 15 -15 39 -17 39 -5 0 5 -11 14 -25 20 -16 7 -23 17 -19 27 7 17 54 21
54 4z m115 -16 l8 -28 6 24 c9 35 27 37 36 4 l7 -28 13 30 c16 35 20 10 5 -29
-11 -31 -30 -34 -30 -7 0 30 -17 34 -24 6 -8 -32 -22 -32 -30 -1 -3 13 -9 31
-12 40 -3 9 -2 16 4 16 5 0 13 -12 17 -27z m269 5 c16 -26 -4 -53 -40 -53 -23
0 -30 5 -32 23 -2 13 -1 30 2 38 8 20 56 14 70 -8z m126 2 c10 -18 8 -20 -20
-20 -20 0 -30 -5 -30 -15 0 -18 21 -20 39 -2 11 10 13 9 9 -3 -3 -9 -17 -15
-34 -15 -23 0 -30 5 -32 23 -2 13 -1 30 2 38 8 21 54 17 66 -6z m76 9 c4 -8 0
-9 -15 -4 -12 3 -21 2 -21 -4 0 -5 9 -13 21 -16 28 -9 20 -40 -10 -40 -14 0
-27 7 -29 15 -4 13 -3 13 11 2 9 -8 21 -10 28 -6 8 5 3 12 -15 21 -26 14 -32
24 -19 36 10 11 41 8 49 -4z m88 -5 c3 -9 6 -27 6 -40 0 -21 -5 -24 -35 -24
-34 0 -35 2 -33 33 1 17 3 35 5 40 7 13 51 7 57 -9z m124 4 c19 -19 14 -28
-18 -28 -30 0 -40 -13 -20 -25 6 -4 18 -1 27 7 14 11 15 11 11 -2 -11 -34 -68
-17 -68 19 0 21 19 41 40 41 9 0 21 -5 28 -12z m139 -50 c-2 -13 -4 -3 -4 22
0 25 2 35 4 23 2 -13 2 -33 0 -45z m98 51 c11 -16 -3 -23 -19 -10 -19 16 -36
6 -36 -20 0 -25 26 -35 47 -18 14 12 16 12 11 -1 -6 -19 -45 -25 -64 -10 -17
15 -18 42 -2 58 15 15 55 16 63 1z m173 -11 c3 -14 -3 -18 -28 -18 -21 0 -30
-4 -27 -12 2 -7 16 -12 31 -11 14 1 24 -2 21 -8 -11 -17 -54 -10 -65 11 -16
31 4 62 38 58 16 -2 28 -10 30 -20z m202 2 c15 -28 -4 -60 -35 -60 -19 0 -25
-5 -25 -21 0 -11 -4 -17 -10 -14 -5 3 -10 31 -10 61 l0 54 35 0 c24 0 37 -6
45 -20z m40 -16 c0 -49 32 -44 41 6 l6 35 2 -41 c1 -40 0 -41 -31 -40 -31 1
-33 4 -36 39 -2 21 1 37 7 37 6 0 11 -16 11 -36z m107 21 c-9 -7 -17 -24 -17
-39 0 -14 -4 -26 -10 -26 -5 0 -10 17 -10 39 0 35 2 39 27 39 24 0 25 -2 10
-13z m91 -5 c5 -13 3 -13 -11 -2 -19 16 -37 8 -37 -18 0 -26 18 -34 37 -18 14
11 15 11 11 -2 -11 -34 -68 -17 -68 19 0 38 57 55 68 21z m180 -20 c3 -33 1
-36 -27 -38 -33 -2 -48 12 -32 32 6 7 8 16 5 19 -12 11 8 28 29 25 17 -2 23
-11 25 -38z m78 29 c4 -8 0 -9 -15 -4 -12 4 -21 2 -21 -4 0 -6 6 -11 14 -11
20 0 36 -24 27 -39 -10 -16 -53 -11 -59 7 -3 11 -1 11 16 1 12 -7 25 -9 29 -5
4 5 3 11 -3 13 -26 9 -47 31 -40 41 9 15 43 15 52 1z m92 -1 c19 -19 14 -28
-18 -28 -30 0 -40 -13 -20 -25 6 -4 18 -1 27 7 14 11 15 11 11 -2 -11 -34 -68
-17 -68 19 0 21 19 41 40 41 9 0 21 -5 28 -12z m78 1 c4 -8 0 -9 -15 -4 -12 4
-21 2 -21 -4 0 -6 6 -11 14 -11 20 0 36 -24 27 -39 -10 -16 -53 -11 -59 7 -3
11 -1 11 16 1 12 -7 25 -9 29 -5 4 5 3 11 -3 13 -26 9 -47 31 -40 41 9 15 43
15 52 1z m8921 -14 c0 -11 -4 -12 -14 -4 -7 6 -13 13 -13 15 0 2 6 4 13 4 8 0
14 -7 14 -15z m-88 -19 c-12 -10 -49 -16 -49 -7 0 16 34 31 44 21 5 -6 8 -11
5 -14z m34 4 c-19 -22 -29 -19 -20 5 4 8 13 15 22 15 13 0 12 -3 -2 -20z
m-5563 -17 c0 -13 -3 -13 -15 -3 -8 7 -12 16 -9 21 8 13 24 1 24 -18z m4328
15 c-6 -16 -34 -22 -56 -12 -14 6 -11 9 13 14 45 11 47 11 43 -2z m753 -11
c-10 -9 -11 -8 -5 6 3 10 9 15 12 12 3 -3 0 -11 -7 -18z m-5521 3 c0 -5 -5
-10 -11 -10 -5 0 -7 5 -4 10 3 6 8 10 11 10 2 0 4 -4 4 -10z m300 -11 c0 -14
-16 -11 -29 5 -10 12 -8 13 8 9 12 -3 21 -9 21 -14z m5441 -10 c-12 -13 -21
-19 -21 -14 0 11 32 46 38 41 2 -3 -5 -15 -17 -27z m-1379 -4 c-6 -34 -22 -42
-22 -11 0 13 6 27 13 29 6 3 13 6 13 6 1 1 -1 -10 -4 -24z m1280 3 c-12 -12
-35 -1 -27 12 3 5 13 6 21 3 10 -4 12 -9 6 -15z m-10542 5 c0 -5 -5 -15 -10
-23 -8 -12 -10 -11 -10 8 0 12 5 22 10 22 6 0 10 -3 10 -7z m2062 -25 c-8 -8
-9 -4 -5 13 4 13 8 18 11 10 2 -7 -1 -18 -6 -23z m7462 17 c-4 -9 -19 -15 -39
-15 -45 0 -54 18 -13 23 18 2 38 5 45 5 7 1 10 -4 7 -13z m865 -12 c-11 -12
-8 -13 16 -7 21 5 27 4 23 -7 -3 -8 -19 -14 -36 -15 -17 -1 -37 -6 -45 -12
-10 -9 -17 -7 -30 8 -16 19 -16 20 8 20 14 0 33 9 42 19 9 11 20 18 25 15 5
-3 3 -12 -3 -21z m521 17 c0 -5 -5 -10 -11 -10 -5 0 -7 5 -4 10 3 6 8 10 11
10 2 0 4 -4 4 -10z m-5930 -16 c0 -2 -15 -4 -32 -3 -27 0 -29 2 -13 8 18 8 45
4 45 -5z m170 -1 c18 -21 14 -53 -6 -53 -17 0 -18 12 -2 28 8 8 8 12 1 12 -6
0 -13 7 -17 15 -7 20 6 19 24 -2z m5605 7 c3 -5 1 -10 -4 -10 -6 0 -11 5 -11
10 0 6 2 10 4 10 3 0 8 -4 11 -10z m-5758 -32 c-3 -8 -6 -5 -6 6 -1 11 2 17 5
13 3 -3 4 -12 1 -19z m-212 2 c-3 -5 0 -10 7 -10 8 0 6 -5 -4 -11 -10 -5 -18
-21 -18 -34 0 -14 -5 -25 -11 -25 -7 0 -9 9 -5 23 3 12 6 32 6 45 0 13 6 22
16 22 8 0 12 -4 9 -10z m5480 -3 c22 29 28 8 12 -39 -9 -24 -16 -35 -16 -25
-1 11 -7 17 -13 14 -7 -2 -22 0 -32 6 -19 9 -19 10 -1 23 14 10 15 14 4 15 -8
0 -6 4 6 8 14 6 21 4 23 -6 3 -11 7 -11 17 4z m375 -8 c0 -5 -9 -9 -20 -9 -22
0 -27 16 -7 23 15 5 27 -1 27 -14z m80 6 c0 -8 -7 -15 -16 -15 -14 0 -14 3 -4
15 7 8 14 15 16 15 2 0 4 -7 4 -15z m-5842 -2 c-18 -3 -28 -12 -33 -30 -8 -33
-15 -26 -8 10 5 23 10 27 37 26 29 -2 29 -2 4 -6z m5686 -8 c-6 -16 -24 -21
-24 -7 0 11 11 22 21 22 5 0 6 -7 3 -15z m-62 -7 c-9 -9 -15 -9 -24 0 -9 9 -7
12 12 12 19 0 21 -3 12 -12z m-5582 -13 c0 -8 -4 -15 -10 -15 -5 0 -10 4 -10
9 0 5 -10 12 -22 14 -17 3 -14 5 10 6 22 1 32 -3 32 -14z m750 5 c0 -5 -7 -10
-15 -10 -8 0 -15 5 -15 10 0 6 7 10 15 10 8 0 15 -4 15 -10z m-926 -15 c-6
-16 -76 -21 -110 -8 -16 6 -16 7 2 14 10 4 40 8 66 8 38 1 46 -2 42 -14z
m5396 5 c0 -5 -4 -10 -9 -10 -6 0 -13 5 -16 10 -3 6 1 10 9 10 9 0 16 -4 16
-10z m40 3 c0 -5 -4 -14 -9 -21 -7 -11 -9 -11 -14 1 -3 8 -3 18 0 21 9 8 23 7
23 -1z m-4720 -17 c0 -8 -4 -18 -10 -21 -5 -3 -10 3 -10 14 0 12 5 21 10 21 6
0 10 -6 10 -14z m4844 -1 c-6 -16 -24 -21 -24 -7 0 11 11 22 21 22 5 0 6 -7 3
-15z m-5190 -6 l41 -2 -40 -7 -40 -7 48 -2 c67 -2 59 -16 -10 -16 -52 0 -58
-2 -64 -25 -6 -23 -7 -23 -8 8 -1 28 -4 32 -28 33 -25 0 -25 1 -8 8 l20 9 -20
5 c-11 2 0 3 24 1 24 -2 62 -5 85 -5z m-231 -26 c-7 -2 -21 -2 -30 0 -10 3 -4
5 12 5 17 0 24 -2 18 -5z m417 -3 c0 -5 -4 -10 -10 -10 -5 0 -10 5 -10 10 0 6
5 10 10 10 6 0 10 -4 10 -10z m55 0 c3 -5 1 -10 -4 -10 -6 0 -11 5 -11 10 0 6
2 10 4 10 3 0 8 -4 11 -10z m235 -6 c0 -8 -14 -9 -47 -3 -62 12 -63 16 -3 15
29 -1 50 -6 50 -12z m4888 9 c-10 -2 -26 -2 -35 0 -10 3 -2 5 17 5 19 0 27 -2
18 -5z m-11138 -68 l0 -53 -36 1 c-44 2 -65 27 -48 55 6 9 23 17 38 17 21 -1
26 4 26 23 0 13 4 20 10 17 6 -3 10 -30 10 -60z m654 22 c29 6 50 -20 42 -52
-6 -22 -12 -25 -41 -23 l-35 2 1 61 c1 33 4 48 6 34 3 -21 9 -25 27 -22z m81
33 c3 -5 1 -10 -4 -10 -6 0 -11 5 -11 10 0 6 2 10 4 10 3 0 8 -4 11 -10z m35
-50 c0 -33 -4 -60 -10 -60 -11 0 -14 103 -3 113 12 12 13 8 13 -53z m1470 0
c0 -33 -4 -60 -10 -60 -11 0 -14 103 -3 113 12 12 13 8 13 -53z m3410 50 c0
-5 -4 -10 -10 -10 -5 0 -10 5 -10 10 0 6 5 10 10 10 6 0 10 -4 10 -10z m5570
0 c0 -5 -2 -10 -4 -10 -3 0 -8 5 -11 10 -3 6 -1 10 4 10 6 0 11 -4 11 -10z
m-10352 -30 c15 -1 15 -2 0 -11 -10 -5 -18 -19 -18 -29 0 -10 8 -24 18 -30 15
-10 15 -10 -3 -8 -14 2 -21 12 -23 36 -2 17 -8 32 -13 32 -5 0 -4 6 3 14 7 8
15 10 16 5 2 -5 11 -9 20 -9z m1080 0 c15 -1 15 -2 0 -11 -10 -5 -18 -19 -18
-29 0 -10 8 -24 18 -30 15 -10 15 -10 -3 -8 -14 2 -21 12 -23 36 -2 17 -8 32
-13 32 -5 0 -4 6 3 14 7 8 15 10 16 5 2 -5 11 -9 20 -9z m-2150 -12 c7 -7 12
-25 12 -40 0 -25 -3 -28 -34 -28 -33 0 -56 23 -35 35 5 4 7 11 4 16 -16 25 30
40 53 17z m94 -1 c11 -17 10 -67 -1 -67 -6 0 -11 15 -13 33 -2 20 -8 32 -18
32 -10 0 -16 -12 -18 -32 -5 -46 -22 -41 -22 5 0 37 2 39 32 40 18 0 36 -5 40
-11z m232 -3 c3 -9 6 -27 6 -40 0 -21 -5 -24 -35 -24 -34 0 -35 2 -33 33 1 17
3 35 5 40 7 13 51 7 57 -9z m91 5 c11 -16 -3 -23 -19 -10 -19 16 -36 6 -36
-20 0 -25 26 -35 47 -18 14 12 16 12 11 -1 -6 -19 -45 -25 -64 -10 -17 15 -18
42 -2 58 15 15 55 16 63 1z m93 -9 c5 -13 3 -13 -11 -1 -22 17 -47 7 -47 -19
0 -26 25 -36 47 -19 14 12 16 12 11 -1 -2 -8 -16 -16 -31 -18 -33 -4 -53 28
-37 59 13 24 60 23 68 -1z m90 -2 c3 -14 -3 -18 -28 -18 -21 0 -30 -4 -27 -12
2 -7 16 -12 31 -11 14 1 24 -2 21 -8 -11 -17 -54 -10 -65 11 -16 31 4 62 38
58 16 -2 28 -10 30 -20z m78 11 c4 -8 0 -9 -15 -4 -12 3 -21 2 -21 -4 0 -5 9
-13 21 -16 28 -9 20 -40 -10 -40 -14 0 -27 7 -29 15 -4 13 -3 13 11 2 9 -8 21
-10 28 -6 8 5 3 12 -15 21 -26 14 -32 24 -19 36 10 11 41 8 49 -4z m80 0 c4
-8 0 -9 -15 -4 -12 3 -21 2 -21 -4 0 -5 9 -13 21 -16 28 -9 20 -40 -10 -40
-14 0 -27 7 -29 15 -4 13 -3 13 11 2 9 -8 21 -10 28 -6 8 5 3 12 -15 21 -26
14 -32 24 -19 36 10 11 41 8 49 -4z m44 -29 c0 -22 -4 -40 -10 -40 -5 0 -10
18 -10 40 0 22 5 40 10 40 6 0 10 -18 10 -40z m127 -22 c-2 -13 -4 -3 -4 22 0
25 2 35 4 23 2 -13 2 -33 0 -45z m83 22 c0 -22 -4 -40 -10 -40 -5 0 -10 18
-10 40 0 22 5 40 10 40 6 0 10 -18 10 -40z m104 13 l14 -28 13 28 c7 15 16 27
20 27 7 0 -36 -108 -47 -119 -3 -3 -4 8 -2 25 1 16 -4 39 -10 51 -12 22 -16
43 -7 43 2 0 11 -12 19 -27z m174 -14 c3 -35 2 -36 -30 -35 -29 1 -33 4 -34
31 -2 40 3 47 34 43 23 -3 27 -8 30 -39z m60 27 c-10 -7 -18 -25 -18 -40 0
-14 -4 -26 -10 -26 -5 0 -10 17 -10 38 0 34 3 38 28 40 24 1 25 0 10 -12z m49
-4 c-8 -9 -17 -28 -20 -42 -3 -17 -5 -12 -6 15 -1 35 2 41 20 42 19 2 20 0 6
-15z m91 -22 c3 -33 1 -36 -27 -38 -33 -2 -48 12 -32 32 6 7 8 16 5 19 -12 11
8 28 29 25 17 -2 23 -11 25 -38z m92 21 c13 -24 13 -61 1 -61 -6 0 -11 15 -13
33 -2 20 -8 32 -18 32 -10 0 -16 -12 -18 -32 -5 -47 -22 -41 -22 7 0 38 2 40
30 40 19 0 33 -7 40 -19z m93 2 c-3 -10 -13 -26 -21 -35 -14 -16 -13 -18 1
-18 19 0 23 -35 6 -45 -5 -4 -21 -4 -34 -1 -21 5 -23 11 -21 50 4 56 11 66 46
66 24 0 28 -3 23 -17z m85 5 c19 -19 14 -28 -18 -28 -30 0 -40 -13 -20 -25 6
-4 18 -1 27 7 14 11 15 11 11 -2 -11 -34 -68 -17 -68 19 0 21 19 41 40 41 9 0
21 -5 28 -12z m144 -2 c11 -17 10 -66 -2 -66 -5 0 -10 13 -10 29 0 57 -38 48
-41 -9 -1 -19 -3 -17 -8 10 -8 46 -35 48 -39 3 -5 -47 -22 -41 -22 7 l0 39 58
0 c31 -1 60 -6 64 -13z m96 -8 c3 -14 -3 -18 -28 -18 -21 0 -30 -4 -27 -12 2
-7 16 -12 31 -11 14 1 24 -2 21 -8 -11 -17 -54 -10 -65 11 -16 31 4 62 38 58
16 -2 28 -10 30 -20z m90 -20 c2 -22 -1 -38 -7 -38 -6 0 -11 16 -11 35 0 43
-27 49 -36 8 -10 -48 -12 -49 -13 -7 -1 40 0 41 32 40 30 -1 32 -4 35 -38z
m138 31 c4 -8 0 -9 -15 -4 -12 3 -21 2 -21 -4 0 -5 9 -13 21 -16 28 -9 20 -40
-10 -40 -14 0 -27 7 -29 15 -4 13 -3 13 11 2 9 -8 21 -10 28 -6 8 5 3 12 -15
21 -26 14 -32 24 -19 36 10 11 41 8 49 -4z m174 -9 c15 -28 -4 -60 -35 -60
-19 0 -25 -5 -25 -21 0 -11 -4 -17 -10 -14 -5 3 -10 31 -10 61 l0 54 35 0 c24
0 37 -6 45 -20z m128 -2 c3 -14 -3 -18 -28 -18 -21 0 -30 -4 -27 -12 2 -7 16
-12 31 -11 14 1 24 -2 21 -8 -11 -17 -54 -10 -65 11 -16 31 4 62 38 58 16 -2
28 -10 30 -20z m80 10 c7 -7 12 -25 12 -40 0 -25 -3 -28 -34 -28 -33 0 -56 23
-35 35 5 4 7 11 4 16 -16 25 30 40 53 17z m82 1 c0 -6 -9 -8 -20 -4 -27 9 -25
-8 3 -20 33 -15 28 -40 -7 -40 -17 0 -31 6 -34 15 -4 12 -2 13 9 3 15 -15 39
-17 39 -5 0 5 -11 14 -25 20 -16 7 -23 17 -19 27 7 17 54 21 54 4z m88 -1 c20
-20 14 -28 -19 -28 -20 0 -29 -4 -26 -12 2 -7 14 -13 26 -12 11 0 21 -3 21 -8
0 -12 -44 -10 -58 4 -7 7 -12 19 -12 28 0 9 5 21 12 28 7 7 19 12 28 12 9 0
21 -5 28 -12z m3563 -38 c11 0 17 -4 14 -10 -3 -5 -15 -10 -26 -10 -15 0 -19
7 -18 33 1 23 3 26 6 10 3 -15 12 -23 24 -23z m-410 10 c10 0 19 -3 19 -7 0
-16 -55 -33 -103 -33 l-50 0 26 20 c30 24 46 25 53 5 8 -20 24 -9 25 18 0 12
3 16 6 10 2 -7 13 -13 24 -13z m4729 0 c0 -5 -9 -10 -20 -10 -11 0 -20 5 -20
10 0 6 9 10 20 10 11 0 20 -4 20 -10z m-4370 -20 c0 -5 1 -13 3 -17 1 -5 -9
-9 -23 -9 -67 -4 -114 -14 -121 -26 -7 -10 -9 -10 -8 2 0 8 19 24 42 36 45 23
107 31 107 14z m-4034 -26 c-4 -9 -9 -15 -11 -12 -3 3 -3 13 1 22 4 9 9 15 11
12 3 -3 3 -13 -1 -22z m3777 -31 c-18 -2 -48 -2 -65 0 -18 2 -4 4 32 4 36 0
50 -2 33 -4z m230 0 c-7 -2 -19 -2 -25 0 -7 3 -2 5 12 5 14 0 19 -2 13 -5z
m-86 -29 c-3 -3 -12 -4 -19 -1 -8 3 -5 6 6 6 11 1 17 -2 13 -5z m301 -1 c-15
-2 -42 -2 -60 0 -18 2 -6 4 27 4 33 0 48 -2 33 -4z m295 0 c-13 -2 -33 -2 -45
0 -13 2 -3 4 22 4 25 0 35 -2 23 -4z m-358 -23 c-3 -5 -10 -10 -16 -10 -5 0
-9 5 -9 10 0 6 7 10 16 10 8 0 12 -4 9 -10z m-177 -7 c-15 -2 -42 -2 -60 0
-18 2 -6 4 27 4 33 0 48 -2 33 -4z m3753 -26 c-10 -9 -11 -8 -5 6 3 10 9 15
12 12 3 -3 0 -11 -7 -18z m-1946 3 c3 -6 -1 -7 -9 -4 -18 7 -21 14 -7 14 6 0
13 -4 16 -10z m-7743 -42 c24 6 38 -12 38 -50 0 -39 -18 -35 -22 5 -2 20 -8
32 -18 32 -10 0 -16 -12 -18 -32 -5 -53 -22 -37 -22 20 0 56 13 87 18 44 2
-20 7 -24 24 -19z m8115 36 c-3 -3 -12 -4 -19 -1 -8 3 -5 6 6 6 11 1 17 -2 13
-5z m236 -1 c-7 -2 -19 -2 -25 0 -7 3 -2 5 12 5 14 0 19 -2 13 -5z m-2573 -13
c0 -5 -2 -10 -4 -10 -3 0 -8 5 -11 10 -3 6 -1 10 4 10 6 0 11 -4 11 -10z
m-5464 -15 c9 -8 11 -15 5 -15 -15 0 -14 -57 2 -64 6 -3 3 -5 -8 -3 -14 2 -22
12 -25 37 -6 34 -3 60 7 60 2 0 11 -7 19 -15z m112 -5 c15 -1 15 -2 0 -11 -10
-5 -18 -19 -18 -29 0 -10 8 -24 18 -30 15 -10 15 -10 -3 -8 -14 2 -21 12 -23
36 -2 17 -8 32 -13 32 -5 0 -4 6 3 14 7 8 15 10 16 5 2 -5 11 -9 20 -9z m500
0 c15 -1 15 -2 0 -11 -10 -5 -18 -19 -18 -29 0 -10 8 -24 18 -30 15 -10 15
-10 -3 -8 -14 2 -21 12 -23 36 -2 17 -8 32 -13 32 -5 0 -4 6 3 14 7 8 15 10
16 5 2 -5 11 -9 20 -9z m6169 14 c-3 -3 -12 -4 -19 -1 -8 3 -5 6 6 6 11 1 17
-2 13 -5z m-7430 -32 c-8 -9 -17 -28 -20 -42 -3 -17 -5 -12 -6 15 -1 35 2 41
20 42 19 2 20 0 6 -15z m91 6 c20 -20 14 -28 -19 -28 -20 0 -29 -4 -26 -12 2
-7 14 -13 26 -12 11 0 21 -3 21 -8 0 -12 -44 -10 -58 4 -24 24 -7 68 28 68 9
0 21 -5 28 -12z m90 0 c7 -7 12 -25 12 -40 0 -25 -3 -28 -34 -28 -33 0 -56 23
-35 35 5 4 7 11 4 16 -16 25 30 40 53 17z m90 -8 c5 -13 3 -13 -11 -2 -19 16
-37 8 -37 -18 0 -26 18 -34 37 -18 14 11 15 11 11 -2 -11 -34 -68 -17 -68 19
0 38 57 55 68 21z m236 -2 c16 -26 -4 -53 -40 -53 -23 0 -30 5 -32 23 -2 13
-1 30 2 38 8 20 56 14 70 -8z m36 -14 c0 -49 32 -44 41 6 l6 35 2 -41 c1 -40
0 -41 -31 -40 -31 1 -33 4 -36 39 -2 21 1 37 7 37 6 0 11 -16 11 -36z m310 21
c26 -32 -13 -81 -47 -59 -35 22 -23 74 17 74 10 0 23 -7 30 -15z m100 -50 c10
0 16 12 18 33 5 46 22 40 22 -9 0 -39 -1 -40 -32 -37 -31 3 -33 6 -35 43 l-1
40 6 -35 c4 -22 13 -35 22 -35z m116 54 c4 -8 0 -9 -15 -4 -12 3 -21 2 -21 -4
0 -5 9 -13 21 -16 28 -9 20 -40 -10 -40 -14 0 -27 7 -29 15 -4 13 -3 13 11 2
9 -8 21 -10 28 -6 8 5 3 12 -15 21 -26 14 -32 24 -19 36 10 11 41 8 49 -4z
m132 -30 c3 -35 2 -36 -30 -35 -29 1 -33 4 -34 31 -2 40 3 47 34 43 23 -3 27
-8 30 -39z m102 37 c0 -3 -4 -8 -10 -11 -5 -3 -10 -1 -10 4 0 6 5 11 10 11 6
0 10 -2 10 -4z m6197 -2 c-3 -3 -12 -4 -19 -1 -8 3 -5 6 6 6 11 1 17 -2 13 -5z
m769 -26 l19 -21 -28 18 c-23 15 -33 16 -48 7 -27 -17 -37 -15 -13 3 27 20 48
18 70 -7z m-1506 -45 c0 -14 -3 -23 -7 -19 -10 10 -11 46 -1 46 4 0 8 -12 8
-27z m446 6 c1 -5 2 -13 3 -18 0 -5 9 -12 19 -14 11 -3 9 -5 -8 -6 -22 -1 -26
4 -28 31 -2 27 11 34 14 7z m-174 -51 c-10 -22 -11 -21 -11 12 -1 26 2 31 11
22 8 -8 8 -17 0 -34z m1633 22 c3 -5 2 -10 -4 -10 -5 0 -13 5 -16 10 -3 6 -2
10 4 10 5 0 13 -4 16 -10z m-2518 -6 c-3 -3 -12 -4 -19 -1 -8 3 -5 6 6 6 11 1
17 -2 13 -5z m2356 -1 c-7 -2 -19 -2 -25 0 -7 3 -2 5 12 5 14 0 19 -2 13 -5z
m221 -8 c-4 -8 -8 -15 -10 -15 -2 0 -4 7 -4 15 0 8 4 15 10 15 5 0 7 -7 4 -15z
m-2533 -22 c13 -16 12 -17 -3 -4 -10 7 -18 15 -18 17 0 8 8 3 21 -13z m2799
-6 c21 -4 20 -4 -7 -6 -25 -1 -33 3 -33 17 0 11 3 13 8 6 4 -7 18 -14 32 -17z
m1560 13 c0 -5 -2 -10 -4 -10 -3 0 -8 5 -11 10 -3 6 -1 10 4 10 6 0 11 -4 11
-10z m-3543 -52 c-3 -7 -5 -2 -5 12 0 14 2 19 5 13 2 -7 2 -19 0 -25z m1054
15 c13 -16 12 -17 -3 -4 -10 7 -18 15 -18 17 0 8 8 3 21 -13z m1402 -3 c-42
-6 -97 -45 -87 -61 6 -10 -17 -49 -29 -49 -11 0 -3 78 9 90 24 23 64 35 105
31 l44 -5 -42 -6z m-3130 -33 c-3 -5 -10 -4 -15 1 -6 6 -7 16 -3 22 6 9 9 9
16 -1 4 -7 5 -17 2 -22z m2255 19 c29 -10 28 -18 -8 -38 -22 -12 -36 -14 -57
-7 -15 5 -54 11 -86 15 -34 3 -55 9 -51 15 3 6 13 8 21 5 8 -3 20 0 27 7 14
13 116 16 154 3z m502 -5 c-5 -11 -15 -32 -20 -47 -6 -15 -13 -24 -16 -21 -6
5 33 87 42 87 2 0 0 -9 -6 -19z m-2020 -21 c0 -5 -2 -10 -4 -10 -3 0 -8 5 -11
10 -3 6 -1 10 4 10 6 0 11 -4 11 -10z m675 0 c3 -6 -1 -7 -9 -4 -18 7 -21 14
-7 14 6 0 13 -4 16 -10z m-1205 -35 c0 -5 -5 -3 -10 5 -5 8 -10 20 -10 25 0 6
5 3 10 -5 5 -8 10 -19 10 -25z m178 0 c-3 -3 -9 2 -12 12 -6 14 -5 15 5 6 7
-7 10 -15 7 -18z m380 -21 c-4 -3 -12 5 -18 18 -12 22 -12 22 6 6 10 -10 15
-20 12 -24z m2206 1 c-1 -5 6 -15 14 -21 12 -9 8 -14 -22 -28 -45 -21 -56 -15
-56 30 0 34 1 35 33 32 17 -2 32 -7 31 -13z m-1154 -56 c15 -28 5 -23 -15 7
-9 15 -12 23 -6 20 6 -4 16 -16 21 -27z m970 1 c24 -8 24 -8 -6 -9 -27 -1 -41
-9 -91 -51 -10 -8 -13 -6 -13 10 0 12 9 24 24 30 13 5 27 14 31 19 7 12 19 13
55 1z m310 -20 c28 -9 24 -11 -40 -13 -25 -2 -54 -8 -65 -16 -19 -12 -19 -12
-1 -6 19 6 19 5 1 -15 -10 -11 -26 -20 -36 -20 -26 0 -52 -45 -55 -94 -2 -69
-6 -73 -14 -18 -8 56 1 118 21 136 9 8 10 7 6 -7 -4 -11 -3 -16 4 -12 5 4 7
15 4 24 -10 33 112 61 175 41z m-3220 -10 c0 -5 -2 -10 -4 -10 -3 0 -8 5 -11
10 -3 6 -1 10 4 10 6 0 11 -4 11 -10z m2733 -67 c-7 -2 -19 -2 -25 0 -7 3 -2
5 12 5 14 0 19 -2 13 -5z m-56 -9 c-3 -3 -12 -4 -19 -1 -8 3 -5 6 6 6 11 1 17
-2 13 -5z m98 -4 c3 -6 -1 -7 -9 -4 -18 7 -21 14 -7 14 6 0 13 -4 16 -10z
m1273 -36 c-2 -23 -4 -23 -15 -8 -13 17 -9 34 7 34 6 0 9 -12 8 -26z m62 -109
c0 -13 -3 -26 -7 -28 -5 -3 -8 10 -8 28 0 18 3 31 8 28 4 -2 7 -15 7 -28z
m-790 -21 c0 -2 -14 -4 -31 -4 -16 0 -28 4 -25 9 5 8 56 3 56 -5z m-2153 -16
c-3 -8 -6 -5 -6 6 -1 11 2 17 5 13 3 -3 4 -12 1 -19z m1854 -1 c-10 -9 -11 -8
-5 6 3 10 9 15 12 12 3 -3 0 -11 -7 -18z m107 -114 c-13 -41 -18 -79 -16 -130
2 -58 0 -73 -12 -76 -13 -3 -15 8 -12 72 3 87 17 148 40 174 8 9 16 17 17 17
1 0 -6 -26 -17 -57z m-5640 3 c43 -20 80 -47 116 -87 174 -188 119 -478 -112
-595 l-57 -29 -1750 0 -1750 0 -60 29 c-162 80 -247 260 -205 435 26 111 127
220 242 261 51 19 104 19 1783 17 l1730 -2 63 -29z m6722 -130 c0 -2 -8 -10
-17 -17 -16 -13 -17 -12 -4 4 13 16 21 21 21 13z m-1161 -70 c-2 -2 -20 -6
-39 -10 -25 -4 -31 -3 -20 4 14 9 69 15 59 6z m-855 -202 c3 -8 2 -12 -4 -9
-6 3 -10 10 -10 16 0 14 7 11 14 -7z m24 -49 c-3 -3 -9 2 -12 12 -6 14 -5 15
5 6 7 -7 10 -15 7 -18z m42 -10 c0 -2 -9 -9 -20 -15 -12 -6 -20 -7 -20 -1 0 5
8 12 18 14 9 3 18 5 20 6 1 0 2 -1 2 -4z m-5 -80 c6 -30 6 -30 -10 4 -17 38
-19 49 -6 36 5 -6 12 -23 16 -40z m785 -65 c11 -7 8 -9 -15 -8 -16 0 -45 -4
-63 -10 -18 -6 -30 -7 -27 -1 4 5 15 9 25 9 10 0 22 5 25 10 8 13 35 13 55 0z
m-120 -34 c0 -3 -4 -8 -10 -11 -5 -3 -10 -1 -10 4 0 6 5 11 10 11 6 0 10 -2
10 -4z m210 -34 c0 -1 -9 2 -20 8 -11 6 -20 15 -20 20 0 6 9 2 20 -7 11 -10
20 -19 20 -21z m1442 -52 l1298 0 0 -485 0 -485 -3410 0 -3410 0 0 485 0 485
1608 0 c884 0 1820 0 2080 0 294 0 472 3 472 9 0 6 12 6 32 0 20 -5 560 -9
1330 -9z m-7179 -230 c79 -13 142 -46 202 -105 182 -180 134 -481 -96 -602
l-54 -28 -1747 -3 -1747 -2 -56 21 c-78 29 -164 110 -201 191 -26 56 -29 74
-29 163 0 89 3 106 27 155 52 106 163 191 275 210 69 11 3355 12 3426 0z"/>
<path d="M3613 6410 c-49 -20 -60 -104 -18 -145 40 -40 96 -30 123 22 20 37
14 73 -17 104 -30 30 -50 34 -88 19z"/>
<path d="M820 6444 l0 -66 56 4 c61 5 84 23 84 65 0 39 -34 63 -90 63 l-50 0
0 -66z"/>
<path d="M1126 6399 c-22 -17 -26 -28 -26 -69 0 -41 4 -52 26 -69 43 -34 86
-26 109 20 27 51 12 108 -32 128 -34 16 -47 14 -77 -10z"/>
<path d="M2505 6395 c-39 -38 -32 -45 50 -45 46 0 75 4 75 10 0 21 -49 60 -75
60 -14 0 -37 -11 -50 -25z"/>
<path d="M4377 6400 c-31 -24 -42 -66 -27 -105 22 -58 71 -71 117 -31 39 33
38 99 -1 133 -33 28 -56 29 -89 3z"/>
<path d="M1192 5920 c-15 -42 -16 -40 8 -40 21 0 25 19 11 54 -7 18 -9 16 -19
-14z"/>
<path d="M2577 5926 c-12 -31 -8 -46 13 -46 23 0 26 18 7 44 -13 18 -14 18
-20 2z"/>
<path d="M4080 5910 l-21 -30 25 0 c22 0 26 4 26 30 0 17 -2 30 -4 30 -3 0
-14 -13 -26 -30z"/>
<path d="M1837 5914 c-15 -15 -6 -24 24 -24 20 0 29 4 27 13 -5 14 -40 21 -51
11z"/>
<path d="M2037 5914 c-15 -15 -6 -24 24 -24 20 0 29 4 27 13 -5 14 -40 21 -51
11z"/>
<path d="M8883 4715 c0 -8 4 -12 9 -9 4 3 8 9 8 15 0 5 -4 9 -8 9 -5 0 -9 -7
-9 -15z"/>
<path d="M9223 4293 c-15 -3 -23 -11 -23 -24 0 -10 -4 -19 -10 -19 -5 0 -10 6
-10 14 0 12 -4 12 -30 0 -16 -9 -30 -18 -30 -21 0 -15 36 -63 48 -63 10 0 13
-8 10 -24 -4 -19 -1 -22 15 -18 16 4 19 2 14 -12 -4 -10 -3 -15 3 -11 6 3 10
-1 10 -10 0 -9 6 -15 13 -12 6 2 11 12 9 21 -2 9 2 15 9 14 11 -3 17 12 21 55
1 9 5 17 8 17 3 0 5 16 5 36 0 41 -25 63 -62 57z"/>
<path d="M9610 3955 c0 -17 -2 -17 -10 -5 -8 13 -10 12 -10 -2 0 -19 8 -22 27
-10 8 5 9 13 3 22 -8 12 -10 11 -10 -5z"/>
<path d="M884 4426 c-8 -22 3 -49 19 -43 6 2 12 14 12 27 0 27 -22 39 -31 16z"/>
<path d="M1204 4426 c-9 -24 4 -48 23 -44 12 2 18 12 18 28 0 29 -32 41 -41
16z"/>
<path d="M1535 4430 c-3 -5 3 -10 15 -10 12 0 18 5 15 10 -3 6 -10 10 -15 10
-5 0 -12 -4 -15 -10z"/>
<path d="M1991 4427 c-15 -19 -3 -49 18 -45 9 2 16 13 16 27 0 29 -17 37 -34
18z"/>
<path d="M2115 4430 c-4 -6 5 -10 20 -10 15 0 24 4 20 10 -3 6 -12 10 -20 10
-8 0 -17 -4 -20 -10z"/>
<path d="M2285 4430 c-3 -5 3 -10 14 -10 12 0 21 5 21 10 0 6 -6 10 -14 10 -8
0 -18 -4 -21 -10z"/>
<path d="M2291 4401 c-9 -6 -10 -11 -2 -15 13 -8 31 1 31 15 0 11 -11 11 -29
0z"/>
<path d="M2415 4430 c-3 -5 3 -10 15 -10 12 0 18 5 15 10 -3 6 -10 10 -15 10
-5 0 -12 -4 -15 -10z"/>
<path d="M2815 4430 c-4 -6 5 -10 20 -10 15 0 24 4 20 10 -3 6 -12 10 -20 10
-8 0 -17 -4 -20 -10z"/>
<path d="M3014 4426 c-9 -24 4 -48 23 -44 12 2 18 12 18 28 0 29 -32 41 -41
16z"/>
<path d="M3445 4430 c-3 -5 3 -10 15 -10 12 0 18 5 15 10 -3 6 -10 10 -15 10
-5 0 -12 -4 -15 -10z"/>
<path d="M3447 4403 c-12 -11 -8 -23 7 -23 8 0 16 7 20 15 5 15 -14 21 -27 8z"/>
<path d="M3615 4430 c-3 -5 3 -10 15 -10 12 0 18 5 15 10 -3 6 -10 10 -15 10
-5 0 -12 -4 -15 -10z"/>
<path d="M6368 4293 c12 -2 32 -2 45 0 12 2 2 4 -23 4 -25 0 -35 -2 -22 -4z"/>
<path d="M974 4186 c-9 -24 4 -48 23 -44 12 2 18 12 18 28 0 29 -32 41 -41 16z"/>
<path d="M1680 4185 c-11 -13 -11 -19 3 -33 20 -19 41 -5 35 24 -4 24 -22 28
-38 9z"/>
<path d="M795 4190 c-3 -5 3 -10 15 -10 12 0 18 5 15 10 -3 6 -10 10 -15 10
-5 0 -12 -4 -15 -10z"/>
<path d="M795 4159 c-4 -6 -4 -13 -1 -16 8 -8 36 5 36 17 0 13 -27 13 -35 -1z"/>
<path d="M1115 4190 c-3 -5 3 -10 14 -10 12 0 21 5 21 10 0 6 -6 10 -14 10 -8
0 -18 -4 -21 -10z"/>
<path d="M1121 4161 c-9 -6 -10 -11 -2 -15 13 -8 31 1 31 15 0 11 -11 11 -29
0z"/>
<path d="M1385 4190 c-4 -6 5 -10 20 -10 15 0 24 4 20 10 -3 6 -12 10 -20 10
-8 0 -17 -4 -20 -10z"/>
<path d="M2080 4190 c0 -5 7 -10 15 -10 8 0 15 5 15 10 0 6 -7 10 -15 10 -8 0
-15 -4 -15 -10z"/>
<path d="M2085 4159 c-4 -6 -5 -13 -2 -16 7 -7 27 6 27 18 0 12 -17 12 -25 -2z"/>
<path d="M2285 4190 c-3 -5 3 -10 15 -10 12 0 18 5 15 10 -3 6 -10 10 -15 10
-5 0 -12 -4 -15 -10z"/>
<path d="M2287 4163 c-12 -11 -8 -23 7 -23 8 0 16 7 20 15 5 15 -14 21 -27 8z"/>
<path d="M2467 4193 c-12 -11 -8 -23 8 -23 8 0 15 7 15 15 0 16 -12 20 -23 8z"/>
<path d="M2460 4120 c0 -5 9 -10 20 -10 11 0 20 5 20 10 0 6 -9 10 -20 10 -11
0 -20 -4 -20 -10z"/>
<path d="M2555 4190 c-3 -5 3 -10 15 -10 12 0 18 5 15 10 -3 6 -10 10 -15 10
-5 0 -12 -4 -15 -10z"/>
<path d="M2785 4190 c-4 -6 5 -10 20 -10 15 0 24 4 20 10 -3 6 -12 10 -20 10
-8 0 -17 -4 -20 -10z"/>
<path d="M3184 4186 c-9 -24 4 -48 23 -44 12 2 18 12 18 28 0 29 -32 41 -41
16z"/>
<path d="M3315 4190 c-4 -6 5 -10 20 -10 15 0 24 4 20 10 -3 6 -12 10 -20 10
-8 0 -17 -4 -20 -10z"/>
<path d="M3405 4190 c-3 -5 3 -10 15 -10 12 0 18 5 15 10 -3 6 -10 10 -15 10
-5 0 -12 -4 -15 -10z"/>
<path d="M3405 4159 c-4 -6 -4 -13 -1 -16 8 -8 36 5 36 17 0 13 -27 13 -35 -1z"/>
<path d="M3575 4190 c-3 -5 3 -10 15 -10 12 0 18 5 15 10 -3 6 -10 10 -15 10
-5 0 -12 -4 -15 -10z"/>
<path d="M855 3950 c-3 -5 3 -10 15 -10 12 0 18 5 15 10 -3 6 -10 10 -15 10
-5 0 -12 -4 -15 -10z"/>
<path d="M945 3950 c-3 -5 3 -10 15 -10 12 0 18 5 15 10 -3 6 -10 10 -15 10
-5 0 -12 -4 -15 -10z"/>
<path d="M945 3919 c-4 -6 -4 -13 -1 -16 8 -8 36 5 36 17 0 13 -27 13 -35 -1z"/>
<path d="M1261 3947 c-15 -19 -3 -49 18 -45 9 2 16 13 16 27 0 29 -17 37 -34
18z"/>
<path d="M1614 3946 c-8 -22 3 -49 19 -43 6 2 12 14 12 27 0 27 -22 39 -31 16z"/>
<path d="M1960 3950 c0 -5 7 -10 15 -10 8 0 15 5 15 10 0 6 -7 10 -15 10 -8 0
-15 -4 -15 -10z"/>
<path d="M1965 3919 c-4 -6 -5 -13 -2 -16 7 -7 27 6 27 18 0 12 -17 12 -25 -2z"/>
<path d="M965 3256 c-105 -26 -188 -94 -237 -194 -30 -60 -33 -75 -33 -157 0
-78 4 -98 28 -151 34 -73 101 -141 177 -181 l55 -28 1745 0 1745 0 58 27 c231
108 283 412 101 591 -55 54 -109 83 -183 97 -84 16 -3391 12 -3456 -4z m851
-288 c-20 -29 -20 -90 -1 -128 9 -17 11 -30 6 -30 -6 0 -18 14 -27 32 -26 49
-7 148 28 148 5 0 2 -10 -6 -22z m391 3 c22 -36 25 -84 6 -120 -10 -19 -24
-37 -31 -39 -7 -2 -4 11 9 33 24 41 21 95 -7 126 -14 15 -14 19 -3 19 8 0 19
-8 26 -19z m-947 -22 c0 -12 5 -19 13 -16 27 10 47 -13 47 -53 0 -22 -4 -40
-10 -40 -5 0 -10 18 -10 41 0 33 -3 40 -17 37 -13 -2 -19 -14 -21 -41 -6 -65
-22 -40 -22 34 0 44 4 68 10 64 6 -3 10 -15 10 -26z m-65 -14 c0 -25 -5 -32
-32 -40 -25 -7 -33 -15 -33 -32 0 -13 -4 -23 -10 -23 -6 0 -10 29 -10 66 l0
65 43 -3 c39 -3 42 -5 42 -33z m705 -30 c0 -37 -4 -65 -10 -65 -5 0 -10 25
-10 55 0 32 -4 55 -11 55 -5 0 -7 5 -4 10 3 6 13 10 21 10 11 0 14 -15 14 -65z
m108 53 c18 -18 15 -33 -13 -66 -31 -37 -31 -40 3 -45 16 -2 8 -5 -22 -6 l-48
-1 36 40 c20 22 36 47 36 55 0 23 -31 31 -45 12 -17 -24 -28 -21 -15 3 12 22
49 27 68 8z m118 -18 c0 -14 4 -35 8 -48 9 -28 -8 -52 -39 -52 -24 0 -53 26
-41 37 3 4 12 -2 20 -12 8 -11 20 -16 30 -12 22 9 20 38 -4 44 -23 6 -27 23
-5 23 8 0 15 9 15 20 0 21 -24 28 -35 10 -3 -5 -11 -10 -17 -10 -6 0 -6 6 2
16 8 8 25 14 39 12 20 -2 26 -9 27 -28z m274 -15 c0 -29 4 -45 13 -46 10 0 10
-2 0 -6 -7 -2 -13 -11 -13 -19 0 -8 -4 -14 -10 -14 -5 0 -10 7 -10 15 0 10
-10 15 -30 15 -16 0 -30 3 -30 6 0 16 56 94 68 94 8 0 12 -16 12 -45z m106 36
c-37 -8 -47 -31 -14 -31 30 0 48 -17 48 -46 0 -29 -23 -46 -57 -42 -18 2 -29
10 -32 23 -3 19 -3 19 16 2 25 -22 55 -12 51 17 -2 17 -9 21 -35 20 -34 -2
-37 4 -27 44 5 18 13 22 43 21 35 -1 35 -2 7 -8z m152 -9 c3 -11 0 -11 -16 -1
-17 10 -23 10 -36 0 -25 -21 -19 -36 15 -36 62 0 65 -66 3 -73 -49 -6 -72 57
-38 106 17 25 64 28 72 4z m226 -19 c-9 -21 -20 -50 -26 -65 -5 -16 -14 -28
-19 -28 -12 0 -12 2 11 55 26 61 26 63 -12 68 -25 3 -22 4 15 5 l47 2 -16 -37z
m122 2 c0 -16 4 -38 8 -48 12 -26 -12 -49 -48 -45 -30 3 -31 5 -33 53 -2 70 2
77 39 73 29 -3 33 -7 34 -33z m134 16 c26 -49 -3 -114 -48 -109 -17 2 -28 10
-30 22 -4 18 -3 19 13 3 20 -20 27 -21 43 -5 20 20 14 36 -13 30 -44 -8 -73
36 -43 66 19 19 66 15 78 -7z m140 0 c25 -48 4 -111 -37 -111 -55 0 -84 70
-46 112 22 24 69 24 83 -1z m-1850 -31 c23 -23 24 -33 10 -61 -21 -39 -90 -16
-90 30 0 14 37 51 50 51 6 0 19 -9 30 -20z m129 -43 l-1 -42 -8 38 c-8 44 -14
51 -35 44 -9 -4 -15 -19 -15 -42 0 -19 -4 -35 -10 -35 -5 0 -10 20 -10 44 0
38 3 45 23 48 41 7 57 -9 56 -55z m111 43 c30 -30 24 -40 -22 -40 -39 0 -41
-1 -26 -16 13 -13 20 -14 38 -4 18 10 21 9 18 -2 -6 -18 -46 -23 -64 -8 -20
17 -18 67 4 79 24 15 29 14 52 -9z m1093 -27 c-13 -2 -33 -2 -45 0 -13 2 -3 4
22 4 25 0 35 -2 23 -4z"/>
<path d="M1137 2953 c-4 -3 -7 -15 -7 -25 0 -20 44 -26 55 -8 14 22 -30 52
-48 33z"/>
<path d="M2358 2915 c-23 -30 -22 -35 2 -35 16 0 20 7 20 30 0 36 0 36 -22 5z"/>
<path d="M2600 2895 c-11 -13 -11 -18 2 -31 20 -20 50 -7 46 20 -4 26 -30 32
-48 11z"/>
<path d="M2957 2953 c-14 -13 -7 -33 11 -33 24 0 32 8 25 26 -5 15 -25 19 -36
7z"/>
<path d="M2947 2886 c-3 -8 0 -19 7 -25 18 -15 48 -3 44 18 -4 21 -44 27 -51
7z"/>
<path d="M3083 2953 c-18 -7 -16 -42 3 -50 8 -3 23 1 31 10 13 13 14 19 3 31
-13 17 -17 18 -37 9z"/>
<path d="M3218 2949 c-27 -15 -24 -75 3 -90 17 -9 25 -8 36 4 19 18 20 61 3
82 -15 17 -19 18 -42 4z"/>
<path d="M1375 2899 c-5 -14 -1 -27 9 -37 15 -15 17 -15 32 0 20 20 10 58 -16
58 -10 0 -22 -10 -25 -21z"/>
<path d="M1625 2910 c-4 -6 5 -10 20 -10 15 0 24 4 20 10 -3 6 -12 10 -20 10
-8 0 -17 -4 -20 -10z"/>
<path d="M10782 2267 c-46 -14 -121 -84 -143 -132 -37 -80 -20 -191 38 -256
98 -108 256 -116 354 -18 51 51 69 97 69 178 0 109 -58 190 -161 226 -47 17
-109 18 -157 2z m185 -26 c79 -40 123 -115 123 -208 0 -106 -63 -188 -168
-219 -81 -24 -162 -1 -226 62 -41 41 -58 80 -63 145 -16 177 174 302 334 220z"/>
<path d="M10769 2169 c-37 -14 -49 -48 -49 -138 0 -64 4 -83 21 -105 20 -25
24 -26 120 -26 133 0 139 5 139 134 0 130 -9 140 -122 143 -45 1 -95 -2 -109
-8z m195 -35 c12 -11 16 -36 16 -96 0 -110 -8 -118 -112 -118 -116 0 -118 2
-118 113 0 59 4 97 12 105 19 19 183 16 202 -4z"/>
<path d="M10925 2119 c-10 -15 1 -23 20 -15 9 3 13 10 10 16 -8 13 -22 13 -30
-1z"/>
<path d="M10830 2097 c-35 -18 -48 -61 -29 -95 19 -34 80 -43 110 -16 56 51
-13 145 -81 111z m68 -29 c16 -16 15 -53 -2 -68 -21 -16 -56 -9 -72 15 -27 41
39 88 74 53z"/>
<path d="M11485 2268 c-171 -61 -222 -278 -96 -404 94 -95 254 -93 347 3 63
67 83 185 45 269 -50 110 -186 171 -296 132z m194 -35 c137 -85 147 -288 20
-382 -195 -143 -447 66 -345 285 57 123 209 168 325 97z"/>
<path d="M11572 2128 c-7 -7 -12 -20 -12 -30 0 -26 -39 -23 -80 7 -19 14 -35
25 -37 25 -9 0 3 -93 14 -101 6 -6 10 -16 7 -24 -3 -7 3 -16 15 -20 31 -9 26
-22 -11 -31 l-33 -7 25 -9 c14 -5 47 -8 73 -5 78 7 122 59 141 168 4 23 0 28
-26 33 -45 9 -63 7 -76 -6z"/>
<path d="M12157 2266 c-115 -42 -180 -153 -157 -274 13 -72 51 -128 115 -167
42 -26 58 -30 119 -30 85 1 136 24 188 85 62 72 75 168 34 256 -54 115 -182
171 -299 130z m150 -11 c91 -27 163 -126 163 -226 0 -74 -58 -162 -130 -199
-114 -57 -260 -8 -311 105 -24 51 -25 154 -3 198 31 62 86 107 154 128 39 12
72 10 127 -6z"/>
<path d="M12245 2168 c-28 -16 -35 -28 -35 -65 0 -28 -3 -33 -25 -33 -34 0
-37 -47 -2 -52 20 -3 22 -9 25 -65 3 -59 4 -63 27 -63 24 0 25 3 25 64 0 59 2
65 23 68 14 2 23 11 25 26 3 18 -1 22 -23 22 -23 0 -26 4 -23 28 2 19 9 28 26
30 16 3 22 10 22 28 0 18 -5 24 -22 24 -13 0 -32 -6 -43 -12z"/>
<path d="M6556 2088 c-33 -46 -7 -108 44 -108 16 0 32 5 35 10 4 7 -2 9 -19 4
-35 -8 -56 11 -56 52 0 48 43 70 75 38 20 -20 33 -11 15 11 -19 23 -76 19 -94
-7z"/>
<path d="M6974 2095 c-8 -21 2 -44 23 -52 30 -10 42 -24 36 -39 -7 -20 -40
-18 -52 3 -5 10 -13 15 -17 11 -4 -4 -1 -15 6 -23 17 -20 60 -15 74 8 11 19 0
32 -50 63 -16 10 -17 14 -6 25 10 11 16 11 32 1 27 -16 35 -15 20 3 -7 8 -23
15 -37 15 -13 0 -26 -7 -29 -15z"/>
<path d="M7500 2045 c0 -37 4 -65 10 -65 6 0 10 28 10 65 0 37 -4 65 -10 65
-6 0 -10 -28 -10 -65z"/>
<path d="M6822 2074 c-7 -8 -8 -14 -3 -14 5 0 11 -17 13 -37 2 -29 8 -39 23
-41 18 -2 18 -2 3 8 -11 6 -18 23 -18 40 0 22 5 30 18 31 13 0 14 2 2 6 -8 3
-17 9 -20 13 -3 4 -11 2 -18 -6z"/>
<path d="M6704 2044 c-4 -15 -2 -34 3 -43 12 -19 65 -21 71 -3 3 11 1 11 -17
0 -18 -11 -23 -10 -38 5 -16 16 -15 17 21 17 33 0 37 3 34 23 -2 17 -11 23
-35 25 -28 3 -33 0 -39 -24z m64 -1 c2 -8 -6 -13 -22 -13 -26 0 -40 12 -29 24
11 11 46 2 51 -11z"/>
<path d="M7091 2048 c-16 -45 13 -78 58 -63 23 7 31 33 20 63 -6 16 -17 22
-39 22 -22 0 -33 -6 -39 -22z m64 -23 c0 -23 -5 -30 -19 -30 -24 0 -41 27 -33
49 4 11 15 16 29 14 18 -2 23 -9 23 -33z"/>
<path d="M7222 2058 c-16 -16 -15 -53 2 -68 18 -14 58 -10 64 8 3 11 1 11 -17
0 -17 -11 -23 -10 -37 4 -34 34 10 78 45 46 11 -11 13 -10 9 2 -6 19 -49 25
-66 8z"/>
<path d="M7330 2025 c0 -25 5 -45 10 -45 6 0 10 20 10 45 0 25 -4 45 -10 45
-5 0 -10 -20 -10 -45z"/>
<path d="M7397 2064 c-15 -15 -6 -24 13 -12 15 10 22 10 32 0 9 -9 5 -13 -21
-18 -25 -5 -31 -11 -29 -28 2 -16 10 -21 36 -22 33 -1 33 0 30 40 -3 35 -6 41
-28 44 -14 2 -29 0 -33 -4z m51 -56 c-3 -7 -13 -13 -23 -13 -10 0 -20 6 -22
13 -3 7 5 12 22 12 17 0 25 -5 23 -12z"/>
<path d="M6627 2043 c14 -3 20 -9 17 -18 -3 -8 -1 -22 5 -32 9 -15 10 -12 11
20 0 34 -2 37 -27 36 -23 -1 -24 -2 -6 -6z"/>
<path d="M991 2279 c-75 -13 -136 -45 -194 -103 -187 -187 -117 -502 133 -597
50 -19 91 -19 1788 -17 l1737 3 49 25 c152 77 231 228 205 391 -5 34 -21 83
-34 109 -32 63 -122 143 -193 172 l-57 23 -1690 1 c-976 1 -1713 -2 -1744 -7z
m609 -349 c0 -40 -4 -70 -10 -70 -11 0 -14 123 -3 133 12 13 13 7 13 -63z
m140 25 c26 8 50 -21 50 -61 0 -46 -18 -43 -22 4 -2 29 -7 37 -23 37 -16 0
-21 -8 -23 -37 -5 -62 -22 -43 -22 25 0 65 12 100 18 53 3 -21 8 -26 22 -21z
m220 -25 c0 -40 -4 -70 -10 -70 -11 0 -14 123 -3 133 12 13 13 7 13 -63z m60
-6 c0 -36 -4 -64 -10 -64 -6 0 -10 30 -10 71 0 44 4 68 10 64 6 -3 10 -35 10
-71z m690 0 c0 -36 -4 -64 -10 -64 -6 0 -10 30 -10 71 0 44 4 68 10 64 6 -3
10 -35 10 -71z m50 6 c0 -40 -4 -70 -10 -70 -11 0 -14 123 -3 133 12 13 13 7
13 -63z m-1590 51 c-46 -8 -50 -43 -5 -52 l30 -7 -33 -1 c-29 -1 -33 -4 -30
-23 2 -17 12 -25 38 -29 33 -6 32 -6 -12 -8 l-48 -1 0 65 0 65 48 -1 c44 -2
45 -2 12 -8z m380 5 c0 -3 -4 -8 -10 -11 -5 -3 -10 -1 -10 4 0 6 5 11 10 11 6
0 10 -2 10 -4z m2010 0 c0 -3 -4 -8 -10 -11 -5 -3 -10 -1 -10 4 0 6 5 11 10
11 6 0 10 -2 10 -4z m-1240 -26 c22 -22 26 -51 10 -80 -14 -27 -106 -27 -115
0 -11 34 12 60 51 60 35 0 35 0 28 -36 -5 -29 -4 -36 7 -32 8 2 15 21 17 41 3
31 -1 39 -22 48 -47 22 -106 -22 -106 -79 0 -27 20 -42 58 -42 19 0 31 -4 27
-10 -9 -15 -48 -12 -73 6 -25 17 -30 77 -9 105 32 42 95 51 127 19z m1063 -18
c-19 -5 -16 -53 5 -69 16 -13 16 -14 -3 -11 -15 2 -21 12 -23 41 -2 20 -7 37
-13 37 -5 0 -4 8 2 19 11 17 13 17 28 2 12 -12 13 -17 4 -19z m255 7 c15 -1
15 -2 0 -6 -11 -3 -18 -14 -18 -30 0 -14 8 -32 18 -39 16 -12 15 -13 -5 -14
-22 0 -25 5 -37 71 -2 9 1 25 7 35 10 18 12 18 15 2 2 -10 11 -19 20 -19z
m-2338 1 c9 -5 19 -5 27 1 24 20 53 -8 53 -51 0 -51 -18 -52 -22 -2 -2 25 -8
37 -18 37 -10 0 -16 -12 -18 -37 -4 -48 -22 -50 -22 -3 0 23 -6 38 -16 42 -20
7 -34 -13 -34 -49 0 -16 -4 -28 -10 -28 -5 0 -10 20 -10 44 0 38 3 45 23 49
12 2 24 5 27 5 3 1 12 -2 20 -8z m171 0 c14 -8 19 -21 19 -49 0 -37 -1 -38
-37 -37 -50 1 -59 32 -14 49 17 6 31 15 31 19 0 12 -25 9 -38 -4 -9 -9 -12 -8
-12 4 0 14 9 22 28 27 2 1 12 -4 23 -9z m417 -6 c34 -24 28 -44 -13 -44 -19 0
-35 -5 -35 -10 0 -18 29 -23 47 -9 14 12 16 12 11 -1 -6 -19 -45 -25 -64 -10
-19 16 -18 55 2 74 19 20 24 20 52 0z m230 0 c39 -27 23 -84 -23 -84 -12 0
-26 5 -33 12 -18 18 -15 65 6 77 23 14 24 14 50 -5z m403 6 c10 -6 19 -20 19
-30 0 -16 -7 -20 -37 -20 -35 0 -36 -1 -21 -17 14 -14 20 -14 33 -3 17 14 31
8 20 -9 -11 -19 -63 -13 -75 8 -14 28 -13 38 10 61 23 23 25 23 51 10z m123
-6 c9 -8 16 -30 16 -48 0 -31 -2 -33 -39 -34 -28 -1 -41 3 -46 15 -7 20 19 43
49 43 16 0 17 3 8 12 -10 10 -17 10 -32 0 -11 -7 -20 -8 -20 -3 0 10 28 30 42
31 4 0 14 -7 22 -16z m341 6 c24 0 2 -54 -26 -61 -22 -6 -22 -7 -3 -8 12 -1
27 -8 34 -16 19 -23 -6 -47 -44 -43 -31 3 -31 3 -29 57 3 58 17 85 40 76 8 -3
21 -5 28 -5z m82 -14 c-10 -8 -17 -26 -17 -45 0 -17 -4 -31 -10 -31 -5 0 -10
20 -10 44 0 39 3 45 23 48 30 5 36 -1 14 -16z m111 8 c34 -24 28 -44 -13 -44
-19 0 -35 -5 -35 -10 0 -18 29 -23 47 -9 14 12 16 12 11 -1 -6 -19 -45 -25
-64 -10 -19 16 -18 55 2 74 19 20 24 20 52 0z m113 6 c14 -8 19 -21 19 -50 0
-39 -1 -40 -35 -40 -23 0 -38 6 -41 15 -8 20 13 45 37 45 11 0 19 5 19 10 0
14 -23 13 -38 -2 -6 -6 -15 -8 -19 -4 -5 4 1 14 11 22 24 17 22 17 47 4z m209
-16 c0 -2 -11 -2 -25 2 -15 4 -25 2 -25 -5 0 -6 11 -14 26 -17 18 -5 24 -12
22 -28 -3 -23 -43 -35 -61 -17 -16 16 0 26 18 11 12 -10 19 -10 27 -2 8 8 5
14 -14 21 -36 14 -45 31 -23 47 13 9 23 10 36 3 11 -5 19 -12 19 -15z m250 6
c30 -30 24 -40 -22 -40 -39 0 -41 -1 -26 -16 13 -13 20 -14 38 -4 18 10 21 9
18 -2 -6 -18 -46 -23 -64 -8 -20 17 -18 67 4 79 24 15 29 14 52 -9z m161 10
c10 -6 19 -15 19 -20 0 -6 -9 -5 -20 2 -16 10 -23 10 -36 -4 -13 -12 -14 -20
-5 -37 13 -24 31 -27 50 -8 11 10 13 9 9 -3 -6 -19 -45 -25 -64 -10 -20 17
-18 67 4 79 21 13 20 13 43 1z m127 -6 c39 -27 23 -84 -23 -84 -12 0 -26 5
-33 12 -18 18 -15 65 6 77 23 14 24 14 50 -5z m117 6 c4 -7 12 -7 25 0 24 13
26 13 44 -6 18 -17 22 -84 6 -84 -5 0 -10 16 -10 35 0 66 -48 56 -51 -10 -1
-26 -2 -24 -11 13 -12 56 -41 56 -46 -1 -4 -52 -22 -46 -22 7 0 38 3 45 23 49
12 2 25 5 29 6 4 0 10 -4 13 -9z m-2605 -45 c0 -25 -4 -45 -10 -45 -5 0 -10
20 -10 45 0 25 5 45 10 45 6 0 10 -20 10 -45z m868 34 c-12 -6 -18 -22 -18
-44 0 -19 -4 -35 -10 -35 -5 0 -10 19 -10 43 0 39 2 43 28 45 23 1 24 0 10 -9z
m406 -21 l14 -32 16 32 c9 18 21 32 26 32 12 0 -47 -124 -61 -129 -8 -2 -8 3
0 18 10 17 8 30 -8 66 -11 25 -15 45 -10 45 6 0 16 -14 23 -32z m736 -13 c0
-25 -4 -45 -10 -45 -5 0 -10 20 -10 45 0 25 5 45 10 45 6 0 10 -20 10 -45z
m260 -35 c0 -5 -4 -10 -10 -10 -5 0 -10 5 -10 10 0 6 5 10 10 10 6 0 10 -4 10
-10z"/>
<path d="M2240 1915 c-13 -15 -7 -45 8 -45 16 0 34 29 28 45 -7 19 -20 19 -36
0z"/>
<path d="M1433 1888 c2 -7 10 -13 17 -13 7 0 15 6 18 13 2 7 -5 12 -18 12 -13
0 -20 -5 -17 -12z"/>
<path d="M1845 1930 c-4 -6 5 -10 20 -10 15 0 24 4 20 10 -3 6 -12 10 -20 10
-8 0 -17 -4 -20 -10z"/>
<path d="M2071 1926 c-9 -11 -10 -20 -1 -35 12 -23 18 -25 38 -12 18 11 11 55
-9 59 -9 1 -21 -4 -28 -12z"/>
<path d="M2475 1930 c-4 -6 5 -10 19 -10 14 0 26 5 26 10 0 6 -9 10 -19 10
-11 0 -23 -4 -26 -10z"/>
<path d="M2595 1891 c-10 -18 17 -23 33 -7 15 15 15 16 -5 16 -12 0 -24 -4
-28 -9z"/>
<path d="M2936 1931 c-7 -11 18 -33 27 -24 4 3 7 12 7 20 0 15 -26 18 -34 4z"/>
<path d="M2933 1848 c2 -7 12 -13 22 -13 10 0 20 6 23 13 2 7 -6 12 -23 12
-17 0 -25 -5 -22 -12z"/>
<path d="M3135 1930 c-4 -6 5 -10 20 -10 15 0 24 4 20 10 -3 6 -12 10 -20 10
-8 0 -17 -4 -20 -10z"/>
<path d="M3250 1884 c0 -9 7 -14 17 -12 25 5 28 28 4 28 -12 0 -21 -6 -21 -16z"/>
<path d="M3705 1930 c-4 -6 5 -10 20 -10 15 0 24 4 20 10 -3 6 -12 10 -20 10
-8 0 -17 -4 -20 -10z"/>
<path d="M3991 1926 c-9 -11 -10 -20 -1 -35 12 -23 18 -25 38 -12 18 11 11 55
-9 59 -9 1 -21 -4 -28 -12z"/>
</g>
</svg>
